<?xml version="1.0" encoding="utf-8"?>
<!-- Generator: Adobe Illustrator 21.1.0, SVG Export Plug-In . SVG Version: 6.00 Build 0)  -->
<svg version="1.1" id="Layer_1" xmlns="http://www.w3.org/2000/svg" xmlns:xlink="http://www.w3.org/1999/xlink" x="0px" y="0px"
	 viewBox="0 0 279.1 242.8" style="enable-background:new 0 0 279.1 242.8;" xml:space="preserve">
<style type="text/css">
	.st0{clip-path:url(#SVGID_28_);fill:#F47920;}
	.st1{clip-path:url(#SVGID_30_);fill:#F47920;}
	.st2{clip-path:url(#SVGID_32_);fill:#F47920;}
	.st3{clip-path:url(#SVGID_34_);fill:#F47920;}
	.st4{clip-path:url(#SVGID_36_);fill:#F47920;}
	.st5{clip-path:url(#SVGID_38_);fill:#F47920;}
	.st6{clip-path:url(#SVGID_40_);fill:#F47920;}
	.st7{clip-path:url(#SVGID_42_);fill:#F47920;}
	.st8{clip-path:url(#SVGID_44_);fill:#F47920;}
	.st9{clip-path:url(#SVGID_46_);fill:#F47920;}
	.st10{clip-path:url(#SVGID_48_);fill:#F47920;}
	.st11{clip-path:url(#SVGID_50_);fill:#F47920;}
	.st12{clip-path:url(#SVGID_52_);fill:#F47920;}
	.st13{clip-path:url(#SVGID_54_);fill:#F47920;}
	.st14{clip-path:url(#SVGID_56_);fill:#F47920;}
	.st15{clip-path:url(#SVGID_58_);fill:#F47920;}
	.st16{clip-path:url(#SVGID_60_);fill:#F47920;}
	.st17{clip-path:url(#SVGID_62_);fill:#F47920;}
	.st18{clip-path:url(#SVGID_64_);fill:#F47920;}
	.st19{clip-path:url(#SVGID_66_);fill:#F47920;}
	.st20{clip-path:url(#SVGID_68_);fill:#F47920;}
	.st21{clip-path:url(#SVGID_70_);fill:#F47920;}
	.st22{clip-path:url(#SVGID_72_);fill:#F47920;}
	.st23{clip-path:url(#SVGID_74_);fill:#F47920;}
	.st24{clip-path:url(#SVGID_76_);fill:#F47920;}
	.st25{clip-path:url(#SVGID_78_);fill:#F47920;}
	.st26{clip-path:url(#SVGID_80_);fill:#F47920;}
	.st27{clip-path:url(#SVGID_82_);fill:#F47920;}
	.st28{clip-path:url(#SVGID_84_);fill:#F47920;}
	.st29{clip-path:url(#SVGID_86_);fill:#F47920;}
	.st30{clip-path:url(#SVGID_88_);fill:#F47920;}
	.st31{clip-path:url(#SVGID_90_);fill:#F47920;}
	.st32{clip-path:url(#SVGID_92_);fill:#F47920;}
	.st33{clip-path:url(#SVGID_94_);fill:#F47920;}
	.st34{clip-path:url(#SVGID_96_);fill:#F47920;}
	.st35{clip-path:url(#SVGID_98_);fill:#F47920;}
	.st36{clip-path:url(#SVGID_100_);fill:#F47920;}
	.st37{clip-path:url(#SVGID_102_);fill:#F47920;}
	.st38{clip-path:url(#SVGID_104_);fill:#F47920;}
	.st39{clip-path:url(#SVGID_106_);fill:#F47920;}
	.st40{clip-path:url(#SVGID_108_);fill:#F47920;}
	.st41{clip-path:url(#SVGID_110_);fill:#F47920;}
	.st42{clip-path:url(#SVGID_112_);fill:#F47920;}
	.st43{clip-path:url(#SVGID_114_);fill:#F47920;}
	.st44{clip-path:url(#SVGID_116_);fill:#F47920;}
	.st45{clip-path:url(#SVGID_118_);fill:#F47920;}
	.st46{clip-path:url(#SVGID_120_);fill:#F47920;}
	.st47{clip-path:url(#SVGID_122_);fill:#F47920;}
	.st48{clip-path:url(#SVGID_124_);fill:#F47920;}
	.st49{clip-path:url(#SVGID_126_);fill:#F47920;}
	.st50{clip-path:url(#SVGID_128_);fill:#F47920;}
	.st51{clip-path:url(#SVGID_130_);fill:#F47920;}
	.st52{clip-path:url(#SVGID_132_);fill:#F47920;}
	.st53{clip-path:url(#SVGID_134_);fill:#F47920;}
	.st54{clip-path:url(#SVGID_136_);fill:#F47920;}
	.st55{clip-path:url(#SVGID_138_);fill:#F47920;}
	.st56{clip-path:url(#SVGID_140_);fill:#F47920;}
	.st57{clip-path:url(#SVGID_142_);fill:#F47920;}
	.st58{clip-path:url(#SVGID_144_);fill:#F47920;}
	.st59{clip-path:url(#SVGID_146_);fill:#F47920;}
	.st60{clip-path:url(#SVGID_148_);fill:#F47920;}
	.st61{clip-path:url(#SVGID_150_);fill:#F47920;}
	.st62{clip-path:url(#SVGID_152_);fill:#F47920;}
	.st63{clip-path:url(#SVGID_154_);fill:#F47920;}
	.st64{fill:none;}
</style>
<g>
	<g>
		<defs>
			<rect id="SVGID_1_" y="0" width="279.1" height="277.2"/>
		</defs>
		<clipPath id="SVGID_2_">
			<use xlink:href="#SVGID_1_"  style="overflow:visible;"/>
		</clipPath>
	</g>
	<g>
		<defs>
			<rect id="SVGID_3_" y="0" width="279.1" height="277.2"/>
		</defs>
		<clipPath id="SVGID_4_">
			<use xlink:href="#SVGID_3_"  style="overflow:visible;"/>
		</clipPath>
	</g>
	<g>
		<defs>
			<rect id="SVGID_5_" y="0" width="279.1" height="277.2"/>
		</defs>
		<clipPath id="SVGID_6_">
			<use xlink:href="#SVGID_5_"  style="overflow:visible;"/>
		</clipPath>
	</g>
	<g>
		<defs>
			<rect id="SVGID_7_" y="0" width="279.1" height="277.2"/>
		</defs>
		<clipPath id="SVGID_8_">
			<use xlink:href="#SVGID_7_"  style="overflow:visible;"/>
		</clipPath>
	</g>
	<g>
		<defs>
			<rect id="SVGID_9_" y="0" width="279.1" height="277.2"/>
		</defs>
		<clipPath id="SVGID_10_">
			<use xlink:href="#SVGID_9_"  style="overflow:visible;"/>
		</clipPath>
	</g>
	<g>
		<defs>
			<rect id="SVGID_11_" y="0" width="279.1" height="277.2"/>
		</defs>
		<clipPath id="SVGID_12_">
			<use xlink:href="#SVGID_11_"  style="overflow:visible;"/>
		</clipPath>
	</g>
	<g>
		<defs>
			<rect id="SVGID_13_" y="0" width="279.1" height="277.2"/>
		</defs>
		<clipPath id="SVGID_14_">
			<use xlink:href="#SVGID_13_"  style="overflow:visible;"/>
		</clipPath>
	</g>
	<g>
		<defs>
			<rect id="SVGID_15_" y="0" width="279.1" height="277.2"/>
		</defs>
		<clipPath id="SVGID_16_">
			<use xlink:href="#SVGID_15_"  style="overflow:visible;"/>
		</clipPath>
	</g>
	<g>
		<defs>
			<rect id="SVGID_17_" y="0" width="279.1" height="277.2"/>
		</defs>
		<clipPath id="SVGID_18_">
			<use xlink:href="#SVGID_17_"  style="overflow:visible;"/>
		</clipPath>
	</g>
	<g>
		<defs>
			<rect id="SVGID_19_" y="0" width="279.1" height="277.2"/>
		</defs>
		<clipPath id="SVGID_20_">
			<use xlink:href="#SVGID_19_"  style="overflow:visible;"/>
		</clipPath>
	</g>
	<g>
		<defs>
			<rect id="SVGID_21_" y="0" width="279.1" height="277.2"/>
		</defs>
		<clipPath id="SVGID_22_">
			<use xlink:href="#SVGID_21_"  style="overflow:visible;"/>
		</clipPath>
	</g>
	<g>
		<defs>
			<rect id="SVGID_23_" y="0" width="279.1" height="277.2"/>
		</defs>
		<clipPath id="SVGID_24_">
			<use xlink:href="#SVGID_23_"  style="overflow:visible;"/>
		</clipPath>
	</g>
	<g>
		<defs>
			<rect id="SVGID_25_" y="0" width="279.1" height="277.2"/>
		</defs>
		<clipPath id="SVGID_26_">
			<use xlink:href="#SVGID_25_"  style="overflow:visible;"/>
		</clipPath>
	</g>
	<g>
		<defs>
			<rect id="SVGID_27_" y="0" width="279.1" height="277.2"/>
		</defs>
		<clipPath id="SVGID_28_">
			<use xlink:href="#SVGID_27_"  style="overflow:visible;"/>
		</clipPath>
		<path class="st0" d="M31.9,174c0-10.7-2.8-16.1-8.5-16.1c-0.5,0-1.2,0.4-2.3,1.3c-1,0.8-1.5,1.5-1.5,1.9v30c4.2,0,7.4-1.9,9.6-5.6
			C31.1,182.6,31.9,178.7,31.9,174 M50,171.7c0,7.3-1,13.3-3.1,18.2l-1.5,1.5c-1.2,1.2-2.2,3.2-3,6.1c-2.9,3.3-8.9,6.8-18.1,10.6
			c-1.4-0.6-2.8,0.4-4.1,3.2c-0.3,0.6-0.4,1.1-0.4,1.3v16.7c0,3-2.7,4.5-8.2,4.5c-4.6,0-7.4-0.4-8.4-1.1c-0.8-0.7-1.4-2.4-1.6-4.9
			c-0.1-1-0.2-2.3-0.2-3.7c0-1.5-0.1-3.2-0.1-5.2l-0.7-20.2c-0.2-5.2-0.4-10.3-0.5-15.3S0,173.5,0,168.7c0-10.7,0.5-17.8,1.5-21.3
			c0.4-1.4,1.4-2.5,3-3.3c2.2-1,5-1.5,8.5-1.5c8.2,0,14.2,0.7,18.2,2.1c5.9,2.1,10.6,5.6,13.8,10.3C48.4,159.8,50,165.3,50,171.7"/>
	</g>
	<g>
		<defs>
			<rect id="SVGID_29_" y="0" width="279.1" height="277.2"/>
		</defs>
		<clipPath id="SVGID_30_">
			<use xlink:href="#SVGID_29_"  style="overflow:visible;"/>
		</clipPath>
		<path class="st1" d="M102.8,198.3c0-4.5-1.3-8.4-3.9-11.8c-2.9-3.9-6.5-5.8-10.8-5.8c-4.2,0-7.7,1.7-10.5,5.1
			c-2.7,3.4-4.1,7.3-4.1,11.6c0,12.3,5.1,18.5,15.4,18.5c4.1,0,7.5-2,10.1-5.9C101.6,206.6,102.8,202.7,102.8,198.3 M120.9,196.9
			c0,6.2-0.7,11.4-2,15.7c-2,6.9-5.6,12.2-10.7,15.9c-5.1,3.6-11.3,5.4-18.6,5.4c-10,0-18.2-3.3-24.6-10c-6.5-6.7-9.7-15-9.7-24.9
			c0-7.7,1.8-14.4,5.5-20.4c3.7-5.9,9-10.2,15.9-13.1H81c1,0,1.8-0.1,2.5-0.1s1.3,0,1.8,0c9.3,0,16.9,1.8,22.7,5.3
			c5.1,3.1,9,7.9,11.5,14.3c0.8,2,1.2,3.1,1.2,3.3C120.8,189.5,120.9,192.3,120.9,196.9"/>
	</g>
	<g>
		<defs>
			<rect id="SVGID_31_" y="0" width="279.1" height="277.2"/>
		</defs>
		<clipPath id="SVGID_32_">
			<use xlink:href="#SVGID_31_"  style="overflow:visible;"/>
		</clipPath>
		<path class="st2" d="M246.4,198.3c0-4.5-1.3-8.4-3.9-11.8c-2.9-3.9-6.5-5.8-10.8-5.8c-4.2,0-7.7,1.7-10.5,5.1
			c-2.7,3.4-4.1,7.3-4.1,11.6c0,12.3,5.1,18.5,15.4,18.5c4.1,0,7.5-2,10.1-5.9C245.2,206.6,246.4,202.7,246.4,198.3 M264.4,196.9
			c0,6.2-0.7,11.4-2,15.7c-2,6.9-5.6,12.2-10.7,15.9c-5.1,3.6-11.3,5.4-18.6,5.4c-10,0-18.2-3.3-24.6-10c-6.5-6.7-9.7-15-9.7-24.9
			c0-7.7,1.8-14.4,5.5-20.4c3.7-5.9,9-10.2,15.9-13.1h4.3c1,0,1.8-0.1,2.5-0.1s1.3,0,1.8,0c9.3,0,16.9,1.8,22.7,5.3
			c5.1,3.1,9,7.9,11.5,14.3c0.8,2,1.2,3.1,1.2,3.3C264.4,189.5,264.4,192.3,264.4,196.9"/>
	</g>
	<g>
		<defs>
			<rect id="SVGID_33_" y="0" width="279.1" height="277.2"/>
		</defs>
		<clipPath id="SVGID_34_">
			<use xlink:href="#SVGID_33_"  style="overflow:visible;"/>
		</clipPath>
		<path class="st3" d="M164.1,170.9c-0.5,0.3-5.7,1-10,1.3c-0.3,0-17.4,0.3-8.6,13.2l3.9,5.6c0.1,0.4,4.1,3.9,4.1,4.2s4.4,5.8,4.4,6
			c2.5,3.4,0.5,0.8,2,3.2s0.3,0.7,1.9,3c0.4,0.6,2.9,4.7,3.1,6.8c0.5,4.5-0.2,2.7-0.8,5.7c-0.9,4.7-1.8,10.2-5.6,13
			c-3.7,2.8-3.7,5.1-8.6,5.7c-2.1,0.2-11,4.7-23.7-3.9c-0.5-0.3-9.9-6.1-4.3-10.9c4.2-3.6,4.8-4.8,9.1-2.7c4.2,2.2,9.9,3.7,11,3.3
			c5-1.5,4.9-2.3,6-4.9c1.1-2.5-1-9.1-6.9-14c-2.5-2.1-2.9-3.1-5.6-8.2c-2.7-5.1-6-10.8-6.3-13.7c-0.8-6.9,2.1-15.4,7.9-19.1
			c5.9-3.7,9.4-6,16-6.8c2.5-0.3,10,0.3,10.4,0.4C165.8,159,166,169.6,164.1,170.9"/>
	</g>
	<g>
		<defs>
			<rect id="SVGID_35_" y="0" width="279.1" height="277.2"/>
		</defs>
		<clipPath id="SVGID_36_">
			<use xlink:href="#SVGID_35_"  style="overflow:visible;"/>
		</clipPath>
		<path class="st4" d="M191.4,109.5c5.3-20.1,33.5,4.2,45.5,2.8c1.8-0.2,1.8-3.1,0-2.9c-4.2,0.5-8.5-1.5-12.3-3.1c-5-2-9.9-4.3-15-6
			c-4.1-1.3-8.8-2.3-13.1-1.1c-4.4,1.3-6.7,5.3-7.8,9.5C188.2,110.5,190.9,111.3,191.4,109.5"/>
	</g>
	<g>
		<defs>
			<rect id="SVGID_37_" y="0" width="279.1" height="277.2"/>
		</defs>
		<clipPath id="SVGID_38_">
			<use xlink:href="#SVGID_37_"  style="overflow:visible;"/>
		</clipPath>
		<path class="st5" d="M189.7,96.4c1.3-3.6,2-7.4,3.8-10.8c2.6-4.8,7.1-1.4,9.6,1.7c2.4,2.8,6.6,4.8,9.7,1.7
			c2.8-2.9-0.9-5.6-3.6-5.8c-1.8-0.1-1.8,2.7,0,2.9c1.7,0.1,2.1,1.2,0.3,1.7c-1.4,0.4-2.6-0.6-3.5-1.4c-1.2-1.2-2.2-2.6-3.6-3.7
			c-2.2-1.6-5.3-3.2-8-1.8c-5,2.6-5.7,10.1-7.4,14.9C186.3,97.3,189.1,98.1,189.7,96.4"/>
	</g>
	<g>
		<defs>
			<rect id="SVGID_39_" y="0" width="279.1" height="277.2"/>
		</defs>
		<clipPath id="SVGID_40_">
			<use xlink:href="#SVGID_39_"  style="overflow:visible;"/>
		</clipPath>
		<path class="st6" d="M202.4,70.4c3,0.7,5.3-0.5,5.7-3.6c0.5-3.7-3-5.7-6-6.3c-8-1.7-14.2,5.8-19.4,10.6c-1.4,1.3,0.7,3.3,2,2
			c3.3-3.1,6.2-6.4,10.3-8.6c2.4-1.3,5.1-1.7,7.7-0.9c2.3,0.7,4,4.9,0.4,4.1C201.4,67.2,200.6,69.9,202.4,70.4"/>
	</g>
	<g>
		<defs>
			<rect id="SVGID_41_" y="0" width="279.1" height="277.2"/>
		</defs>
		<clipPath id="SVGID_42_">
			<use xlink:href="#SVGID_41_"  style="overflow:visible;"/>
		</clipPath>
		<path class="st7" d="M180.5,73.9c-1.4-4-3.2-7.9-5.5-11.5c-2-3.3-4.8-7-8.7-8c-9.7-2.3-7.9,10.1-10.7,15.4
			c-1.7,3.3-6.6,4.6-9.4,6.7c-2.6,2-4.7,5.7-2.2,8.7c1.8,2.3,7.2,5.4,10.2,3.7c4.6-2.6,1.6-7.1-2.6-7.8c-1.8-0.3-2.6,2.5-0.8,2.8
			c0.9,0.1,1.7,0.4,2.5,1c0,1.2-0.4,1.7-1.3,1.5c-0.5-0.1-0.9-0.2-1.4-0.3c-1.6-0.4-3.2-1.4-4.3-2.5c-2.3-2.3,2-5.1,3.6-6.1
			c2.2-1.4,4.5-2.5,6.6-4.2c1.8-1.6,2.6-3.9,3.1-6.2c0.5-2.5,0.7-5.1,1.6-7.5c1.2-3.3,4.8-2.8,7.1-1c4.8,3.7,7.6,10.6,9.6,16.2
			C178.4,76.4,181.2,75.6,180.5,73.9"/>
	</g>
	<g>
		<defs>
			<rect id="SVGID_43_" y="0" width="279.1" height="277.2"/>
		</defs>
		<clipPath id="SVGID_44_">
			<use xlink:href="#SVGID_43_"  style="overflow:visible;"/>
		</clipPath>
		<path class="st8" d="M181.1,99c-0.8-2.9-2.6-6.7-6.1-6.7c-3.8,0-4.5,5.3-4.6,8c-0.2,4.5-3.4,7.1-7.3,9c-1.7,0.8-4.4,1.5-5.7-0.3
			c-1.2-1.5,1.5-4,1.8-1.8c0.2,1.8,3,1,2.8-0.8c-0.5-3.7-4.9-3.8-6.8-1.1c-2.6,3.6,0.7,7.3,4.5,7.6c4.3,0.4,9.1-3.3,11.7-6.4
			c1.5-1.8,1.8-4,1.9-6.3c0-0.9,0.2-6.2,2.6-4.9c1.4,0.7,2.1,3,2.5,4.4C178.9,101.6,181.6,100.8,181.1,99"/>
	</g>
	<g>
		<defs>
			<rect id="SVGID_45_" y="0" width="279.1" height="277.2"/>
		</defs>
		<clipPath id="SVGID_46_">
			<use xlink:href="#SVGID_45_"  style="overflow:visible;"/>
		</clipPath>
		<path class="st9" d="M180.6,59.4c-4-0.1-4.8-5.4-5.6-8.5c-1-3.6-2.2-7.3-5.6-9.4c-3.2-1.9-8.5-1.4-10.7,1.7c-2.2,3.1-1,7-2.7,10.2
			c-2,3.9-7.9-1.1-10.9,0c-2,0.8-2.6,3.2-2.8,5c-0.1,1,1,5,0.2,5.5c-3.5,2.4-8.7-0.6-11.5,3.4c-1,1.4-0.7,4,0.3,5.2
			c1.6,1.9,4.2,2.7,6.6,3c3.6,0.4,6.1-2.9,4.5-6.1c-0.9-1.6-3.3-0.2-2.5,1.4c1.2,2.2-2.8,1.6-3.5,1.5c-1.5-0.4-3-1.2-3.1-2.9
			c-0.1-2,3.8-1.7,5.1-1.7c2.9-0.1,7.5-0.9,7.3-4.6c-0.1-2.1-0.7-3.7-0.2-5.9c0.6-2.3,3.5-0.5,4.9,0c3.2,1.1,7.1,0.1,8.5-3.1
			c1.2-2.9,0.5-6.4,2.1-9.2c1.1-1.8,3.9-1.9,5.7-1.5c1.9,0.4,3.1,1.9,4,3.5c2.7,5.2,2.2,14.9,10,15.2
			C182.4,62.3,182.4,59.5,180.6,59.4"/>
	</g>
	<g>
		<defs>
			<rect id="SVGID_47_" y="0" width="279.1" height="277.2"/>
		</defs>
		<clipPath id="SVGID_48_">
			<use xlink:href="#SVGID_47_"  style="overflow:visible;"/>
		</clipPath>
		<path class="st10" d="M182,34.4c0.9-5.8-3.9-8.6-9.2-7.8c-2.5,0.4-4.6,1.9-6,3.9c-0.8,1.2-0.9,2.9-1.2,4.2c-1,3.5-5.4,0-2.2-2
			c1.6-1,0.1-3.4-1.4-2.5c-2.5,1.6-3.4,4.8-1.5,7.2c1.7,2.2,5.6,2.3,7.1-0.2c0.8-1.3,1.1-2.7,1.4-4.2c0.4-1.9,1.8-2.9,3.6-3.5
			c3.1-1,7.3,0.2,6.7,4.1C178.9,35.4,181.7,36.2,182,34.4"/>
	</g>
	<g>
		<defs>
			<rect id="SVGID_49_" y="0" width="279.1" height="277.2"/>
		</defs>
		<clipPath id="SVGID_50_">
			<use xlink:href="#SVGID_49_"  style="overflow:visible;"/>
		</clipPath>
		<path class="st11" d="M191,22.4c1.9-3.7-0.6-8.6-5-7.8c-1.9,0.3-2.4,2.4-2.6,4.1c-0.1,1.3,0.1,3-1.7,3.1c-0.7,0-1.5-0.4-2.1-0.7
			c-0.5-0.3-0.8-0.6-1.1-1.1c-0.4-1-0.2-1.3,0.8-1c0.7,1.7,3.4,1,2.8-0.8c-1-2.5-3.4-3.7-5.6-1.6c-2.3,2.3-0.4,5.4,1.7,6.9
			c2.4,1.7,5.8,1.5,7.4-1c0.7-1.1,0.6-2.6,0.7-3.8c0.2-2.8,3.5-0.1,2.3,2.3C187.7,22.6,190.1,24.1,191,22.4"/>
	</g>
	<g>
		<defs>
			<rect id="SVGID_51_" y="0" width="279.1" height="277.2"/>
		</defs>
		<clipPath id="SVGID_52_">
			<use xlink:href="#SVGID_51_"  style="overflow:visible;"/>
		</clipPath>
		<path class="st12" d="M195,20.2c2-0.8,4-1.6,6.2-0.9c1,0.3,0.1,0.8-0.4,1.6c-0.5,0.7-0.8,1.4-1,2.1c-0.8,2.4,0,5.3,2.6,6.2
			c3.9,1.2,9.8-3.7,6.3-7.4c-1.3-1.3-3.3,0.7-2,2c1.1,1.1-1.6,2.3-2.4,2.5c-2.9,0.8-1.5-3.2-0.7-4.4c1.1-1.5,2-3.6-0.1-4.7
			c-3.1-1.7-6-1-9.1,0.2C192.5,18.1,193.2,20.9,195,20.2"/>
	</g>
	<g>
		<defs>
			<rect id="SVGID_53_" y="0" width="279.1" height="277.2"/>
		</defs>
		<clipPath id="SVGID_54_">
			<use xlink:href="#SVGID_53_"  style="overflow:visible;"/>
		</clipPath>
		<path class="st13" d="M189.7,49.4c0.3-3.8,3.5-5,6.9-5c3.6,0,6.7,1.4,9.1,4.1c5.6,6.2,4.9,16.4,7.4,24c1.1,3.2,3,6.6,6.5,7.8
			c3.4,1.1,7.4-0.3,8.9-3.8c2.2-5.2-6.5-7.2-5.8-2.1c0.3,1.8,3,1,2.8-0.8c0.1,0.9-0.8,0.2,0.1,0.6c0.4,0.2,0.5,0.6,0.4,1
			c-0.7,3-4.5,2.9-6.6,1.7c-3.2-1.9-4.1-6.9-4.8-10.2c-1.4-6.4-2-13.2-5.7-18.8c-2.9-4.3-7.6-6.4-12.7-6.3c-4.9,0-8.8,2.9-9.2,7.9
			C186.7,51.3,189.6,51.2,189.7,49.4"/>
	</g>
	<g>
		<defs>
			<rect id="SVGID_55_" y="0" width="279.1" height="277.2"/>
		</defs>
		<clipPath id="SVGID_56_">
			<use xlink:href="#SVGID_55_"  style="overflow:visible;"/>
		</clipPath>
		<path class="st14" d="M189.5,77.7c1.4-2.3,3.1-4.4,5.9-4.5c2.5-0.1,3.8,2,5.3,3.7c2.2,2.6,5,3,7.4,0.4c1.2-1.4-0.8-3.4-2-2
			c-1.9,2.1-3.2-0.2-4.5-1.8c-1.2-1.5-2.4-2.3-4.2-2.9c-4.5-1.5-8.3,2.2-10.4,5.6C186.1,77.9,188.6,79.3,189.5,77.7"/>
	</g>
	<g>
		<defs>
			<rect id="SVGID_57_" y="0" width="279.1" height="277.2"/>
		</defs>
		<clipPath id="SVGID_58_">
			<use xlink:href="#SVGID_57_"  style="overflow:visible;"/>
		</clipPath>
		<path class="st15" d="M214.3,76.6c-0.9,11.8,12.6,16.1,22.2,14.1c4.6-0.9,10.9-6.9,5-10.8c-3.6-2.3-9.1,0.7-5.9,4.8
			c1.1,1.4,3.1-0.6,2-2c-0.8-1,1.8-0.6,2.4-0.3c3.3,1.5-1.8,4.8-3.2,5.3c-2.8,0.9-6,0.9-8.9,0.4c-6-1-11.3-4.9-10.8-11.5
			C217.3,74.7,214.4,74.7,214.3,76.6"/>
	</g>
	<g>
		<defs>
			<rect id="SVGID_59_" y="0" width="279.1" height="277.2"/>
		</defs>
		<clipPath id="SVGID_60_">
			<use xlink:href="#SVGID_59_"  style="overflow:visible;"/>
		</clipPath>
		<path class="st16" d="M223.6,39.9c1.6-1.5,6.8-3.2,5.9,1.1c-0.3,1.7-0.7,2.9,0.1,4.6c1.3,2.8,5.7,4.5,8.5,3.1
			c5.1-2.5,2.3-10.8-3.2-7.4c-1.6,1-0.1,3.4,1.4,2.5c1-0.6,1.7-0.6,1.7,0.7c0.1,1.9-2.3,2-3.6,1.6c-4.4-1.2-1-5.1-2.4-7.8
			c-2.2-4.3-7.6-3.2-10.6-0.5C220.2,39.1,222.2,41.1,223.6,39.9"/>
	</g>
	<g>
		<defs>
			<rect id="SVGID_61_" y="0" width="279.1" height="277.2"/>
		</defs>
		<clipPath id="SVGID_62_">
			<use xlink:href="#SVGID_61_"  style="overflow:visible;"/>
		</clipPath>
		<path class="st17" d="M197.3,16.2c2.6-2.1,5.9-4,9.4-3.1c3,0.7,5.2,3.6,6.7,6c3.8,6,5.6,13.2,7.3,20.1c1.7,6.8,2.8,14.3,9.1,18.4
			c4.6,3,24.7,6.8,17.4,16c-1.1,1.4,0.9,3.5,2,2c7-8.9-4.3-15.5-11.8-18.1c-5.2-1.8-9.1-3.5-11.3-8.9c-1.5-3.7-2.1-7.8-3.1-11.7
			c-2-7.6-4.3-15.7-9.2-22c-5.2-6.7-12.6-5.7-18.6-0.8C193.9,15.3,195.9,17.3,197.3,16.2"/>
	</g>
	<g>
		<defs>
			<rect id="SVGID_63_" y="0" width="279.1" height="277.2"/>
		</defs>
		<clipPath id="SVGID_64_">
			<use xlink:href="#SVGID_63_"  style="overflow:visible;"/>
		</clipPath>
		<path class="st18" d="M237.7,46.9c0.1,5.5,8.6,4.7,10.7,1c0.6-1-0.2-2.1-1.2-2.1c-5-0.4-8.1,7.9-4.5,11.2
			c2.6,2.4,10.6,5.2,12.6,0.7c0.2-0.5,0.3-1.3-0.2-1.7c-1.5-1.3-3-1.8-5-1.6c-1.8,0.2-1.8,3.1,0,2.9c1.1-0.3,2.1,0,3,0.7
			c-0.1-0.6-0.1-1.2-0.2-1.7c-1,2.2-5.7,0.1-7.1-0.6c-1.4-0.7-2-1.4-1.7-3c0.2-1.5,1.4-4.1,3.2-3.9c-0.4-0.7-0.8-1.4-1.2-2.1
			c-0.7,1.2-5.3,2.6-5.3,0.4C240.6,45,237.7,45,237.7,46.9"/>
	</g>
	<g>
		<defs>
			<rect id="SVGID_65_" y="0" width="279.1" height="277.2"/>
		</defs>
		<clipPath id="SVGID_66_">
			<use xlink:href="#SVGID_65_"  style="overflow:visible;"/>
		</clipPath>
		<path class="st19" d="M243,90.3c-3.2-1.2-6.1-1-7.2,2.5c-0.5,1.5-0.6,3-1.3,4.3c-0.5,0.9-1.5,1.7-2.6,1.4c-1.2-0.3-0.9-1.2,0-1.5
			c1.7-0.5,1-3.3-0.8-2.8c-5.4,1.7-2.1,8.5,2.7,6.9c2.4-0.8,3.6-3.3,4.2-5.5c0.3-1,0.4-2,0.9-2.9c0.6-1,2.7,0,3.4,0.3
			C243.9,93.7,244.7,91,243,90.3"/>
	</g>
	<g>
		<defs>
			<rect id="SVGID_67_" y="0" width="279.1" height="277.2"/>
		</defs>
		<clipPath id="SVGID_68_">
			<use xlink:href="#SVGID_67_"  style="overflow:visible;"/>
		</clipPath>
		<path class="st20" d="M253.3,95.3c-2.5-1.7-4.6-0.9-5.9,1.7c-0.5,1.1-0.9,1.9-2,2.5c-0.7,0.4-2.4-0.3-1.2-0.4
			c1.8-0.2,1.8-3.1,0-2.9c-1.7,0.2-3.4,1.2-3.3,3.2c0.1,2,1.9,3.1,3.8,3.2c1.9,0,3.6-1.3,4.5-2.8c0.4-0.7,0.7-1.5,1.1-2.2
			c0.4-0.7,0.9-0.1,1.4,0.2C253.4,98.8,254.8,96.3,253.3,95.3"/>
	</g>
	<g>
		<defs>
			<rect id="SVGID_69_" y="0" width="279.1" height="277.2"/>
		</defs>
		<clipPath id="SVGID_70_">
			<use xlink:href="#SVGID_69_"  style="overflow:visible;"/>
		</clipPath>
		<path class="st21" d="M199.4,42.3c0-1.4,0-2.8,0.6-4.1c0.8-1.7,1.4-0.5,2.1,0.3c0.5,0.5,1,0.8,1.4,1.4c0.5,0.7,1,1.2,1.7,1.6
			c1.9,1,4-0.3,5.2-1.8c1.4-1.8,0.2-4.3-1.3-5.5c-1.4-1.2-3.4,0.9-2,2c1.1,0.9,1.7,2.6-0.4,2.8c-0.5,0-1-0.9-1.2-1.2
			c-0.4-0.5-0.9-0.8-1.3-1.2c-0.6-0.6-0.9-1.2-1.6-1.7c-1.4-1-3.5,0.2-4.4,1.3c-1.5,1.7-1.5,4.2-1.5,6.3
			C196.6,44.1,199.4,44.1,199.4,42.3"/>
	</g>
	<g>
		<defs>
			<rect id="SVGID_71_" y="0" width="279.1" height="277.2"/>
		</defs>
		<clipPath id="SVGID_72_">
			<use xlink:href="#SVGID_71_"  style="overflow:visible;"/>
		</clipPath>
		<path class="st22" d="M244,77.1c-1.5,0.1-2.9-0.6-3.1-2.2c-0.2-2.2,2.9-1.7,4.1-1.4c2.4,0.5,3.9,2.4,6.6,2.1
			c1.9-0.2,3.3-1.7,4.7-2.9c2.4-1.9,7.3-1.9,10-0.7c1.7,0.8,2.4,3.2,0.7,4.4c-1.2,0.8-3.3,0.5-2.1-1.2c1.1-1.5-1.4-2.9-2.5-1.4
			c-3.7,4.9,4.1,7.8,7.2,4c1.8-2.1,1.3-5.2-0.5-7.2c-1.9-2.1-5.5-2.3-8.1-2.1c-3.3,0.2-5.7,1.2-8.2,3.4c-2.4,2-4.8-0.2-7.2-1.1
			c-1.5-0.6-3.5-0.5-5,0c-2.2,0.8-3,3.1-2.5,5.3c0.6,2.6,3.3,4,5.8,3.9C245.8,79.9,245.8,77,244,77.1"/>
	</g>
	<g>
		<defs>
			<rect id="SVGID_73_" y="0" width="279.1" height="277.2"/>
		</defs>
		<clipPath id="SVGID_74_">
			<use xlink:href="#SVGID_73_"  style="overflow:visible;"/>
		</clipPath>
		<path class="st23" d="M250.6,71.7c0.1-0.5,0-0.5-0.4-0.2c0.2,0,0.4,0.1,0.5,0.1c0.9,0.3,1.8-0.5,1.8-1.4c0-1.1,1.9-2.9,2.4-1.4
			c0.4,1.1-2.8,1.1-3.6,1.4c-1.7,0.6-1,3.4,0.8,2.8c1.4-0.5,3-0.4,4.4-1.2c1.7-1.1,1.7-3.3,0.7-4.8c-2.3-3.7-7.6-0.2-7.5,3.3
			c0.6-0.5,1.2-0.9,1.8-1.4c-2.1-0.7-3.8,0.5-3.7,2.8C247.8,73.5,250.6,73.5,250.6,71.7"/>
	</g>
	<g>
		<defs>
			<rect id="SVGID_75_" y="0" width="279.1" height="277.2"/>
		</defs>
		<clipPath id="SVGID_76_">
			<use xlink:href="#SVGID_75_"  style="overflow:visible;"/>
		</clipPath>
		<path class="st24" d="M241.4,68.9c0.7-2.5,5.6-0.6,6.8,0.6c1.3,1.3,3.3-0.7,2-2c-2.8-2.8-10.2-4.4-11.5,0.6
			C238.1,70,240.9,70.7,241.4,68.9"/>
	</g>
	<g>
		<defs>
			<rect id="SVGID_77_" y="0" width="279.1" height="277.2"/>
		</defs>
		<clipPath id="SVGID_78_">
			<use xlink:href="#SVGID_77_"  style="overflow:visible;"/>
		</clipPath>
		<path class="st25" d="M155.6,104.5c-3.6-2-1-4.1,1.6-5.4c1.8-0.9,3.9-0.8,5.6-1.7c1.3-0.7,2.5-2.3,1.9-3.9
			c-0.7-1.9-2.2-2.7-4.1-2.9c-1.8-0.2-1.8,2.7,0,2.9c0.9,1.1,0.9,1.6-0.1,1.7c-0.4,0.1-0.8,0.2-1.3,0.3c-0.9,0.2-1.7,0.4-2.5,0.7
			c-1.7,0.7-3.1,1.6-4.4,2.9c-3,2.9-1.4,6.2,1.8,8C155.8,107.8,157.2,105.4,155.6,104.5"/>
	</g>
	<g>
		<defs>
			<rect id="SVGID_79_" y="0" width="279.1" height="277.2"/>
		</defs>
		<clipPath id="SVGID_80_">
			<use xlink:href="#SVGID_79_"  style="overflow:visible;"/>
		</clipPath>
		<path class="st26" d="M107.8,109c-0.1,0.7-0.3,1.4-0.8,2c-1,1.2-1.3-2.6-1.2-2.7c0.3-1.3,1.8-2.3,2.9-3c1.3-0.8,2.7-1.5,4-2.1
			c3.4-1.5,9.5-3.6,10,2c0.1,1.8,3,1.8,2.9,0c-0.7-9.4-10.5-6.3-16.2-3.5c-3.1,1.5-7.3,4.5-6.4,8.5c1.3,5.3,6.7,4.8,7.7-0.3
			C110.9,108,108.2,107.2,107.8,109"/>
	</g>
	<g>
		<defs>
			<rect id="SVGID_81_" y="0" width="279.1" height="277.2"/>
		</defs>
		<clipPath id="SVGID_82_">
			<use xlink:href="#SVGID_81_"  style="overflow:visible;"/>
		</clipPath>
		<path class="st27" d="M178.6,163.8c7.5-9.6,3.3-24.9,3.1-36.8c-0.1-6.2-0.7-12.4-1-18.6c-0.3-6.5,0.2-13,0.7-19.5
			c0.5-7.6,0.7-15.2,0.7-22.8c0-7.3,0-14.9-0.9-22.2c-0.4-2.9-1-5.9-0.4-8.9c0.6-2.8,4.2-4.9,6-6.9c3.6-4,4.8-9.4,10.1-11.8
			c1.7-0.8,0.2-3.2-1.4-2.5c-4.8,2.2-6.8,6.6-9.5,10.8c-1.5,2.3-3.6,3.9-5.6,5.7c-1.9,1.8-2.5,4.2-2.6,6.7c-0.1,2.8,0.5,5.6,0.8,8.3
			c0.4,3.9,0.5,8,0.6,11.9c0.2,8,0.2,16-0.2,24c-0.3,7-1.1,13.9-1.2,20.9c-0.1,6.2,0.5,12.4,0.8,18.5c0.7,13-0.3,20.2-0.6,35.5
			c0,1.8-0.9,11.1,0.2,9.7"/>
	</g>
	<g>
		<defs>
			<rect id="SVGID_83_" y="0" width="279.1" height="277.2"/>
		</defs>
		<clipPath id="SVGID_84_">
			<use xlink:href="#SVGID_83_"  style="overflow:visible;"/>
		</clipPath>
		<path class="st28" d="M190.6,163.6c-2.8-8.6,1.7-15,0.9-19.2c-1.2-6.7-0.1-13-0.5-19.9c-0.3-6.8,0.7-13.5-0.2-20.2
			c-0.9-6.7-1.2-13.4-1.2-20.2c0.1-12.6,1-25-1-37.5c-1.1-6.5-2.3-14.2,0.6-20.5c1.9-4.1,6.7-5.7,8.6-10c0.7-1.7-1.7-3.1-2.5-1.4
			c-1.8,4.2-6.3,6-8.6,10c-2.9,5.3-2.3,12.6-1.6,18.3c0.8,6.4,1.9,12.6,2,19.1c0.1,7-0.3,13.9-0.4,20.9c-0.1,6.5,0,13,0.9,19.5
			c1,7.4,0.2,14.6,0.5,22c0.2,6.4-3.6,12.9-2.5,19.2c1.1,7-5.5,14.8-3.3,21.5c0.6,1.7,8.2-1.4,7.6-3.2"/>
	</g>
	<g>
		<defs>
			<rect id="SVGID_85_" y="0" width="279.1" height="277.2"/>
		</defs>
		<clipPath id="SVGID_86_">
			<use xlink:href="#SVGID_85_"  style="overflow:visible;"/>
		</clipPath>
		<path class="st29" d="M136,74.3c2.6,3.4-0.5,5.3-3.8,3.5c-2.9-1.6-4.1-3.8-7.9-3.4c-0.8,5.3,15.6,1.6,14.5,6.2
			c-2.6,0.1-5.3,0.1-8,0c-3.2-0.1-5.3-1.5-8.3-2c-2.8-0.5-5.3,1.3-1.8,2.4c2,0.6,9.3-0.9,9.2,1.9c0,1-2.7,1.3-2.8,2.5
			c-0.2,1.7,1.8,1.7,3.1,1.9c1.8,0.3,6.9-0.1,3.1-2.3c-2.7-1.5-5.9,0.3-7.9,1.1c-4.2,1.8-5.5-0.5-9-0.9c-3.2-0.3-4.1,2.8-6.9,3.4
			c-2,0.5-4.6-0.5-6.1,1.6c-1.4,2-0.2,4.2,2.4,4.4c1.3,0.1,2.2-0.9,3.4-0.9c1.9,0,1.7,0.8,3.1,1.2c2.7,0.9,4,0.3,6.1-0.7
			c2-1,3.5-2.1,5.8-1.9c1.2,0.1,2.6,1.5,4,0.9c4.4-2.1-3.1-2.3-3.7-2.6c-3.4-1.7,0.4-3.6,1.7-4.9"/>
	</g>
	<g>
		<defs>
			<rect id="SVGID_87_" y="0" width="279.1" height="277.2"/>
		</defs>
		<clipPath id="SVGID_88_">
			<use xlink:href="#SVGID_87_"  style="overflow:visible;"/>
		</clipPath>
		<path class="st30" d="M136,74.3c2.6,3.4-0.5,5.3-3.8,3.5c-2.9-1.6-4.1-3.8-7.9-3.4c-0.8,5.3,15.6,1.6,14.5,6.2
			c-2.6,0.1-5.3,0.1-8,0c-3.2-0.1-5.3-1.5-8.3-2c-2.8-0.5-5.3,1.3-1.8,2.4c2,0.6,9.3-0.9,9.2,1.9c0,1-2.7,1.3-2.8,2.5
			c-0.2,1.7,1.8,1.7,3.1,1.9c1.8,0.3,6.9-0.1,3.1-2.3c-2.7-1.5-5.9,0.3-7.9,1.1c-4.2,1.8-5.5-0.5-9-0.9c-3.2-0.3-4.1,2.8-6.9,3.4
			c-2,0.5-4.6-0.5-6.1,1.6c-1.4,2-0.2,4.2,2.4,4.4c1.3,0.1,2.2-0.9,3.4-0.9c1.9,0,1.7,0.8,3.1,1.2c2.7,0.9,4,0.3,6.1-0.7
			c2-1,3.5-2.1,5.8-1.9c1.2,0.1,2.6,1.5,4,0.9c4.4-2.1-3.1-2.3-3.7-2.6c-3.4-1.7,0.4-3.6,1.7-4.9"/>
	</g>
	<g>
		<defs>
			<rect id="SVGID_89_" y="0" width="279.1" height="277.2"/>
		</defs>
		<clipPath id="SVGID_90_">
			<use xlink:href="#SVGID_89_"  style="overflow:visible;"/>
		</clipPath>
		<path class="st31" d="M234.6,119.4c-1.6,1.1-6.7,0.8-7.5,2.5c-0.7,1.5,0.7,1.5,1,2.7c0.1,0.4-1.3,0.9-0.9,1.6
			c0.9,1.4,6.1,1.6,7.2,0.9c2.1-1.3,0.4-2.4,1.4-4.2c1.1-2.1,3.4-1.5,5.7-1.4c0.8,2.6-2.2,2.1-2.3,3.7c-0.2,3.1,4.3,0,5-0.2
			c7.1-1.6,2.3,5-0.4,6.4c-2.1,1.1-3.5-0.5-5.4,0.4c-2.9,1.4-1.3,2.8,1.1,3.4c1.5,0.3,7.3-0.3,4.6,2.9c-1.4,1.7-5.7,0.3-7.7,0.3
			c-0.5,4.2,14.7,2.3,16.9,0.8c1.2-0.8,2.3-3.1,3.6-3.7c1.5-0.6,3,0.5,4.3,0.5c2.4,0,11-0.7,9.9-4.2c-1.8-0.1-12.5,1.9-11.4-1.5
			c1-2.9,8.7-2.3,11-2.3c1.3,0,6.3,0.8,7.5,0c3.4-2.1-4.8-4-6.2-4.3c-2.8-0.7-5.8-1.3-8.6-0.2c-1.8,0.7-3,2.6-5.1,2.2
			c-2.1-8.6,14.7-5,18.6-7.7c-2-1.9-9-2.6-11.6-1.6c-2.3,0.9-4.1,3.2-7,2.4c-3.9-1-1.4-3.4,1.5-3.7c1.8-0.2,4.7,0.6,4.2-2.2
			c-2.4-0.1-4.9,0-7.4-0.1c0.6-1.8,2.8-0.8,3.1-2.8c0.4-2.3-2.3-3.4-4.2-2.8c-1.7,0.6-3.9,5.3-6.3,3.6c-2.1-1.5,0.6-2.9,0.2-4.2
			c-0.6-1.7-3.6-1.6-5-0.4c-2.1,1.8,2.4,8.6-2.7,7.2c-1.4-0.4-2.2-2.9-3.7-2.8c-3,0.3-0.1,2.6-0.1,3.5
			C238,115.9,236,118.5,234.6,119.4"/>
	</g>
	<g>
		<defs>
			<rect id="SVGID_91_" y="0" width="279.1" height="277.2"/>
		</defs>
		<clipPath id="SVGID_92_">
			<use xlink:href="#SVGID_91_"  style="overflow:visible;"/>
		</clipPath>
		<path class="st32" d="M234.6,119.4c-1.6,1.1-6.7,0.8-7.5,2.5c-0.7,1.5,0.7,1.5,1,2.7c0.1,0.4-1.3,0.9-0.9,1.6
			c0.9,1.4,6.1,1.6,7.2,0.9c2.1-1.3,0.4-2.4,1.4-4.2c1.1-2.1,3.4-1.5,5.7-1.4c0.8,2.6-2.2,2.1-2.3,3.7c-0.2,3.1,4.3,0,5-0.2
			c7.1-1.6,2.3,5-0.4,6.4c-2.1,1.1-3.5-0.5-5.4,0.4c-2.9,1.4-1.3,2.8,1.1,3.4c1.5,0.3,7.3-0.3,4.6,2.9c-1.4,1.7-5.7,0.3-7.7,0.3
			c-0.5,4.2,14.7,2.3,16.9,0.8c1.2-0.8,2.3-3.1,3.6-3.7c1.5-0.6,3,0.5,4.3,0.5c2.4,0,11-0.7,9.9-4.2c-1.8-0.1-12.5,1.9-11.4-1.5
			c1-2.9,8.7-2.3,11-2.3c1.3,0,6.3,0.8,7.5,0c3.4-2.1-4.8-4-6.2-4.3c-2.8-0.7-5.8-1.3-8.6-0.2c-1.8,0.7-3,2.6-5.1,2.2
			c-2.1-8.6,14.7-5,18.6-7.7c-2-1.9-9-2.6-11.6-1.6c-2.3,0.9-4.1,3.2-7,2.4c-3.9-1-1.4-3.4,1.5-3.7c1.8-0.2,4.7,0.6,4.2-2.2
			c-2.4-0.1-4.9,0-7.4-0.1c0.6-1.8,2.8-0.8,3.1-2.8c0.4-2.3-2.3-3.4-4.2-2.8c-1.7,0.6-3.9,5.3-6.3,3.6c-2.1-1.5,0.6-2.9,0.2-4.2
			c-0.6-1.7-3.6-1.6-5-0.4c-2.1,1.8,2.4,8.6-2.7,7.2c-1.4-0.4-2.2-2.9-3.7-2.8c-3,0.3-0.1,2.6-0.1,3.5
			C238,115.9,236,118.5,234.6,119.4"/>
	</g>
	<g>
		<defs>
			<rect id="SVGID_93_" y="0" width="279.1" height="277.2"/>
		</defs>
		<clipPath id="SVGID_94_">
			<use xlink:href="#SVGID_93_"  style="overflow:visible;"/>
		</clipPath>
		<path class="st33" d="M149.2,94.3l-0.6,0.6c2.2-0.5,2.2,2,0.9,2.9c-1.8,1.3-7.7-1.2-7.7,2.8c2.2-0.5,3.7-1.7,6.1-1.4
			c1.6,0.2,5.4,1.2,3.3,3.3c-1.4,1.5-7.1-0.1-6.2,4.1c2.9,0.2,4.5,0.4,7.1,1.8c1.1,0.5,7.2,3.2,3.5,4.6c-1.4,4.8,10.3,0.6,12.8,2.9
			c2,1.8-0.9,5.4-3.4,4.7c-1.2-0.3-1.3-1.7-2.3-2.2c-1.3-0.6-3.6-0.6-4.8,0c-0.1,0.5,0.1,1.7,0.3,2.2c2.3,0.1,6.3,2.8,4.7,5.2
			c-1.3,1.9-4.3,0.3-6.5-0.1c0-4.4-0.7-6.1-5.3-5.6c-0.5,2.1,4.6,5.9-0.7,5.7c-2.5-0.1-2.4-1.7-3.1-3.4c-0.9-2.2-0.1-2.6-2.8-4.2
			c-2.8-1.7-9.6-1.7-6.4,2.3c2,2.4,8.4,4.1,8.3,7.6c-3.8,0.1-12-1.9-14.7-4.6s-0.1-6.2-5.2-5.7c-2.6,0.3-3.7,2.2-6.3,2.6
			c-1.9,0.3-5.9-0.6-4.8-3.5c0.9-2.5,6.6-1.3,8.4-1.4c1.7-0.2,5.3-1,5.6-3.4c0.5-4-8.9,0.1-11.5-1.3c1.7-2.8,5.7-4.4,8.9-4.7
			c2.9-0.3,4.3,0.4,3.3-2.6c-0.5-1.4-2-1-1-3.1c0.7-1.5,1.9-1.7,3.6-1.4c2.2,0.4,3.2,2.8,5.6,2.2c1-3.7-6.7-3.3-1.3-6.5
			C141,92.1,145.2,95.8,149.2,94.3"/>
	</g>
	<g>
		<defs>
			<rect id="SVGID_95_" y="0" width="279.1" height="277.2"/>
		</defs>
		<clipPath id="SVGID_96_">
			<use xlink:href="#SVGID_95_"  style="overflow:visible;"/>
		</clipPath>
		<path class="st34" d="M149.2,94.3c-4,1.5-8.2-2.2-12.3,0.3c-5.4,3.2,2.3,2.8,1.3,6.5c-2.4,0.6-3.4-1.8-5.6-2.2
			c-1.7-0.3-2.9-0.1-3.6,1.4c-1,2.2,0.5,1.7,1,3.1c0.9,3-0.5,2.3-3.3,2.6c-3.2,0.3-7.2,1.9-8.9,4.7c2.6,1.3,11.9-2.8,11.5,1.3
			c-0.3,2.4-3.9,3.3-5.6,3.4c-1.8,0.2-7.4-1.1-8.4,1.4c-1.1,2.9,2.9,3.8,4.8,3.5c2.6-0.4,3.7-2.3,6.3-2.6c5.1-0.6,2.6,3,5.2,5.7
			c2.7,2.7,11,4.7,14.7,4.6c0.1-3.5-6.3-5.2-8.3-7.6c-3.2-3.9,3.6-4,6.4-2.3c2.7,1.7,1.9,2,2.8,4.2c0.7,1.7,0.5,3.3,3.1,3.4
			c5.3,0.2,0.2-3.6,0.7-5.7c4.6-0.5,5.4,1.2,5.3,5.6c2.1,0.4,5.2,2,6.5,0.1c1.6-2.3-2.4-5.1-4.7-5.2c-0.2-0.5-0.4-1.7-0.3-2.2
			c1.2-0.5,3.5-0.6,4.8,0c1,0.5,1.1,1.9,2.3,2.2c2.6,0.6,5.4-2.9,3.4-4.7c-2.5-2.3-14.2,1.9-12.8-2.9c3.8-1.4-2.4-4.1-3.5-4.6
			c-2.7-1.4-4.2-1.6-7.1-1.8c-0.9-4.2,4.7-2.6,6.2-4.1c2.1-2.1-1.7-3-3.3-3.3c-2.3-0.3-3.9,0.9-6.1,1.4c0-4,5.9-1.6,7.7-2.8
			c1.4-0.9,1.3-3.3-0.9-2.9L149.2,94.3z"/>
	</g>
	<g>
		<defs>
			<rect id="SVGID_97_" y="0" width="279.1" height="277.2"/>
		</defs>
		<clipPath id="SVGID_98_">
			<use xlink:href="#SVGID_97_"  style="overflow:visible;"/>
		</clipPath>
		<path class="st35" d="M242.9,91.4c3.3,0.2,3.8-5.3,8.2-4.2c0.4,2-7,6,0.2,4.7c2-0.4,14.7-3.9,10.1,0.8c-0.6,0.6-3.8,0.6-1.6,1.9
			c1.3,0.7,3.5-0.5,4.3-0.6c1.5-0.1,4.8-0.3,3.5,2.1c-0.9,1.5-2.9,0.1-3.8,1.7c2,0.8,4-0.5,6.2-0.6c4.6-0.2,8.3,3.5,3.3,6.3
			c-2.9,1.6-7.3,1.7-10.1-0.1c-2.4-1.5-3.6-5-5.9-6.2c-1.5-0.7-3.6,0.4-4.8-0.1c-2.1-0.9-1.2-2.7-4.1-2.5c-2.1,0.1-8.6,2.5-5.4-2.8"
			/>
	</g>
	<g>
		<defs>
			<rect id="SVGID_99_" y="0" width="279.1" height="277.2"/>
		</defs>
		<clipPath id="SVGID_100_">
			<use xlink:href="#SVGID_99_"  style="overflow:visible;"/>
		</clipPath>
		<path class="st36" d="M242.9,91.4c3.3,0.2,3.8-5.3,8.2-4.2c0.4,2-7,6,0.2,4.7c2-0.4,14.7-3.9,10.1,0.8c-0.6,0.6-3.8,0.6-1.6,1.9
			c1.3,0.7,3.5-0.5,4.3-0.6c1.5-0.1,4.8-0.3,3.5,2.1c-0.9,1.5-2.9,0.1-3.8,1.7c2,0.8,4-0.5,6.2-0.6c4.6-0.2,8.3,3.5,3.3,6.3
			c-2.9,1.6-7.3,1.7-10.1-0.1c-2.4-1.5-3.6-5-5.9-6.2c-1.5-0.7-3.6,0.4-4.8-0.1c-2.1-0.9-1.2-2.7-4.1-2.5c-2.1,0.1-8.6,2.5-5.4-2.8"
			/>
	</g>
	<g>
		<defs>
			<rect id="SVGID_101_" y="0" width="279.1" height="277.2"/>
		</defs>
		<clipPath id="SVGID_102_">
			<use xlink:href="#SVGID_101_"  style="overflow:visible;"/>
		</clipPath>
		<path class="st37" d="M187.2,24.3c0,6.9-0.9,13.4-0.9,20c0,9.1,1.4,18.6,1.7,27.7c0.3,15.4,1.7,30.8,2.3,46.3
			c0.3,5.1-0.3,10.3-0.3,15.4c-0.3,10,6.8,88.2,7.6,97.4c-4,0.9-0.9-0.1-5.1,0.5c-3.7,0.3-19,1-22.4-0.7c1.4-8.3,10.2-88,11.1-96.6
			c0.6-7.1,0.6-14.3,0.6-21.4c0.3-9.7-0.9-20-0.9-29.7c0-4-2-7.4-2.3-11.4c-0.3-4.6,1.1-9.1,1.7-13.4C181.2,50,176.9,28,187.2,24.3"
			/>
	</g>
	<g>
		<defs>
			<rect id="SVGID_103_" y="0" width="279.1" height="277.2"/>
		</defs>
		<clipPath id="SVGID_104_">
			<use xlink:href="#SVGID_103_"  style="overflow:visible;"/>
		</clipPath>
		<path class="st38" d="M185.7,24.3c0,5.6-0.6,11.3-0.8,16.9c-0.2,5.7,0.2,11.3,0.7,17c1,12.1,1.2,24.3,2,36.4
			c0.7,12.4,1.4,24.5,1,36.9c-0.1,4.9,0.5,9.4,2,14c1.6,4.8-2.3,8.9-1.8,14c0.3-0.5-0.2-2.6,0.1-3.1c-3.5,0.6-0.1,1.9-3.6,1.8
			c-3.7-0.1-1.9-0.7-5.5-2.3c0.2,0.5,0.1,3.4,0.3,4c1.1-6.1,1.3-12,3.1-18c2-6.7-0.3-14.2-0.2-21.1c0.1-7.2,0.1-14.4-0.2-21.7
			c-0.2-3.6-0.4-7.1-0.5-10.7c-0.1-3.2,0-6.3-0.7-9.5s-1.8-6-1.7-9.3c0.1-3.7,1.1-7.3,1.7-10.9c0.5-3.4,0.1-7.1,0-10.5
			c-0.2-6.3-1.6-19.5,5.9-22.4c1.7-0.7,1-3.4-0.8-2.8c-7.5,3-8,12.4-8.1,19.3c-0.1,4.3,0.3,8.6,0.3,12.9c0,5.9-2.4,11.6-1.7,17.6
			c0.3,3.2,1.8,6.2,2.1,9.4c0.4,3.4,0.2,7,0.3,10.5c0.3,7.5,0.6,14.9,0.6,22.5c0,7.8,0.4,16-1.4,23.6c-1.6,6.7-0.4,14.2-1.7,21
			c-0.1,0.6-0.7,17.7-0.1,18c3.3,1.5,2.7-16.3,6.3-16.6c4.4-0.4,2.8,15.6,7.2,14.9c0.6-0.1,1.2-14.2,1.1-14.8
			c-0.5-4.5,2.1-9.8,0.6-14c-1.8-4.8-0.9-9.5-0.9-14.6c0-5.9,0.4-11.8,0.1-17.7c-0.3-6.4-0.7-12.8-1.1-19.2
			c-0.7-12.2-0.9-24.3-1.9-36.5c-0.5-5.7-0.9-11.3-0.8-17c0.1-6,0.8-11.9,0.8-17.9C188.6,22.4,185.7,22.4,185.7,24.3"/>
	</g>
	<g>
		<defs>
			<rect id="SVGID_105_" y="0" width="279.1" height="277.2"/>
		</defs>
		<clipPath id="SVGID_106_">
			<use xlink:href="#SVGID_105_"  style="overflow:visible;"/>
		</clipPath>
		<path class="st39" d="M252.4,71.4c0.7-0.2,1.4-0.2,2.1,0l-1-1.8c-0.3,1.1-0.7,1.3-1.8,1.2c0.5,0.3,0.9,0.7,1.4,1
			c-1.3-3.1-4.1-4.5-7.4-4.2c-0.8,0.1-1.5,0.6-1.4,1.4c0.1,2.6,1.5,3.6,4,3.7c-0.1-0.9-0.3-1.9-0.4-2.8c-7,1.3,3.7,11.5,5.2,4
			c0.3-1.6-1.7-2.5-2.6-1.1c-0.9,1.4-0.9,2.9,0.6,3.9c1.1,0.8,4,0.5,4.6,1.5c0.2-0.6,0.3-1.3,0.5-2c-1.2,0.5-2.9-0.8-3.9-1.2
			c-1.4-0.6-2.8-0.8-4.3-0.4c-1.4,0.4-1.3,2.3,0,2.8c1.8,0.6,3.5,0.8,5.3,0.3c0.8-0.3,1.4-1.3,0.9-2.1c-0.4-0.5-0.8-0.9-1.1-1.4
			c-1.1-1.5-3.5-0.1-2.5,1.4c0.4,0.5,0.8,0.9,1.1,1.4c0.3-0.7,0.6-1.4,0.9-2.1c-1.3,0.4-2.5,0.2-3.8-0.3v2.8
			c1.7-0.5,3.2,0.6,4.7,1.3c1.5,0.6,2.8,0.7,4.2,0c0.7-0.3,0.9-1.3,0.5-2c-0.6-1-1.5-1.4-2.6-1.8c-0.6-0.2-1.2-0.3-1.8-0.4
			c-0.3-0.1-0.7-0.2-1-0.3c-0.3-0.1-0.1,0.5,0.3-0.1c-0.9-0.4-1.7-0.7-2.6-1.1c-0.1,0.5,0,0.5-0.2,0.5c-0.4-0.1-0.7-0.3-1-0.5
			s-0.5-0.5-0.7-0.8c0,0-0.6,0.4,0.2,0.2c1.6-0.3,1.2-2.7-0.4-2.8c-0.8,0-1.1,0-1.1-0.9l-1.4,1.4c1.8-0.2,3.8,0.2,4.6,2.1
			c0.3,0.6,0.7,1,1.4,1.1c2.3,0.2,4-1.1,4.5-3.3c0.2-0.8-0.2-1.5-1-1.8c-1.2-0.4-2.4-0.2-3.6,0C249.8,69,250.6,71.7,252.4,71.4"/>
	</g>
	<g>
		<defs>
			<rect id="SVGID_107_" y="0" width="279.1" height="277.2"/>
		</defs>
		<clipPath id="SVGID_108_">
			<use xlink:href="#SVGID_107_"  style="overflow:visible;"/>
		</clipPath>
		<path class="st40" d="M197.9,91.5L197.9,91.5c-0.5-0.4-1.1-0.8-1.8-1.2C196.8,90.7,197.4,91.1,197.9,91.5L197.9,91.5
			c-1.5-0.9-2.3-1.8-2.7-2.4c-1-0.3-1.3,0.3-0.6,1C195.3,90,196.4,90.4,197.9,91.5 M198.7,91L198.7,91c-0.1-1.8,0.2-3,0.6-3.6
			c-0.2-1-0.9-1-1.2,0c0.3,0.6,0.5,1.8,0.4,3.6l0,0c0.1-0.6,0.1-1.4,0.2-2.2C198.7,89.6,198.7,90.4,198.7,91 M198.3,91.1L198.3,91.1
			c0,0.1,0,0.2,0,0.3l0,0C198.4,91.3,198.3,91.2,198.3,91.1 M198,92.3c-0.6,0.3-1.3,0.6-2,0.9c0.7-0.4,1.3-0.7,1.9-1.1l0,0
			c-1.5,1-2.6,1.3-3.4,1.3c-0.8,0.7-0.4,1.3,0.5,1C195.4,93.8,196.3,93,198,92.3C197.9,92.3,198,92.3,198,92.3 M198.4,91.4
			L198.4,91.4c-0.1-0.1-0.1-0.1-0.2-0.2l0,0C198.2,91.2,198.3,91.3,198.4,91.4 M199.4,92.1C199.3,92.1,199.3,92.1,199.4,92.1
			c0.5,0.4,1.1,0.8,1.8,1.2C200.5,92.9,199.9,92.5,199.4,92.1L199.4,92.1c1.5,0.9,2.3,1.8,2.7,2.4c1,0.3,1.3-0.3,0.6-1
			C201.9,93.6,200.8,93.2,199.4,92.1 M198.7,92.6c-0.1,0.7-0.1,1.4-0.2,2.2c0-0.8,0-1.5,0-2.2l0,0c0.1,1.8-0.2,2.9-0.6,3.6
			c0.2,1,0.9,1,1.2,0C198.7,95.6,198.5,94.4,198.7,92.6L198.7,92.6 M198.9,92.5L198.9,92.5c0-0.1,0-0.2,0-0.3l0,0
			C198.9,92.3,198.9,92.4,198.9,92.5 M198.8,92.2L198.8,92.2c0.1,0.1,0.1,0.1,0.2,0.2l0,0C199,92.4,198.9,92.3,198.8,92.2
			 M198.9,91.1c0,0.1,0,0.2-0.1,0.3l0,0C198.9,91.3,198.9,91.2,198.9,91.1L198.9,91.1 M198.1,92.4L198.1,92.4c0.1,0,0.1-0.1,0.2-0.2
			l0,0C198.3,92.3,198.2,92.3,198.1,92.4 M197.8,91.9c0.1,0,0.2-0.1,0.3-0.1l0,0C198,91.8,197.9,91.8,197.8,91.9L197.8,91.9
			 M202.2,89.2c-0.4,0.6-1.3,1.4-2.9,2.1l0,0c0.6-0.3,1.3-0.6,2-0.9c-0.7,0.4-1.3,0.8-1.9,1.1l0,0c1.5-1,2.6-1.3,3.4-1.3
			C203.5,89.6,203.2,89,202.2,89.2 M198.3,92.5c0-0.1,0-0.2,0.1-0.3l0,0C198.3,92.3,198.3,92.4,198.3,92.5L198.3,92.5 M199.4,91.7
			c-0.1,0-0.2,0.1-0.3,0.1l0,0C199.2,91.8,199.3,91.8,199.4,91.7L199.4,91.7 M199.1,91.2L199.1,91.2c-0.1,0-0.1,0.1-0.2,0.2l0,0
			C198.9,91.3,199,91.3,199.1,91.2 M199.4,91.9L199.4,91.9c-0.1,0-0.1-0.1-0.2-0.1l0,0C199.2,91.9,199.3,91.9,199.4,91.9
			 M197.8,91.7L197.8,91.7c0.1,0,0.2,0.1,0.2,0.1l0,0C198,91.7,197.9,91.7,197.8,91.7"/>
	</g>
	<g>
		<defs>
			<rect id="SVGID_109_" y="0" width="279.1" height="277.2"/>
		</defs>
		<clipPath id="SVGID_110_">
			<use xlink:href="#SVGID_109_"  style="overflow:visible;"/>
		</clipPath>
		<path class="st41" d="M198.2,92.5L198.2,92.5c-0.4,0.5-0.9,1-1.4,1.7c0.5-0.6,0.9-1.2,1.2-1.8l0,0c-1,1.5-1.9,2.3-2.5,2.6
			c-0.4,0.9,0.1,1.3,0.9,0.7C196.5,94.9,197,93.9,198.2,92.5 M197.8,91.6L197.8,91.6c-1.8-0.1-2.9-0.5-3.5-0.9
			c-1,0.1-1.1,0.8-0.1,1.1C194.9,91.5,196,91.4,197.8,91.6L197.8,91.6c-0.6,0-1.4-0.2-2.1-0.2C196.5,91.5,197.2,91.6,197.8,91.6
			 M197.9,92C197.9,92,197.8,92,197.9,92c0.1,0,0.2,0,0.3,0l0,0C198,92,198,92,197.9,92 M199,92.5c0.2,0.6,0.5,1.3,0.8,2
			c-0.3-0.7-0.6-1.4-1-2l0,0c0.8,1.6,1,2.7,1,3.5c0.6,0.8,1.2,0.5,1.1-0.5C200.3,95.1,199.6,94.2,199,92.5L199,92.5 M198.1,92
			L198.1,92c-0.1,0.1-0.2,0.1-0.2,0.2l0,0C198,92.1,198.1,92.1,198.1,92 M199,91.1L199,91.1c0.4-0.5,0.9-1,1.4-1.7
			c-0.5,0.6-0.9,1.2-1.2,1.8l0,0c1-1.5,1.9-2.3,2.5-2.6c0.4-0.9-0.1-1.3-0.9-0.7C200.7,88.7,200.2,89.7,199,91.1 M199.4,91.8
			c0.6,0.1,1.4,0.3,2.1,0.4c-0.8-0.1-1.5-0.1-2.2-0.2l0,0c1.8,0.1,2.9,0.5,3.5,0.9c1-0.1,1.1-0.8,0.1-1.1
			C202.4,92,201.2,92.1,199.4,91.8L199.4,91.8 M199.3,91.6C199.3,91.6,199.4,91.6,199.3,91.6c-0.1,0-0.2,0-0.3,0l0,0
			C199.2,91.6,199.3,91.6,199.3,91.6 M199.1,91.6L199.1,91.6c0.1-0.1,0.1-0.1,0.2-0.2l0,0C199.2,91.5,199.1,91.5,199.1,91.6
			 M197.9,91.4c0.1,0,0.2,0,0.3,0.1l0,0C198.1,91.5,198,91.4,197.9,91.4L197.9,91.4 M199.2,92.3L199.2,92.3c0-0.1-0.1-0.1-0.1-0.2
			l0,0C199.1,92.2,199.1,92.3,199.2,92.3 M198.6,92.6c0-0.1,0-0.2-0.1-0.3l0,0C198.6,92.4,198.6,92.5,198.6,92.6L198.6,92.6
			 M196.3,88c0.6,0.4,1.3,1.4,1.8,3.1l0,0c-0.2-0.6-0.5-1.3-0.8-2c0.3,0.7,0.6,1.4,0.9,2l0,0c-0.8-1.6-1-2.7-1-3.5
			C196.8,86.7,196.2,87,196.3,88 M199.3,92.2c-0.1,0-0.2-0.1-0.3-0.1l0,0C199.1,92.1,199.2,92.2,199.3,92.2L199.3,92.2 M198.6,91
			c0,0.1,0,0.2,0.1,0.3l0,0C198.6,91.2,198.6,91.1,198.6,91L198.6,91 M198,91.3L198,91.3c0,0.1,0.1,0.1,0.1,0.2l0,0
			C198.2,91.4,198.1,91.3,198,91.3 M198.8,91.1L198.8,91.1c0,0.1-0.1,0.1-0.1,0.2l0,0C198.7,91.2,198.7,91.1,198.8,91.1 M198.4,92.5
			L198.4,92.5c0-0.1,0.1-0.1,0.1-0.2l0,0C198.5,92.4,198.5,92.5,198.4,92.5"/>
	</g>
	<g>
		<defs>
			<rect id="SVGID_111_" y="0" width="279.1" height="277.2"/>
		</defs>
		<clipPath id="SVGID_112_">
			<use xlink:href="#SVGID_111_"  style="overflow:visible;"/>
		</clipPath>
		<path class="st42" d="M144.2,44.2C141.7,44.8,142,45.4,144.2,44.2 M150.8,47.1C151.4,49.5,152.1,49.3,150.8,47.1 M153.7,40.4
			C156.2,39.8,155.9,39.2,153.7,40.4 M147.1,37.5C146.5,35,145.8,35.3,147.1,37.5 M151,37.6C152.3,35.4,151.7,35.1,151,37.6
			 M151,37.6c-0.4,0.7-1.1,1.6-2,2.8c-0.9-1.1-1.5-2.1-1.9-2.8c0.2,0.8,0.4,1.9,0.5,3.4c-1.4-0.2-2.5-0.4-3.4-0.6
			c0.7,0.4,1.6,1.1,2.8,2c-1.1,0.9-2.1,1.5-2.8,1.9c0.8-0.2,1.9-0.4,3.4-0.5c-0.2,1.4-0.4,2.5-0.6,3.4c0.4-0.7,1.1-1.6,2-2.8
			c0.9,1.1,1.5,2.1,1.9,2.8c-0.2-0.8-0.4-1.9-0.5-3.4c1.4,0.2,2.5,0.4,3.4,0.6c-0.7-0.4-1.6-1.1-2.8-2c1.1-0.9,2.1-1.5,2.8-1.9
			c-0.8,0.2-1.9,0.4-3.4,0.5C150.5,39.5,150.8,38.4,151,37.6 M146.9,47C145.6,49.1,146.2,49.4,146.9,47 M144.3,40.2
			C142.1,38.9,141.8,39.5,144.3,40.2 M153.7,44.3C155.8,45.6,156.1,45,153.7,44.3"/>
	</g>
	<g>
		<defs>
			<rect id="SVGID_113_" y="0" width="279.1" height="277.2"/>
		</defs>
		<clipPath id="SVGID_114_">
			<use xlink:href="#SVGID_113_"  style="overflow:visible;"/>
		</clipPath>
		<path class="st43" d="M145.2,45.7C143.1,47.2,143.5,47.7,145.2,45.7 M152.4,46.1C153.8,48.2,154.3,47.7,152.4,46.1 M152.8,38.8
			C154.8,37.4,154.4,36.9,152.8,38.8 M145.5,38.5C144.1,36.4,143.6,36.8,145.5,38.5 M149.2,37.1C149.7,34.7,149,34.6,149.2,37.1
			 M149.2,37.1c-0.1,0.8-0.4,1.9-0.9,3.3c-1.2-0.8-2.1-1.4-2.8-2c0.5,0.7,1.1,1.7,1.7,3c-1.4,0.3-2.5,0.5-3.4,0.6
			c0.8,0.2,1.9,0.4,3.3,0.9c-0.8,1.2-1.4,2.1-2,2.8c0.7-0.5,1.7-1.1,3-1.7c0.3,1.4,0.5,2.5,0.6,3.4c0.1-0.8,0.4-1.9,0.9-3.3
			c1.2,0.8,2.1,1.4,2.8,2c-0.5-0.7-1.1-1.7-1.7-3c1.4-0.3,2.5-0.5,3.4-0.6c-0.8-0.2-1.9-0.4-3.3-0.9c0.8-1.2,1.4-2.2,2-2.8
			c-0.7,0.5-1.7,1.1-3,1.7C149.5,39.1,149.3,38,149.2,37.1 M148.7,47.4C148.3,49.9,148.9,49.9,148.7,47.4 M143.8,42
			C141.3,41.6,141.3,42.2,143.8,42 M154.1,42.5C156.6,43,156.6,42.3,154.1,42.5"/>
	</g>
	<g>
		<defs>
			<rect id="SVGID_115_" y="0" width="279.1" height="277.2"/>
		</defs>
		<clipPath id="SVGID_116_">
			<use xlink:href="#SVGID_115_"  style="overflow:visible;"/>
		</clipPath>
		<path class="st44" d="M134,55.2L134,55.2c-0.8-0.1-1.7-0.2-2.7-0.2c1,0,1.9,0,2.8,0l0,0c-2.3,0.1-3.7-0.3-4.5-0.7
			c-1.3,0.3-1.3,1.1,0,1.5C130.3,55.3,131.8,55,134,55.2 M134.7,54.2C134.7,54.1,134.7,54.1,134.7,54.2c-1.2-1.9-1.6-3.4-1.6-4.3
			c-0.9-1-1.6-0.5-1.3,0.7c0.8,0.5,1.7,1.6,2.7,3.7l0,0c-0.3-0.8-0.7-1.6-1.2-2.5C133.8,52.7,134.2,53.5,134.7,54.2 M134.3,54.5
			L134.3,54.5c0,0.1,0.1,0.2,0.2,0.3l0,0C134.4,54.7,134.4,54.6,134.3,54.5 M134.6,56c-0.5,0.7-1,1.4-1.5,2.3c0.5-0.9,1-1.7,1.3-2.4
			l0,0c-1,2-2.1,3.1-2.9,3.5c-0.4,1.2,0.3,1.7,1.2,0.8C132.8,59.3,133.3,57.9,134.6,56L134.6,56 M134.5,54.8L134.5,54.8
			c-0.1,0-0.2-0.1-0.4-0.1l0,0C134.3,54.7,134.4,54.7,134.5,54.8 M136.1,55L136.1,55c0.8,0.1,1.7,0.2,2.7,0.2c-1,0-1.9,0-2.8,0l0,0
			c2.2-0.1,3.7,0.3,4.5,0.7c1.3-0.3,1.3-1.1,0-1.5C139.8,54.9,138.3,55.2,136.1,55 M135.6,55.9c0.3,0.8,0.7,1.6,1.2,2.5
			c-0.5-0.9-1-1.7-1.4-2.4l0,0c1.2,1.9,1.6,3.3,1.6,4.3c0.9,1,1.6,0.6,1.3-0.7C137.6,59.1,136.6,58,135.6,55.9
			C135.7,55.9,135.6,55.9,135.6,55.9 M135.8,55.7L135.8,55.7c0-0.1-0.1-0.2-0.2-0.3l0,0C135.7,55.5,135.7,55.6,135.8,55.7
			 M135.6,55.4L135.6,55.4c0.1,0,0.2,0.1,0.4,0.1l0,0C135.8,55.5,135.7,55.5,135.6,55.4 M135,54.1c0,0.1,0.1,0.2,0.1,0.3l0,0
			C135,54.3,135,54.2,135,54.1L135,54.1 M134.9,56.1L134.9,56.1c0-0.1,0.1-0.2,0.1-0.3l0,0C135,55.8,134.9,55.9,134.9,56.1
			 M134.3,55.7c0.1-0.1,0.2-0.2,0.2-0.3l0,0C134.4,55.5,134.3,55.6,134.3,55.7C134.2,55.7,134.3,55.7,134.3,55.7 M137.3,50
			c-0.1,0.9-0.5,2.3-1.9,4.2l0,0c0.5-0.7,1-1.4,1.6-2.3c-0.5,0.9-1,1.7-1.3,2.4l0,0c1-2,2.1-3.1,2.9-3.5
			C139,49.5,138.3,49.1,137.3,50 M135.2,56.1c0-0.1-0.1-0.2-0.1-0.3l0,0C135.1,55.9,135.1,56,135.2,56.1L135.2,56.1z M135.8,54.5
			c-0.1,0.1-0.2,0.2-0.2,0.3l0,0C135.7,54.7,135.8,54.6,135.8,54.5C135.9,54.5,135.9,54.5,135.8,54.5 M135.2,54.1L135.2,54.1
			c0,0.1-0.1,0.2-0.1,0.3l0,0C135.1,54.4,135.2,54.2,135.2,54.1 M136,54.8C136,54.7,136,54.7,136,54.8c-0.1,0-0.2,0-0.3,0l0,0
			C135.7,54.8,135.8,54.8,136,54.8 M134.1,55.4C134.1,55.4,134.1,55.5,134.1,55.4c0.1,0,0.2,0,0.3,0l0,0
			C134.4,55.4,134.3,55.4,134.1,55.4"/>
	</g>
	<g>
		<defs>
			<rect id="SVGID_117_" y="0" width="279.1" height="277.2"/>
		</defs>
		<clipPath id="SVGID_118_">
			<use xlink:href="#SVGID_117_"  style="overflow:visible;"/>
		</clipPath>
		<path class="st45" d="M134.1,54.7L134.1,54.7c-0.6-0.5-1.4-1-2.2-1.5c0.9,0.5,1.7,1,2.4,1.3l0,0c-2-1-3.1-2.1-3.5-2.9
			c-1.2-0.4-1.7,0.3-0.8,1.2C130.9,52.9,132.3,53.3,134.1,54.7 M135.2,54.1L135.2,54.1c-0.1-2.3,0.3-3.7,0.7-4.5
			c-0.3-1.3-1.1-1.3-1.5,0c0.4,0.8,0.7,2.3,0.5,4.5l0,0c0.1-0.8,0.2-1.7,0.2-2.7C135.1,52.4,135.2,53.3,135.2,54.1 M134.7,54.2
			L134.7,54.2c0,0.1,0,0.2,0,0.3l0,0C134.7,54.4,134.7,54.3,134.7,54.2 M134.2,55.7c-0.8,0.3-1.6,0.7-2.5,1.2c0.9-0.5,1.7-1,2.4-1.4
			l0,0c-1.9,1.2-3.3,1.6-4.3,1.6c-1,0.9-0.6,1.6,0.7,1.3C131,57.6,132.2,56.6,134.2,55.7L134.2,55.7 M134.7,54.5L134.7,54.5
			c-0.1-0.1-0.2-0.2-0.3-0.3l0,0C134.6,54.4,134.7,54.5,134.7,54.5 M136,55.5L136,55.5c0.6,0.5,1.4,1,2.2,1.5
			c-0.9-0.5-1.7-1-2.4-1.3l0,0c2,1,3.1,2.1,3.5,2.9c1.2,0.4,1.7-0.3,0.8-1.2C139.2,57.3,137.8,56.8,136,55.5 M135.1,56.1
			c-0.1,0.8-0.2,1.7-0.2,2.7c0-1,0-1.9,0-2.7l0,0c0.1,2.2-0.3,3.7-0.7,4.5c0.3,1.3,1.1,1.3,1.5,0C135.2,59.8,134.9,58.4,135.1,56.1
			C135.2,56.1,135.2,56.1,135.1,56.1 M135.4,56L135.4,56c0-0.1,0-0.2,0-0.3l0,0C135.4,55.8,135.4,55.9,135.4,56 M135.4,55.7
			L135.4,55.7c0.1,0.1,0.2,0.2,0.3,0.3l0,0C135.5,55.8,135.5,55.7,135.4,55.7 M135.5,54.2c0,0.1,0,0.2-0.1,0.3l0,0
			C135.4,54.4,135.4,54.3,135.5,54.2L135.5,54.2 M134.4,55.9L134.4,55.9c0.1,0,0.2-0.1,0.3-0.2l0,0
			C134.6,55.7,134.5,55.8,134.4,55.9 M134.1,55.2c0.1,0,0.2-0.1,0.3-0.1l0,0C134.3,55.1,134.2,55.2,134.1,55.2L134.1,55.2
			 M139.6,51.8c-0.5,0.8-1.6,1.7-3.7,2.7l0,0c0.8-0.3,1.6-0.7,2.5-1.2c-0.9,0.5-1.7,0.9-2.4,1.4l0,0c1.9-1.2,3.3-1.6,4.3-1.6
			C141.2,52.3,140.8,51.5,139.6,51.8 M134.7,56c0-0.1,0-0.2,0.1-0.3l0,0C134.7,55.8,134.7,55.9,134.7,56C134.6,56,134.6,56,134.7,56
			 M136,55c-0.1,0-0.2,0.1-0.3,0.1l0,0C135.8,55.1,135.9,55,136,55L136,55 M135.7,54.3L135.7,54.3c-0.1,0-0.2,0.1-0.3,0.2l0,0
			C135.5,54.5,135.6,54.4,135.7,54.3 M136,55.3L136,55.3c-0.1,0-0.2-0.1-0.3-0.1l0,0C135.8,55.2,135.9,55.2,136,55.3 M134.1,54.9
			L134.1,54.9c0.1,0,0.2,0.1,0.3,0.1l0,0C134.3,55,134.2,55,134.1,54.9"/>
	</g>
	<g>
		<defs>
			<rect id="SVGID_119_" y="0" width="279.1" height="277.2"/>
		</defs>
		<clipPath id="SVGID_120_">
			<use xlink:href="#SVGID_119_"  style="overflow:visible;"/>
		</clipPath>
		<path class="st46" d="M200.6,113.2C198.1,113.8,198.4,114.4,200.6,113.2 M207.2,116.1C207.8,118.6,208.5,118.3,207.2,116.1
			 M210.1,109.5C212.6,108.8,212.3,108.2,210.1,109.5 M203.5,106.6C202.9,104.1,202.2,104.4,203.5,106.6 M207.4,106.6
			C208.7,104.5,208.1,104.2,207.4,106.6 M207.4,106.6c-0.4,0.7-1.1,1.7-2,2.8c-0.9-1.1-1.5-2.1-1.9-2.8c0.2,0.8,0.4,1.9,0.5,3.4
			c-1.4-0.2-2.5-0.4-3.4-0.6c0.7,0.4,1.6,1.1,2.8,2c-1.1,0.9-2.1,1.5-2.8,1.9c0.8-0.2,1.9-0.4,3.4-0.5c-0.2,1.4-0.4,2.5-0.6,3.4
			c0.4-0.7,1.1-1.7,2-2.8c0.9,1.1,1.5,2.1,1.9,2.8c-0.2-0.8-0.4-1.9-0.5-3.4c1.4,0.2,2.5,0.4,3.4,0.6c-0.7-0.4-1.6-1.1-2.8-2
			c1.1-0.9,2.1-1.5,2.8-1.9c-0.8,0.2-1.9,0.4-3.4,0.5C206.9,108.5,207.2,107.4,207.4,106.6 M203.3,116
			C202,118.2,202.6,118.5,203.3,116 M200.6,109.3C198.5,108,198.2,108.6,200.6,109.3 M210.1,113.4
			C212.2,114.7,212.5,114.1,210.1,113.4"/>
	</g>
	<g>
		<defs>
			<rect id="SVGID_121_" y="0" width="279.1" height="277.2"/>
		</defs>
		<clipPath id="SVGID_122_">
			<use xlink:href="#SVGID_121_"  style="overflow:visible;"/>
		</clipPath>
		<path class="st47" d="M201.5,114.8C199.5,116.2,199.9,116.7,201.5,114.8 M208.8,115.1C210.2,117.2,210.7,116.8,208.8,115.1
			 M209.2,107.9C211.2,106.5,210.8,106,209.2,107.9 M201.9,107.5C200.5,105.5,200,105.9,201.9,107.5 M205.6,106.2
			C206.1,103.7,205.4,103.7,205.6,106.2 M205.6,106.2c-0.1,0.8-0.4,1.9-0.9,3.3c-1.2-0.8-2.2-1.4-2.8-2c0.5,0.7,1.1,1.7,1.7,3
			c-1.4,0.3-2.5,0.5-3.4,0.6c0.8,0.2,1.9,0.4,3.3,0.9c-0.8,1.2-1.4,2.2-2,2.8c0.7-0.5,1.7-1.1,3-1.7c0.3,1.4,0.5,2.5,0.6,3.4
			c0.1-0.8,0.4-1.9,0.9-3.3c1.2,0.8,2.1,1.4,2.8,2c-0.5-0.7-1.1-1.7-1.7-3c1.4-0.3,2.5-0.5,3.4-0.6c-0.8-0.2-1.9-0.4-3.3-0.9
			c0.8-1.2,1.4-2.1,2-2.8c-0.7,0.5-1.7,1.1-3,1.7C205.8,108.2,205.7,107,205.6,106.2 M205.1,116.5
			C204.6,118.9,205.3,119,205.1,116.5 M200.2,111.1C197.7,110.6,197.7,111.3,200.2,111.1 M210.5,111.6
			C213,112,213,111.4,210.5,111.6"/>
	</g>
	<g>
		<defs>
			<rect id="SVGID_123_" y="0" width="279.1" height="277.2"/>
		</defs>
		<clipPath id="SVGID_124_">
			<use xlink:href="#SVGID_123_"  style="overflow:visible;"/>
		</clipPath>
		<path class="st48" d="M172.6,36.2L172.6,36.2c-0.4-0.3-0.8-0.6-1.3-0.9c0.5,0.3,0.9,0.6,1.4,0.8l0,0c-1.1-0.6-1.8-1.2-2-1.6
			c-0.7-0.2-0.9,0.2-0.4,0.7C170.8,35.2,171.6,35.5,172.6,36.2 M173.2,35.9L173.2,35.9c0-1.3,0.2-2.1,0.4-2.6
			c-0.1-0.7-0.6-0.7-0.8,0c0.2,0.5,0.4,1.3,0.3,2.6l0,0c0.1-0.5,0.1-1,0.1-1.6C173.2,34.9,173.2,35.4,173.2,35.9 M172.9,36
			C172.9,35.9,172.9,35.9,172.9,36s0,0.1,0,0.2l0,0C173,36.1,172.9,36,172.9,36 M172.7,36.8c-0.4,0.2-0.9,0.4-1.4,0.7
			C171.8,37.2,172.2,37,172.7,36.8L172.7,36.8c-1.2,0.6-2,0.8-2.5,0.8c-0.5,0.5-0.3,0.9,0.4,0.7C170.8,37.9,171.5,37.3,172.7,36.8
			L172.7,36.8 M173,36.2L173,36.2c-0.1-0.1-0.1-0.1-0.2-0.1l0,0C172.9,36.1,172.9,36.1,173,36.2 M173.7,36.7L173.7,36.7
			c0.4,0.3,0.8,0.6,1.3,0.9c-0.5-0.3-0.9-0.6-1.4-0.8l0,0c1.1,0.6,1.7,1.2,2,1.6c0.7,0.2,0.9-0.2,0.4-0.7
			C175.5,37.7,174.7,37.5,173.7,36.7 M173.2,37c-0.1,0.5-0.1,1-0.1,1.6c0-0.6,0-1.1,0-1.6l0,0c0.1,1.3-0.2,2.1-0.4,2.6
			c0.1,0.7,0.6,0.7,0.8,0C173.2,39.2,173.1,38.3,173.2,37C173.2,37.1,173.2,37,173.2,37 M173.3,37L173.3,37c0-0.1,0-0.1,0-0.2l0,0
			C173.3,36.9,173.3,36.9,173.3,37 M173.3,36.8L173.3,36.8c0.1,0.1,0.1,0.1,0.1,0.1l0,0C173.4,36.9,173.4,36.8,173.3,36.8 M173.4,36
			c0,0.1,0,0.1,0,0.2l0,0C173.3,36.1,173.4,36,173.4,36L173.4,36 M172.8,36.9L172.8,36.9c0,0,0.1-0.1,0.2-0.1l0,0
			C172.9,36.8,172.8,36.9,172.8,36.9 M172.6,36.5c0.1,0,0.1,0,0.2-0.1l0,0C172.7,36.5,172.6,36.5,172.6,36.5L172.6,36.5 M175.7,34.6
			c-0.3,0.4-0.9,1-2.1,1.5l0,0c0.4-0.2,0.9-0.4,1.4-0.7c-0.5,0.3-0.9,0.5-1.3,0.8l0,0c1.1-0.7,1.9-0.9,2.4-0.9
			C176.6,34.9,176.4,34.4,175.7,34.6 M172.9,37c0-0.1,0-0.1,0-0.2l0,0C172.9,36.9,172.9,36.9,172.9,37L172.9,37 M173.7,36.4
			c-0.1,0-0.1,0-0.2,0.1l0,0C173.6,36.5,173.6,36.4,173.7,36.4L173.7,36.4 M173.5,36L173.5,36c0,0-0.1,0.1-0.2,0.1l0,0
			C173.4,36.1,173.4,36.1,173.5,36 M173.7,36.6L173.7,36.6c-0.1,0-0.1-0.1-0.2-0.1l0,0C173.6,36.5,173.6,36.5,173.7,36.6
			 M172.6,36.4L172.6,36.4c0,0,0.1,0.1,0.2,0.1l0,0C172.7,36.4,172.7,36.4,172.6,36.4"/>
	</g>
	<g>
		<defs>
			<rect id="SVGID_125_" y="0" width="279.1" height="277.2"/>
		</defs>
		<clipPath id="SVGID_126_">
			<use xlink:href="#SVGID_125_"  style="overflow:visible;"/>
		</clipPath>
		<path class="st49" d="M172.8,37L172.8,37c-0.3,0.3-0.6,0.7-1,1.2c0.3-0.5,0.6-0.9,0.9-1.3l0,0c-0.7,1.1-1.3,1.6-1.8,1.9
			c-0.3,0.7,0.1,1,0.7,0.5C171.7,38.7,172,38,172.8,37 M172.6,36.3L172.6,36.3c-1.3-0.1-2.1-0.3-2.5-0.6c-0.7,0.1-0.8,0.6-0.1,0.8
			c0.5-0.2,1.3-0.3,2.6,0l0,0c-0.5-0.1-1-0.2-1.5-0.3C171.6,36.3,172.1,36.3,172.6,36.3 M172.6,36.6L172.6,36.6c0,0,0.1,0,0.2,0l0,0
			C172.7,36.6,172.7,36.6,172.6,36.6 M173.4,37c0.1,0.4,0.3,0.9,0.6,1.5C173.8,38,173.5,37.5,173.4,37L173.4,37
			c0.5,1.2,0.7,2.1,0.6,2.6c0.4,0.6,0.9,0.4,0.8-0.3C174.4,38.9,173.9,38.2,173.4,37L173.4,37 M172.8,36.6L172.8,36.6
			c-0.1,0-0.1,0.1-0.2,0.1l0,0C172.7,36.7,172.8,36.7,172.8,36.6 M173.4,36L173.4,36c0.3-0.3,0.6-0.7,1-1.2
			c-0.3,0.5-0.6,0.9-0.9,1.3l0,0c0.7-1.1,1.3-1.6,1.8-1.9c0.3-0.7-0.1-1-0.7-0.5C174.6,34.2,174.3,35,173.4,36 M173.7,36.5
			c0.5,0.1,1,0.2,1.5,0.3c-0.6-0.1-1.1-0.1-1.6-0.1l0,0c1.3,0.1,2.1,0.3,2.5,0.6c0.7-0.1,0.8-0.6,0.1-0.8
			C175.8,36.6,175,36.7,173.7,36.5L173.7,36.5 M173.7,36.3L173.7,36.3c-0.1,0-0.1,0-0.2,0l0,0C173.5,36.3,173.6,36.3,173.7,36.3
			 M173.5,36.3L173.5,36.3c0.1,0,0.1-0.1,0.2-0.1l0,0C173.6,36.2,173.5,36.3,173.5,36.3 M172.7,36.2c0.1,0,0.1,0,0.2,0.1l0,0
			C172.8,36.2,172.7,36.2,172.7,36.2C172.6,36.2,172.7,36.2,172.7,36.2 M173.5,36.9L173.5,36.9c0,0-0.1-0.1-0.1-0.2l0,0
			C173.5,36.7,173.5,36.8,173.5,36.9 M173.1,37c0-0.1,0-0.1,0-0.2l0,0C173.1,36.9,173.1,37,173.1,37L173.1,37 M171.5,33.7
			c0.4,0.3,0.9,1,1.3,2.2l0,0c-0.1-0.5-0.3-0.9-0.6-1.5c0.2,0.5,0.5,1,0.7,1.4l0,0c-0.6-1.1-0.7-2-0.7-2.5
			C171.8,32.8,171.4,33,171.5,33.7 M173.6,36.7c-0.1,0-0.1,0-0.2-0.1l0,0C173.5,36.7,173.6,36.7,173.6,36.7L173.6,36.7 M173.1,35.9
			c0,0.1,0,0.1,0.1,0.2l0,0C173.2,36,173.1,36,173.1,35.9L173.1,35.9 M172.7,36.1L172.7,36.1c0,0,0.1,0.1,0.1,0.2l0,0
			C172.8,36.2,172.8,36.1,172.7,36.1 M173.3,35.9L173.3,35.9c0,0-0.1,0.1-0.1,0.2l0,0C173.2,36.1,173.2,36,173.3,35.9 M173,37
			L173,37c0,0,0.1-0.1,0.1-0.2l0,0C173.1,36.9,173,36.9,173,37"/>
	</g>
	<g>
		<defs>
			<rect id="SVGID_127_" y="0" width="279.1" height="277.2"/>
		</defs>
		<clipPath id="SVGID_128_">
			<use xlink:href="#SVGID_127_"  style="overflow:visible;"/>
		</clipPath>
		<path class="st50" d="M171.8,23.7c-0.4-0.2-0.7-0.4-1.1-0.6c0.3-0.1,0.6-0.2,0.9-0.3c0.3-0.1,0.1-0.5-0.2-0.4
			c-0.4,0.1-0.8,0.3-1.2,0.4c-0.3-0.2-0.7-0.4-1-0.6l1.1-0.7c0.2-0.1,0-0.5-0.2-0.4c-0.4,0.3-0.9,0.5-1.3,0.8
			c-0.6-0.4-1.2-0.7-1.8-1.1l0,0c0,0-0.1,0-0.1-0.1l0,0c0,0,0,0,0.1,0c0.6-0.4,1.3-0.7,1.9-1.1l1.3,0.8c0.2,0.1,0.5-0.2,0.2-0.4
			c-0.4-0.2-0.8-0.4-1.1-0.7c0.3-0.2,0.7-0.4,1-0.6l1.2,0.4c0.3,0.1,0.4-0.3,0.1-0.4c-0.3-0.1-0.6-0.2-0.9-0.3
			c0.3-0.2,0.6-0.4,1-0.6c0,0,0,0,0.1,0c0.2-0.1,0.1-0.5-0.2-0.4c-0.4,0.2-0.7,0.4-1.1,0.6c0.1-0.3,0.1-0.6,0.2-0.9
			c0.1-0.3-0.4-0.3-0.4,0l-0.2,1.2c-0.3,0.2-0.7,0.4-1,0.6c0-0.4,0-0.9,0-1.3c0-0.3-0.4-0.3-0.4,0c0,0.5,0,1,0,1.6
			c-0.6,0.4-1.3,0.8-2,1.1V18c0.4-0.3,0.9-0.5,1.3-0.7c0.2-0.1,0.1-0.5-0.2-0.4c-0.4,0.2-0.8,0.4-1.2,0.6v-1.2
			c0.3-0.3,0.6-0.6,1-0.8c0.2-0.2-0.1-0.5-0.3-0.3s-0.5,0.4-0.7,0.6v-1.2c0-0.3-0.4-0.3-0.4,0V16l-0.7-0.6c-0.2-0.2-0.4,0.2-0.2,0.4
			c0.3,0.3,0.6,0.5,0.9,0.8v1.2c-0.4-0.2-0.8-0.4-1.1-0.6c-0.2-0.1-0.5,0.2-0.2,0.3c0.5,0.3,0.9,0.5,1.4,0.8v2.3
			c-0.7-0.4-1.3-0.8-2-1.1c0-0.5,0-1,0-1.5c0-0.3-0.4-0.3-0.4,0c0,0.4,0,0.9,0,1.3l-1-0.6c-0.1-0.4-0.2-0.8-0.2-1.2
			c-0.1-0.3-0.5-0.2-0.4,0.1l0.2,0.9c-0.3-0.2-0.6-0.4-1-0.6c0,0,0,0-0.1,0c-0.2-0.1-0.5,0.2-0.2,0.3c0.4,0.2,0.7,0.4,1.1,0.6
			c-0.3,0.1-0.6,0.2-0.9,0.3c-0.3,0.1-0.1,0.5,0.2,0.4c0.4-0.1,0.8-0.3,1.2-0.4c0.3,0.2,0.7,0.4,1,0.6c-0.4,0.2-0.7,0.4-1.1,0.7
			c-0.2,0.1-0.1,0.5,0.2,0.4c0.4-0.3,0.9-0.5,1.3-0.8l1.8,1.1l0,0c0,0,0.1,0,0.1,0.1l0,0c0,0,0,0-0.1,0c-0.6,0.4-1.3,0.7-1.9,1.1
			c-0.4-0.3-0.9-0.5-1.3-0.8c-0.2-0.1-0.5,0.2-0.2,0.3c0.4,0.2,0.8,0.5,1.1,0.7c-0.3,0.2-0.7,0.4-1,0.6l-1.2-0.4
			c-0.3-0.1-0.4,0.3-0.1,0.4l0.9,0.3c-0.3,0.2-0.6,0.4-1,0.6c0,0,0,0-0.1,0c-0.2,0.1-0.1,0.5,0.2,0.4c0.4-0.2,0.7-0.4,1.1-0.6
			c-0.1,0.3-0.1,0.6-0.2,0.9c-0.1,0.3,0.4,0.3,0.4,0l0.2-1.2c0.3-0.2,0.7-0.4,1-0.6c0,0.4,0,0.9,0,1.3c0,0.3,0.4,0.3,0.4,0
			c0-0.5,0-1,0-1.6c0.6-0.4,1.3-0.8,2-1.1v2.3c-0.4,0.3-0.9,0.5-1.3,0.7c-0.2,0.1-0.1,0.5,0.2,0.4c0.4-0.2,0.8-0.4,1.2-0.6v1.2
			c-0.3,0.3-0.6,0.6-1,0.8c-0.2,0.2,0.1,0.5,0.3,0.3s0.5-0.4,0.7-0.6v1.2c0,0.3,0.4,0.3,0.4,0V26c0.2,0.2,0.5,0.4,0.7,0.6
			s0.4-0.2,0.2-0.3c-0.3-0.3-0.6-0.5-0.9-0.8V24c0.4,0.2,0.8,0.4,1.1,0.6c0.2,0.1,0.5-0.2,0.2-0.3c-0.5-0.3-0.9-0.5-1.4-0.8v-2.3
			c0.6,0.4,1.3,0.8,2,1.1c0,0.5,0,1,0,1.5c0,0.3,0.4,0.3,0.4,0c0-0.4,0-0.9,0-1.3l1,0.6c0.1,0.4,0.2,0.8,0.2,1.2
			c0.1,0.3,0.5,0.2,0.4-0.1c-0.1-0.3-0.1-0.6-0.2-0.9l1,0.6c0,0,0,0,0.1,0C171.8,24.2,172,23.9,171.8,23.7"/>
	</g>
	<g>
		<defs>
			<rect id="SVGID_129_" y="0" width="279.1" height="277.2"/>
		</defs>
		<clipPath id="SVGID_130_">
			<use xlink:href="#SVGID_129_"  style="overflow:visible;"/>
		</clipPath>
		<path class="st51" d="M168.7,51.1l-0.7-0.4c0.2-0.1,0.4-0.1,0.6-0.2c0.2-0.1,0.1-0.3-0.1-0.3c-0.3,0.1-0.5,0.2-0.8,0.3
			c-0.2-0.1-0.4-0.3-0.7-0.4l0.7-0.4c0.2-0.1,0-0.3-0.1-0.3c-0.3,0.2-0.6,0.4-0.9,0.5c-0.4-0.2-0.8-0.5-1.2-0.7c0,0,0,0-0.1,0l0,0
			l0,0c0.4-0.2,0.8-0.5,1.2-0.7c0.3,0.2,0.6,0.3,0.9,0.5c0.2,0.1,0.3-0.1,0.2-0.2c-0.2-0.1-0.5-0.3-0.8-0.4c0.2-0.1,0.4-0.3,0.7-0.4
			c0.3,0.1,0.5,0.2,0.8,0.3c0.2,0.1,0.3-0.2,0.1-0.3s-0.4-0.1-0.6-0.2c0.2-0.1,0.4-0.2,0.6-0.4l0,0c0.2-0.1,0-0.3-0.1-0.3
			c-0.2,0.1-0.5,0.3-0.7,0.4c0-0.2,0.1-0.4,0.1-0.6c0-0.2-0.2-0.2-0.3,0c-0.1,0.3-0.1,0.5-0.2,0.8l-0.7,0.4c0-0.3,0-0.6,0-0.8
			s-0.3-0.2-0.3,0c0,0.3,0,0.7,0,1c-0.4,0.2-0.9,0.5-1.3,0.7v-1.5c0.3-0.2,0.6-0.3,0.9-0.5c0.2-0.1,0-0.3-0.1-0.3
			c-0.3,0.1-0.5,0.3-0.8,0.4v-0.8c0.2-0.2,0.4-0.4,0.6-0.5c0.1-0.1,0-0.3-0.2-0.2s-0.3,0.3-0.5,0.4v-0.8c0-0.2-0.3-0.2-0.3,0V46
			c-0.1-0.1-0.3-0.3-0.5-0.4c-0.1-0.1-0.3,0.1-0.2,0.2c0.2,0.2,0.4,0.4,0.6,0.5v0.8c-0.2-0.1-0.5-0.3-0.7-0.4
			c-0.2-0.1-0.3,0.1-0.2,0.2c0.3,0.2,0.6,0.3,0.9,0.5V49c-0.4-0.3-0.9-0.5-1.3-0.7c0-0.3,0-0.7,0-1c0-0.2-0.3-0.2-0.3,0
			c0,0.3,0,0.6,0,0.9c-0.2-0.1-0.4-0.3-0.7-0.4c-0.1-0.3-0.1-0.5-0.2-0.8c0-0.2-0.3-0.1-0.3,0.1l0.1,0.6c-0.2-0.1-0.4-0.2-0.6-0.4
			l0,0c-0.2-0.1-0.3,0.1-0.2,0.2c0.2,0.1,0.5,0.3,0.7,0.4c-0.2,0.1-0.4,0.1-0.6,0.2c-0.2,0.1-0.1,0.3,0.1,0.3
			c0.3-0.1,0.5-0.2,0.8-0.3c0.2,0.1,0.4,0.3,0.7,0.4c-0.2,0.1-0.5,0.3-0.7,0.4c-0.2,0.1,0,0.3,0.1,0.3c0.3-0.2,0.6-0.4,0.9-0.5
			l1.2,0.7l0,0c0,0,0,0,0.1,0l0,0l0,0l0,0c-0.4,0.2-0.8,0.5-1.2,0.7c-0.3-0.2-0.6-0.3-0.9-0.5c-0.2-0.1-0.3,0.1-0.2,0.2
			c0.3,0.1,0.5,0.3,0.8,0.4c-0.2,0.1-0.4,0.3-0.7,0.4c-0.3-0.1-0.5-0.2-0.8-0.3c-0.2-0.1-0.3,0.2-0.1,0.3l0.6,0.2
			c-0.2,0.1-0.4,0.2-0.6,0.4l0,0c-0.2,0.1,0,0.3,0.1,0.3c0.2-0.1,0.5-0.3,0.7-0.4c0,0.2-0.1,0.4-0.1,0.6c0,0.2,0.2,0.2,0.3,0
			c0.1-0.3,0.1-0.5,0.2-0.8c0.2-0.1,0.4-0.3,0.7-0.4c0,0.3,0,0.6,0,0.9c0,0.2,0.3,0.2,0.3,0c0-0.3,0-0.7,0-1
			c0.4-0.2,0.9-0.5,1.3-0.7v1.5c-0.3,0.2-0.6,0.3-0.9,0.5c-0.2,0.1,0,0.3,0.1,0.3c0.3-0.1,0.5-0.3,0.8-0.4V52
			c-0.2,0.2-0.4,0.4-0.6,0.5c-0.1,0.1,0,0.3,0.2,0.2s0.3-0.3,0.4-0.4v0.8c0,0.2,0.3,0.2,0.3,0v-0.8c0.2,0.1,0.3,0.3,0.5,0.4
			c0.1,0.1,0.3-0.1,0.2-0.2c-0.2-0.2-0.4-0.4-0.6-0.5v-0.8c0.2,0.1,0.5,0.3,0.7,0.4c0.2,0.1,0.3-0.1,0.2-0.2
			c-0.3-0.2-0.6-0.3-0.9-0.5v-1.5c0.4,0.2,0.9,0.5,1.3,0.7c0,0.3,0,0.7,0,1c0,0.2,0.3,0.2,0.3,0c0-0.3,0-0.6,0-0.9
			c0.2,0.1,0.4,0.3,0.7,0.4c0.1,0.3,0.1,0.5,0.2,0.8c0,0.2,0.3,0.1,0.3,0l-0.1-0.6l0.6,0.4l0,0C168.7,51.4,168.8,51.2,168.7,51.1"/>
	</g>
	<g>
		<defs>
			<rect id="SVGID_131_" y="0" width="279.1" height="277.2"/>
		</defs>
		<clipPath id="SVGID_132_">
			<use xlink:href="#SVGID_131_"  style="overflow:visible;"/>
		</clipPath>
		<path class="st52" d="M215.2,43.9L215.2,43.9c-0.4-0.3-0.9-0.6-1.4-1c0.5,0.3,1,0.6,1.5,0.8l0,0c-1.3-0.7-1.9-1.3-2.2-1.8
			c-0.8-0.3-1.1,0.2-0.5,0.8C213.1,42.7,214,43,215.2,43.9 M215.9,43.5L215.9,43.5c-0.1-1.4,0.2-2.4,0.5-2.9c-0.2-0.8-0.7-0.8-0.9,0
			C215.8,41.1,215.9,42.1,215.9,43.5L215.9,43.5c0-0.5,0-1.1,0-1.7C215.9,42.4,215.9,43,215.9,43.5 M215.6,43.6L215.6,43.6
			c0,0.1,0,0.1,0,0.2l0,0C215.6,43.7,215.6,43.7,215.6,43.6 M215.3,44.5c-0.5,0.2-1,0.5-1.6,0.8c0.6-0.3,1.1-0.6,1.5-0.9l0,0
			c-1.2,0.8-2.1,1-2.7,1c-0.6,0.5-0.4,1,0.4,0.8C213.2,45.8,214,45.1,215.3,44.5L215.3,44.5 M215.6,43.8L215.6,43.8
			c-0.1-0.1-0.1-0.1-0.2-0.2l0,0C215.5,43.7,215.6,43.8,215.6,43.8 M216.4,44.4L216.4,44.4c0.4,0.3,0.9,0.6,1.4,1
			c-0.5-0.3-1.1-0.6-1.5-0.9l0,0c1.3,0.7,2,1.3,2.2,1.8c0.8,0.3,1.1-0.2,0.5-0.8C218.5,45.6,217.6,45.3,216.4,44.4 M215.9,44.8
			c-0.1,0.5-0.1,1.1-0.1,1.7c0-0.6,0-1.2,0-1.7l0,0c0.1,1.4-0.2,2.4-0.5,2.9c0.2,0.8,0.7,0.8,0.9,0
			C215.9,47.2,215.7,46.2,215.9,44.8L215.9,44.8 M216,44.7L216,44.7c0-0.1,0-0.1,0-0.2l0,0C216,44.6,216,44.7,216,44.7 M216,44.5
			L216,44.5c0.1,0.1,0.1,0.1,0.2,0.2l0,0C216.1,44.6,216.1,44.6,216,44.5 M216.1,43.6c0,0.1,0,0.1,0,0.2l0,0
			C216,43.7,216.1,43.6,216.1,43.6L216.1,43.6 M215.4,44.6L215.4,44.6c0,0,0.1-0.1,0.2-0.1l0,0C215.5,44.5,215.5,44.6,215.4,44.6
			 M215.2,44.2c0.1,0,0.1,0,0.2-0.1l0,0C215.3,44.2,215.2,44.2,215.2,44.2L215.2,44.2 M218.7,42.1c-0.3,0.5-1,1.1-2.3,1.7l0,0
			c0.5-0.2,1-0.5,1.6-0.8c-0.6,0.3-1.1,0.6-1.5,0.9l0,0c1.2-0.8,2.1-1,2.7-1C219.7,42.3,219.5,41.9,218.7,42.1 M215.6,44.7
			c0-0.1,0-0.1,0-0.2l0,0C215.6,44.6,215.6,44.7,215.6,44.7C215.5,44.7,215.5,44.7,215.6,44.7 M216.4,44.1c-0.1,0-0.1,0-0.2,0.1l0,0
			C216.3,44.1,216.4,44.1,216.4,44.1L216.4,44.1 M216.2,43.7L216.2,43.7c-0.1,0-0.1,0.1-0.2,0.1l0,0
			C216.1,43.8,216.1,43.7,216.2,43.7 M216.4,44.3L216.4,44.3c-0.1,0-0.1-0.1-0.2-0.1l0,0C216.3,44.2,216.3,44.2,216.4,44.3
			 M215.2,44.1L215.2,44.1c0.1,0,0.1,0.1,0.2,0.1l0,0C215.3,44.1,215.3,44.1,215.2,44.1"/>
	</g>
	<g>
		<defs>
			<rect id="SVGID_133_" y="0" width="279.1" height="277.2"/>
		</defs>
		<clipPath id="SVGID_134_">
			<use xlink:href="#SVGID_133_"  style="overflow:visible;"/>
		</clipPath>
		<path class="st53" d="M215.5,44.7L215.5,44.7c-0.3,0.4-0.7,0.8-1.1,1.3c0.4-0.5,0.7-1,1-1.4l0,0c-0.8,1.2-1.5,1.8-2,2.1
			c-0.3,0.7,0.1,1.1,0.7,0.6C214.2,46.7,214.5,45.8,215.5,44.7 M215.2,44L215.2,44c-1.5-0.1-2.4-0.4-2.8-0.7
			c-0.8,0.1-0.9,0.6-0.1,0.9c0.5-0.2,1.5-0.3,2.9,0l0,0c-0.5-0.1-1.1-0.2-1.7-0.3C214.1,44,214.7,44,215.2,44 M215.2,44.3
			L215.2,44.3c0.1,0,0.1,0,0.2,0l0,0C215.4,44.3,215.3,44.3,215.2,44.3 M216.1,44.7c0.2,0.5,0.4,1,0.6,1.6c-0.3-0.6-0.5-1.1-0.8-1.6
			l0,0c0.7,1.3,0.8,2.2,0.8,2.8c0.5,0.7,1,0.4,0.9-0.4C217.2,46.9,216.6,46.1,216.1,44.7L216.1,44.7 M215.4,44.3L215.4,44.3
			c-0.1,0.1-0.1,0.1-0.2,0.2l0,0C215.3,44.4,215.4,44.4,215.4,44.3 M216.1,43.6L216.1,43.6c0.3-0.4,0.7-0.8,1.1-1.3
			c-0.4,0.5-0.7,1-1,1.4l0,0c0.8-1.2,1.5-1.8,2-2.1c0.3-0.7-0.1-1.1-0.7-0.6C217.5,41.6,217.1,42.5,216.1,43.6 M216.4,44.2
			c0.5,0.1,1.1,0.2,1.7,0.3c-0.6-0.1-1.2-0.1-1.7-0.1l0,0c1.4,0.1,2.3,0.4,2.8,0.7c0.8-0.1,0.9-0.6,0.1-0.9
			C218.8,44.3,217.9,44.4,216.4,44.2C216.5,44.1,216.5,44.2,216.4,44.2 M216.4,44L216.4,44c-0.1,0-0.1,0-0.2,0l0,0
			C216.3,44,216.3,44,216.4,44 M216.2,44L216.2,44c0.1-0.1,0.1-0.1,0.2-0.2l0,0C216.3,43.9,216.2,43.9,216.2,44 M215.3,43.9
			c0.1,0,0.1,0,0.2,0.1l0,0C215.4,43.9,215.3,43.9,215.3,43.9C215.3,43.8,215.3,43.9,215.3,43.9 M216.2,44.6
			C216.3,44.6,216.3,44.6,216.2,44.6c0-0.1-0.1-0.1-0.1-0.2l0,0C216.2,44.5,216.2,44.5,216.2,44.6 M215.8,44.8c0-0.1,0-0.1-0.1-0.2
			l0,0C215.8,44.6,215.8,44.7,215.8,44.8L215.8,44.8 M214,41.1c0.5,0.4,1,1.1,1.5,2.5l0,0c-0.2-0.5-0.4-1-0.6-1.6
			c0.3,0.6,0.5,1.1,0.8,1.6l0,0c-0.7-1.3-0.8-2.2-0.8-2.8C214.3,40.1,213.9,40.3,214,41.1 M216.3,44.5c-0.1,0-0.1,0-0.2-0.1l0,0
			C216.2,44.4,216.3,44.5,216.3,44.5C216.4,44.5,216.4,44.5,216.3,44.5 M215.8,43.5c0,0.1,0,0.1,0.1,0.2l0,0
			C215.8,43.7,215.8,43.6,215.8,43.5L215.8,43.5 M215.4,43.7L215.4,43.7c0,0.1,0.1,0.1,0.1,0.2l0,0
			C215.4,43.9,215.4,43.8,215.4,43.7 M216,43.6L216,43.6c0,0-0.1,0.1-0.1,0.2l0,0C215.9,43.7,215.9,43.6,216,43.6 M215.7,44.8
			L215.7,44.8c0-0.1,0.1-0.1,0.1-0.2l0,0C215.7,44.6,215.7,44.7,215.7,44.8"/>
	</g>
	<g>
		<defs>
			<rect id="SVGID_135_" y="0" width="279.1" height="277.2"/>
		</defs>
		<clipPath id="SVGID_136_">
			<use xlink:href="#SVGID_135_"  style="overflow:visible;"/>
		</clipPath>
		<path class="st54" d="M201.8,55.7c-0.2-0.1-0.5-0.3-0.7-0.4c0.2-0.1,0.4-0.1,0.6-0.2c0.2-0.1,0-0.3-0.1-0.3l-0.8,0.3
			c-0.2-0.1-0.4-0.3-0.7-0.4l0.7-0.4c0.1-0.1,0-0.3-0.1-0.3c-0.3,0.2-0.6,0.4-0.9,0.5c-0.4-0.2-0.8-0.5-1.2-0.7c0,0,0,0-0.1,0l0,0
			l0,0l0,0c0.4-0.2,0.8-0.5,1.2-0.7c0.3,0.2,0.6,0.3,0.9,0.5c0.2,0.1,0.3-0.1,0.2-0.2c-0.2-0.1-0.5-0.3-0.7-0.4
			c0.2-0.1,0.4-0.3,0.7-0.4c0.3,0.1,0.5,0.2,0.8,0.3c0.2,0.1,0.3-0.2,0.1-0.3s-0.4-0.1-0.6-0.2c0.2-0.1,0.4-0.2,0.6-0.4l0,0
			c0.2-0.1,0-0.3-0.1-0.3c-0.2,0.1-0.5,0.3-0.7,0.4c0-0.2,0.1-0.4,0.1-0.6c0-0.2-0.2-0.2-0.3,0l-0.2,0.8c-0.2,0.1-0.4,0.3-0.7,0.4
			c0-0.3,0-0.6,0-0.9c0-0.2-0.3-0.2-0.3,0c0,0.3,0,0.7,0,1c-0.4,0.2-0.9,0.5-1.3,0.7V52c0.3-0.2,0.6-0.3,0.9-0.5
			c0.2-0.1,0-0.3-0.1-0.3c-0.3,0.1-0.5,0.3-0.8,0.4V51c0.2-0.2,0.4-0.4,0.6-0.5c0.1-0.1,0-0.3-0.2-0.2s-0.3,0.3-0.4,0.4v-0.8
			c0-0.2-0.3-0.2-0.3,0v0.8c-0.2-0.1-0.3-0.3-0.5-0.4c-0.1-0.1-0.3,0.1-0.2,0.2c0.2,0.2,0.4,0.4,0.6,0.5v0.8l-0.7-0.4
			c-0.2-0.1-0.3,0.1-0.2,0.2c0.3,0.2,0.6,0.3,0.9,0.5v1.5c-0.4-0.2-0.9-0.5-1.3-0.7c0-0.3,0-0.7,0-1c0-0.2-0.3-0.2-0.3,0v0.9
			c-0.2-0.1-0.4-0.3-0.7-0.4c-0.1-0.3-0.1-0.5-0.2-0.8c0-0.2-0.3-0.1-0.3,0l0.1,0.6c-0.2-0.1-0.4-0.2-0.6-0.4l0,0
			c-0.2-0.1-0.3,0.1-0.2,0.2c0.2,0.1,0.5,0.3,0.7,0.4c-0.2,0.1-0.4,0.1-0.6,0.2c-0.2,0.1-0.1,0.3,0.1,0.3c0.3-0.1,0.5-0.2,0.8-0.3
			c0.2,0.1,0.4,0.3,0.7,0.4c-0.2,0.1-0.5,0.3-0.7,0.4c-0.2,0.1,0,0.3,0.1,0.3c0.3-0.2,0.6-0.4,0.9-0.5l1.2,0.7h0.1l0,0l0,0
			c-0.4,0.2-0.8,0.5-1.2,0.7c-0.3-0.2-0.6-0.3-0.9-0.5c-0.2-0.1-0.3,0.1-0.2,0.2c0.2,0.1,0.5,0.3,0.8,0.4c-0.2,0.1-0.4,0.3-0.7,0.4
			c-0.3-0.1-0.5-0.2-0.8-0.3c-0.2-0.1-0.3,0.2-0.1,0.3l0.6,0.2c-0.2,0.1-0.4,0.2-0.6,0.4l0,0c-0.2,0.1,0,0.3,0.1,0.3
			c0.2-0.1,0.5-0.3,0.7-0.4c0,0.2-0.1,0.4-0.1,0.6c0,0.2,0.2,0.2,0.3,0c0.1-0.3,0.1-0.5,0.2-0.8c0.2-0.1,0.4-0.3,0.7-0.4
			c0,0.3,0,0.6,0,0.9c0,0.2,0.3,0.2,0.3,0c0-0.3,0-0.7,0-1c0.4-0.2,0.9-0.5,1.3-0.7v1.5c-0.3,0.2-0.6,0.3-0.9,0.5
			c-0.2,0.1,0,0.3,0.1,0.3c0.3-0.1,0.5-0.3,0.8-0.4v0.8c-0.2,0.2-0.4,0.4-0.6,0.5c-0.1,0.1,0,0.3,0.2,0.2s0.3-0.3,0.5-0.4V58
			c0,0.2,0.3,0.2,0.3,0v-1c0.1,0.1,0.3,0.3,0.5,0.4c0.1,0.1,0.3-0.1,0.2-0.2c-0.2-0.2-0.4-0.4-0.6-0.5v-0.8c0.2,0.1,0.5,0.3,0.7,0.4
			c0.2,0.1,0.3-0.1,0.2-0.2c-0.3-0.2-0.6-0.3-0.9-0.5V54c0.4,0.2,0.9,0.5,1.3,0.7c0,0.3,0,0.7,0,1c0,0.2,0.3,0.2,0.3,0
			c0-0.3,0-0.6,0-0.9c0.2,0.1,0.4,0.3,0.7,0.4c0.1,0.3,0.1,0.5,0.2,0.8c0,0.2,0.3,0.1,0.3-0.1l-0.1-0.6L201.8,55.7L201.8,55.7
			C201.8,56,202,55.8,201.8,55.7"/>
	</g>
	<g>
		<defs>
			<rect id="SVGID_137_" y="0" width="279.1" height="277.2"/>
		</defs>
		<clipPath id="SVGID_138_">
			<use xlink:href="#SVGID_137_"  style="overflow:visible;"/>
		</clipPath>
		<path class="st55" d="M227.5,63.2c-0.4-0.2-0.7-0.4-1.1-0.6c0.3-0.1,0.6-0.2,0.9-0.3c0.3-0.1,0.1-0.5-0.2-0.4
			c-0.4,0.1-0.8,0.3-1.2,0.4c-0.3-0.2-0.7-0.4-1-0.6L226,61c0.2-0.1,0.1-0.5-0.2-0.4c-0.4,0.3-0.9,0.5-1.3,0.8
			c-0.6-0.4-1.2-0.7-1.8-1.1l0,0c0,0-0.1,0-0.1-0.1l0,0c0,0,0,0,0.1,0c0.6-0.4,1.2-0.7,1.9-1.1l1.3,0.8c0.2,0.1,0.5-0.2,0.2-0.3
			c-0.4-0.2-0.8-0.4-1.1-0.7c0.3-0.2,0.7-0.4,1-0.6l1.2,0.4c0.3,0.1,0.4-0.3,0.1-0.4c-0.3-0.1-0.6-0.2-0.9-0.3
			c0.3-0.2,0.6-0.4,1-0.6c0,0,0,0,0.1,0c0.2-0.1,0.1-0.5-0.2-0.4c-0.4,0.2-0.7,0.4-1.1,0.6c0.1-0.3,0.1-0.6,0.2-0.9
			c0.1-0.3-0.4-0.3-0.4,0l-0.2,1.2c-0.3,0.2-0.7,0.4-1,0.6c0-0.4,0-0.9,0-1.3c0-0.3-0.4-0.3-0.4,0c0,0.5,0,1,0,1.6
			c-0.7,0.4-1.3,0.8-2,1.1v-2.3c0.5-0.2,0.9-0.5,1.3-0.7c0.2-0.1,0.1-0.5-0.2-0.4c-0.4,0.2-0.8,0.4-1.2,0.6V56
			c0.3-0.3,0.6-0.6,1-0.8c0.2-0.2-0.1-0.5-0.3-0.3s-0.5,0.4-0.7,0.6v-1.2c0-0.3-0.4-0.3-0.4,0v1.2l-0.7-0.6
			c-0.2-0.2-0.4,0.2-0.2,0.3c0.3,0.3,0.6,0.5,0.9,0.8v1.2c-0.4-0.2-0.8-0.4-1.1-0.6c-0.2-0.1-0.5,0.2-0.2,0.3
			c0.5,0.3,0.9,0.5,1.4,0.8V60c-0.6-0.4-1.3-0.8-2-1.1c0-0.5,0-1,0-1.5c0-0.3-0.4-0.3-0.4,0c0,0.4,0,0.9,0,1.3l-1-0.6
			c-0.1-0.4-0.2-0.8-0.2-1.2c-0.1-0.3-0.5-0.2-0.4,0.1l0.2,0.9c-0.3-0.2-0.6-0.4-1-0.6c0,0,0,0-0.1,0c-0.2-0.1-0.5,0.2-0.2,0.3
			c0.4,0.2,0.7,0.4,1.1,0.6c-0.3,0.1-0.6,0.2-0.9,0.3c-0.3,0.1-0.1,0.5,0.2,0.4c0.4-0.1,0.8-0.3,1.2-0.4c0.3,0.2,0.7,0.4,1,0.6
			c-0.4,0.2-0.7,0.4-1.1,0.7c-0.2,0.1-0.1,0.5,0.2,0.4c0.4-0.3,0.9-0.5,1.3-0.8l1.8,1.1c0,0,0.1,0,0.1,0.1l0,0c0,0,0,0-0.1,0l0,0
			c-0.6,0.4-1.3,0.7-1.9,1.1c-0.4-0.3-0.9-0.5-1.3-0.8c-0.2-0.1-0.5,0.2-0.2,0.3c0.4,0.2,0.8,0.5,1.1,0.7c-0.3,0.2-0.7,0.4-1,0.6
			l-1.2-0.4c-0.3-0.1-0.4,0.3-0.1,0.4l0.9,0.3c-0.3,0.2-0.6,0.4-1,0.6c0,0,0,0-0.1,0c-0.2,0.1-0.1,0.5,0.2,0.4
			c0.4-0.2,0.7-0.4,1.1-0.6c-0.1,0.3-0.1,0.6-0.2,0.9c-0.1,0.3,0.4,0.3,0.4,0l0.2-1.2c0.3-0.2,0.7-0.4,1-0.6c0,0.4,0,0.9,0,1.3
			c0,0.3,0.4,0.3,0.4,0c0-0.5,0-1,0-1.6c0.7-0.4,1.3-0.8,2-1.1v2.3c-0.4,0.3-0.9,0.5-1.3,0.7c-0.2,0.1-0.1,0.5,0.2,0.4
			c0.4-0.2,0.8-0.4,1.2-0.6v1.2c-0.3,0.3-0.6,0.6-1,0.8c-0.2,0.2,0.1,0.5,0.3,0.3s0.5-0.4,0.7-0.6v1.2c0,0.3,0.4,0.3,0.4,0v-1.2
			c0.2,0.2,0.5,0.4,0.7,0.6s0.4-0.2,0.2-0.3c-0.3-0.3-0.6-0.5-0.9-0.8v-1.2c0.4,0.2,0.8,0.4,1.1,0.6c0.2,0.1,0.5-0.2,0.2-0.3
			c-0.5-0.3-0.9-0.5-1.4-0.8v-2.3c0.7,0.4,1.3,0.8,2,1.1c0,0.5,0,1,0,1.5c0,0.3,0.4,0.3,0.4,0c0-0.4,0-0.9,0-1.3l1,0.6
			c0.1,0.4,0.2,0.8,0.2,1.2c0.1,0.3,0.5,0.2,0.4-0.1c-0.1-0.3-0.1-0.6-0.2-0.9l1,0.6c0,0,0,0,0.1,0
			C227.5,63.6,227.7,63.3,227.5,63.2"/>
	</g>
	<g>
		<defs>
			<rect id="SVGID_139_" y="0" width="279.1" height="277.2"/>
		</defs>
		<clipPath id="SVGID_140_">
			<use xlink:href="#SVGID_139_"  style="overflow:visible;"/>
		</clipPath>
		<path class="st56" d="M177.1,8.9C174.7,9.5,174.9,10.1,177.1,8.9 M183.8,11.8C184.4,14.2,185,14,183.8,11.8 M186.7,5.1
			C189.1,4.5,188.9,3.9,186.7,5.1 M180,2.2C179.4-0.2,178.8,0,180,2.2 M183.9,2.3C185.2,0.1,184.6-0.1,183.9,2.3 M183.9,2.3
			c-0.4,0.7-1.1,1.7-2,2.8C181,3.9,180.4,3,180,2.2c0.2,0.8,0.4,1.9,0.5,3.4c-1.4-0.2-2.5-0.4-3.4-0.6c0.7,0.4,1.7,1.1,2.8,2
			c-1.1,0.9-2.1,1.5-2.8,1.9c0.8-0.2,1.9-0.4,3.4-0.5c-0.2,1.4-0.4,2.5-0.6,3.4c0.4-0.7,1.1-1.7,2-2.8c0.9,1.1,1.5,2.1,1.9,2.8
			c-0.2-0.8-0.4-1.9-0.5-3.4c1.4,0.2,2.5,0.4,3.4,0.6c-0.7-0.4-1.6-1.1-2.8-2c1.1-0.9,2.1-1.5,2.8-1.9c-0.8,0.2-1.9,0.4-3.4,0.5
			C183.5,4.2,183.7,3.1,183.9,2.3 M179.8,11.7C178.5,13.9,179.2,14.1,179.8,11.7 M177.2,5C175,3.6,174.8,4.3,177.2,5 M186.6,9
			C188.8,10.4,189,9.7,186.6,9"/>
	</g>
	<g>
		<defs>
			<rect id="SVGID_141_" y="0" width="279.1" height="277.2"/>
		</defs>
		<clipPath id="SVGID_142_">
			<use xlink:href="#SVGID_141_"  style="overflow:visible;"/>
		</clipPath>
		<path class="st57" d="M178.1,10.5C176,11.9,176.5,12.4,178.1,10.5 M185.3,10.8C186.8,12.9,187.3,12.4,185.3,10.8 M185.7,3.6
			C187.8,2.1,187.3,1.6,185.7,3.6 M178.4,3.2C177,1.1,176.5,1.6,178.4,3.2 M182.1,1.9C182.6-0.6,181.9-0.6,182.1,1.9 M182.1,1.9
			c-0.1,0.8-0.4,1.9-0.9,3.3c-1.2-0.8-2.2-1.4-2.8-2c0.5,0.7,1.1,1.7,1.7,3c-1.4,0.3-2.5,0.5-3.4,0.6c0.8,0.2,1.9,0.4,3.3,0.9
			c-0.8,1.2-1.4,2.1-2,2.8c0.7-0.5,1.7-1.1,3-1.7c0.3,1.4,0.5,2.5,0.6,3.4c0.1-0.8,0.4-1.9,0.9-3.3c1.2,0.8,2.1,1.4,2.8,2
			c-0.5-0.7-1.1-1.7-1.7-3c1.4-0.3,2.5-0.5,3.4-0.6c-0.8-0.2-1.9-0.4-3.3-0.9c0.8-1.2,1.4-2.2,2-2.8c-0.7,0.5-1.7,1.1-3,1.7
			C182.4,3.8,182.2,2.7,182.1,1.9 M181.6,12.1C181.2,14.6,181.9,14.6,181.6,12.1 M176.8,6.8C174.3,6.3,174.2,7,176.8,6.8 M187,7.3
			C189.5,7.7,189.5,7,187,7.3"/>
	</g>
	<g>
		<defs>
			<rect id="SVGID_143_" y="0" width="279.1" height="277.2"/>
		</defs>
		<clipPath id="SVGID_144_">
			<use xlink:href="#SVGID_143_"  style="overflow:visible;"/>
		</clipPath>
		<path class="st58" d="M164.3,79.4L164.3,79.4c-1-0.1-2.2-0.2-3.5-0.3c1.3,0,2.5,0,3.5-0.1l0,0c-2.9,0.1-4.8-0.4-5.8-0.9
			c-1.6,0.3-1.7,1.4-0.1,1.9C159.5,79.5,161.4,79.1,164.3,79.4 M165.2,78.1C165.1,78.1,165.1,78,165.2,78.1
			c-1.6-2.5-2.1-4.4-2.1-5.5c-1.1-1.2-2.1-0.7-1.6,0.9c1,0.6,2.2,2.1,3.4,4.8l0,0c-0.4-1-0.9-2-1.5-3.2
			C163.9,76.2,164.6,77.2,165.2,78.1 M164.6,78.5L164.6,78.5c0.1,0.1,0.2,0.2,0.3,0.4l0,0C164.8,78.7,164.7,78.6,164.6,78.5
			 M165.1,80.4c-0.6,0.9-1.3,1.8-2,2.9c0.7-1.1,1.2-2.1,1.7-3.1l0,0c-1.3,2.6-2.7,4-3.7,4.5c-0.5,1.6,0.4,2.1,1.6,1
			C162.7,84.7,163.4,82.8,165.1,80.4C165.1,80.5,165.1,80.5,165.1,80.4 M164.9,78.8L164.9,78.8c-0.2,0-0.3-0.1-0.5-0.1l0,0
			C164.6,78.8,164.8,78.8,164.9,78.8 M166.9,79.1L166.9,79.1c1,0.1,2.2,0.2,3.5,0.3c-1.3,0-2.5,0-3.5,0.1l0,0
			c2.9-0.1,4.8,0.3,5.8,0.9c1.6-0.3,1.7-1.4,0.1-1.9C171.7,79.1,169.8,79.4,166.9,79.1 M166.4,80.3c0.4,1,0.9,2,1.5,3.2
			c-0.6-1.1-1.2-2.2-1.8-3l0,0c1.6,2.4,2.1,4.3,2.1,5.5c1.1,1.2,2.1,0.7,1.7-0.9C168.8,84.5,167.6,83,166.4,80.3L166.4,80.3
			 M166.6,80.1L166.6,80.1c-0.1-0.1-0.2-0.2-0.3-0.3l0,0C166.4,79.8,166.5,79.9,166.6,80.1 M166.3,79.7L166.3,79.7
			c0.2,0,0.3,0.1,0.5,0.1l0,0C166.6,79.8,166.5,79.7,166.3,79.7 M165.5,78c0.1,0.1,0.1,0.3,0.1,0.4l0,0
			C165.6,78.3,165.5,78.1,165.5,78L165.5,78 M165.4,80.5L165.4,80.5c0.1-0.1,0.1-0.2,0.2-0.4l0,0C165.5,80.2,165.5,80.4,165.4,80.5
			 M164.6,80c0.1-0.1,0.2-0.2,0.3-0.3l0,0C164.8,79.8,164.7,79.9,164.6,80L164.6,80 M168.6,72.7c-0.1,1.2-0.7,3-2.4,5.3l0,0
			c0.6-0.9,1.3-1.8,2-2.9c-0.7,1.1-1.3,2.1-1.7,3.1l0,0c1.3-2.6,2.7-4,3.7-4.5C170.7,72.1,169.7,71.5,168.6,72.7 M165.7,80.5
			c0-0.1-0.1-0.3-0.1-0.4l0,0C165.6,80.3,165.7,80.4,165.7,80.5L165.7,80.5 M166.6,78.5c-0.1,0.1-0.2,0.2-0.3,0.3l0,0
			C166.5,78.8,166.6,78.6,166.6,78.5C166.7,78.5,166.6,78.5,166.6,78.5 M165.8,78L165.8,78c-0.1,0.1-0.1,0.3-0.2,0.4l0,0
			C165.7,78.3,165.8,78.2,165.8,78 M166.8,78.8L166.8,78.8c-0.1,0-0.3,0-0.4,0l0,0C166.5,78.9,166.6,78.8,166.8,78.8 M164.4,79.7
			L164.4,79.7c0.1,0,0.3,0,0.4,0l0,0C164.7,79.7,164.6,79.7,164.4,79.7"/>
	</g>
	<g>
		<defs>
			<rect id="SVGID_145_" y="0" width="279.1" height="277.2"/>
		</defs>
		<clipPath id="SVGID_146_">
			<use xlink:href="#SVGID_145_"  style="overflow:visible;"/>
		</clipPath>
		<path class="st59" d="M164.3,79.4L164.3,79.4c-1-0.1-2.2-0.2-3.5-0.3c1.3,0,2.5,0,3.5-0.1l0,0c-2.9,0.1-4.8-0.4-5.8-0.9
			c-1.6,0.3-1.7,1.4-0.1,1.9C159.5,79.5,161.4,79.1,164.3,79.4 M165.2,78.1C165.1,78.1,165.1,78,165.2,78.1
			c-1.6-2.5-2.1-4.4-2.1-5.5c-1.1-1.2-2.1-0.7-1.6,0.9c1,0.6,2.2,2.1,3.4,4.8l0,0c-0.4-1-0.9-2-1.5-3.2
			C163.9,76.2,164.6,77.2,165.2,78.1 M164.6,78.5L164.6,78.5c0.1,0.1,0.2,0.2,0.3,0.4l0,0C164.8,78.7,164.7,78.6,164.6,78.5
			 M165.1,80.4c-0.6,0.9-1.3,1.8-2,2.9c0.7-1.1,1.2-2.1,1.7-3.1l0,0c-1.3,2.6-2.7,4-3.7,4.5c-0.5,1.6,0.4,2.1,1.6,1
			C162.7,84.7,163.4,82.8,165.1,80.4C165.1,80.5,165.1,80.5,165.1,80.4 M164.9,78.8L164.9,78.8c-0.2,0-0.3-0.1-0.5-0.1l0,0
			C164.6,78.8,164.8,78.8,164.9,78.8 M166.9,79.1L166.9,79.1c1,0.1,2.2,0.2,3.5,0.3c-1.3,0-2.5,0-3.5,0.1l0,0
			c2.9-0.1,4.8,0.3,5.8,0.9c1.6-0.3,1.7-1.4,0.1-1.9C171.7,79.1,169.8,79.4,166.9,79.1 M166.4,80.3c0.4,1,0.9,2,1.5,3.2
			c-0.6-1.1-1.2-2.2-1.8-3l0,0c1.6,2.4,2.1,4.3,2.1,5.5c1.1,1.2,2.1,0.7,1.7-0.9C168.8,84.5,167.6,83,166.4,80.3L166.4,80.3
			 M166.6,80.1L166.6,80.1c-0.1-0.1-0.2-0.2-0.3-0.3l0,0C166.4,79.8,166.5,79.9,166.6,80.1 M166.3,79.7L166.3,79.7
			c0.2,0,0.3,0.1,0.5,0.1l0,0C166.6,79.8,166.5,79.7,166.3,79.7 M165.5,78c0.1,0.1,0.1,0.3,0.1,0.4l0,0
			C165.6,78.3,165.5,78.1,165.5,78L165.5,78 M165.4,80.5L165.4,80.5c0.1-0.1,0.1-0.2,0.2-0.4l0,0C165.5,80.2,165.5,80.4,165.4,80.5
			 M164.6,80c0.1-0.1,0.2-0.2,0.3-0.3l0,0C164.8,79.8,164.7,79.9,164.6,80L164.6,80 M168.6,72.7c-0.1,1.2-0.7,3-2.4,5.3l0,0
			c0.6-0.9,1.3-1.8,2-2.9c-0.7,1.1-1.3,2.1-1.7,3.1l0,0c1.3-2.6,2.7-4,3.7-4.5C170.7,72.1,169.7,71.5,168.6,72.7 M165.7,80.5
			c0-0.1-0.1-0.3-0.1-0.4l0,0C165.6,80.3,165.7,80.4,165.7,80.5L165.7,80.5 M166.6,78.5c-0.1,0.1-0.2,0.2-0.3,0.3l0,0
			C166.5,78.8,166.6,78.6,166.6,78.5C166.7,78.5,166.6,78.5,166.6,78.5 M165.8,78L165.8,78c-0.1,0.1-0.1,0.3-0.2,0.4l0,0
			C165.7,78.3,165.8,78.2,165.8,78 M166.8,78.8L166.8,78.8c-0.1,0-0.3,0-0.4,0l0,0C166.5,78.9,166.6,78.8,166.8,78.8 M164.4,79.7
			L164.4,79.7c0.1,0,0.3,0,0.4,0l0,0C164.7,79.7,164.6,79.7,164.4,79.7"/>
	</g>
	<g>
		<defs>
			<rect id="SVGID_147_" y="0" width="279.1" height="277.2"/>
		</defs>
		<clipPath id="SVGID_148_">
			<use xlink:href="#SVGID_147_"  style="overflow:visible;"/>
		</clipPath>
		<path class="st60" d="M164.4,78.7L164.4,78.7c-0.8-0.6-1.8-1.3-2.9-2c1.1,0.7,2.1,1.2,3.1,1.7l0,0c-2.6-1.3-4-2.7-4.5-3.7
			c-1.6-0.5-2.2,0.4-1,1.6C160.2,76.4,162.1,77,164.4,78.7 M165.8,78L165.8,78c-0.1-2.9,0.4-4.8,1-5.8c-0.3-1.6-1.4-1.7-1.9-0.1
			c0.5,1,0.9,2.9,0.6,5.8l0,0c0.1-1.1,0.2-2.2,0.3-3.5C165.7,75.8,165.7,76.9,165.8,78 M165.2,78.1L165.2,78.1c0,0.1,0,0.3,0,0.4
			l0,0C165.2,78.4,165.2,78.3,165.2,78.1 M164.6,80c-1,0.4-2,0.9-3.2,1.5c1.1-0.6,2.1-1.2,3-1.8l0,0c-2.4,1.6-4.3,2.1-5.5,2.1
			c-1.2,1.1-0.7,2.1,0.9,1.7C160.4,82.5,161.9,81.2,164.6,80C164.5,80,164.6,80,164.6,80 M165.2,78.5L165.2,78.5
			c-0.1-0.1-0.2-0.2-0.4-0.3l0,0C165,78.4,165.1,78.5,165.2,78.5 M166.8,79.8L166.8,79.8c0.8,0.6,1.8,1.3,2.9,2
			c-1.1-0.7-2.1-1.2-3.1-1.7l0,0c2.6,1.3,4,2.7,4.5,3.7c1.6,0.5,2.2-0.4,1-1.6C171,82.2,169.2,81.5,166.8,79.8 M165.7,80.6
			c-0.1,1.1-0.2,2.2-0.3,3.5c0-1.3,0-2.5-0.1-3.5l0,0c0.1,2.9-0.3,4.8-0.9,5.8c0.3,1.6,1.4,1.7,1.9,0.1
			C165.8,85.4,165.5,83.5,165.7,80.6L165.7,80.6 M166.1,80.4C166.1,80.5,166.1,80.5,166.1,80.4s0-0.3,0-0.4l0,0
			C166,80.1,166,80.3,166.1,80.4 M166,80L166,80c0.1,0.1,0.2,0.2,0.4,0.3l0,0C166.2,80.2,166.1,80.1,166,80 M166.1,78.1
			c0,0.1-0.1,0.3-0.1,0.4l0,0C166.1,78.4,166.1,78.2,166.1,78.1L166.1,78.1 M164.8,80.2C164.8,80.3,164.8,80.3,164.8,80.2
			c0.1-0.1,0.2-0.2,0.4-0.3l0,0C165.1,80.1,164.9,80.1,164.8,80.2 M164.4,79.4c0.1-0.1,0.3-0.1,0.4-0.1l0,0
			C164.6,79.3,164.5,79.3,164.4,79.4C164.3,79.4,164.4,79.4,164.4,79.4 M171.5,75.1c-0.6,1-2.1,2.2-4.8,3.4l0,0c1-0.4,2-0.9,3.2-1.5
			c-1.1,0.6-2.1,1.2-3,1.8l0,0c2.4-1.6,4.3-2.1,5.5-2.1C173.6,75.6,173.1,74.6,171.5,75.1 M165.1,80.4c0-0.1,0.1-0.3,0.1-0.4l0,0
			C165.1,80.1,165.1,80.3,165.1,80.4L165.1,80.4 M166.9,79.1c-0.1,0-0.3,0.1-0.4,0.1l0,0C166.6,79.2,166.8,79.2,166.9,79.1
			L166.9,79.1 M166.4,78.3L166.4,78.3c-0.1,0.1-0.2,0.2-0.4,0.3l0,0C166.2,78.5,166.3,78.4,166.4,78.3 M166.9,79.5L166.9,79.5
			c-0.1-0.1-0.2-0.1-0.4-0.2l0,0C166.6,79.4,166.7,79.4,166.9,79.5 M164.4,79.1L164.4,79.1c0.1,0.1,0.2,0.1,0.4,0.2l0,0
			C164.7,79.2,164.5,79.1,164.4,79.1"/>
	</g>
	<g>
		<defs>
			<rect id="SVGID_149_" y="0" width="279.1" height="277.2"/>
		</defs>
		<clipPath id="SVGID_150_">
			<use xlink:href="#SVGID_149_"  style="overflow:visible;"/>
		</clipPath>
		<path class="st61" d="M224.2,98.8c-0.4-0.2-0.7-0.4-1.1-0.6c0.3-0.1,0.6-0.2,0.9-0.3c0.3-0.1,0.1-0.5-0.2-0.4
			c-0.4,0.1-0.8,0.3-1.2,0.4c-0.3-0.2-0.7-0.4-1-0.6l1.1-0.7c0.2-0.1,0.1-0.5-0.2-0.4c-0.4,0.3-0.9,0.5-1.3,0.8
			c-0.6-0.4-1.2-0.7-1.8-1.1c0,0-0.1,0-0.1-0.1l0,0c0,0,0,0,0.1,0l0,0c0.6-0.4,1.2-0.7,1.9-1.1l1.3,0.8c0.2,0.1,0.5-0.2,0.2-0.3
			c-0.4-0.2-0.8-0.4-1.1-0.7c0.3-0.2,0.7-0.4,1-0.6l1.2,0.4c0.3,0.1,0.4-0.3,0.1-0.4c-0.3-0.1-0.6-0.2-0.9-0.3
			c0.3-0.2,0.6-0.4,1-0.6c0,0,0,0,0.1,0c0.2-0.1,0.1-0.5-0.2-0.4c-0.4,0.2-0.7,0.4-1.1,0.6c0.1-0.3,0.1-0.6,0.2-0.9
			c0.1-0.3-0.4-0.3-0.4,0l-0.2,1.2c-0.3,0.2-0.7,0.4-1,0.6c0-0.4,0-0.9,0-1.3c0-0.3-0.4-0.3-0.4,0c0,0.5,0,1,0,1.6
			c-0.7,0.4-1.3,0.8-2,1.1v-2.3c0.4-0.3,0.9-0.5,1.3-0.8c0.2-0.1,0.1-0.5-0.2-0.4c-0.4,0.2-0.8,0.4-1.2,0.6v-1.2
			c0.3-0.3,0.6-0.6,1-0.8c0.2-0.2-0.1-0.5-0.3-0.3s-0.5,0.4-0.7,0.6v-1.2c0-0.3-0.4-0.3-0.4,0v1.2l-0.7-0.6
			c-0.2-0.2-0.4,0.2-0.2,0.3c0.3,0.3,0.6,0.5,0.9,0.8v1.2c-0.4-0.2-0.8-0.4-1.1-0.6c-0.2-0.1-0.5,0.2-0.2,0.3
			c0.5,0.3,0.9,0.5,1.4,0.8v2.3c-0.6-0.4-1.3-0.8-2-1.1c0-0.5,0-1,0-1.5c0-0.3-0.4-0.3-0.4,0c0,0.4,0,0.9,0,1.3l-1-0.6
			c-0.1-0.4-0.2-0.8-0.2-1.2c-0.1-0.3-0.5-0.2-0.4,0.1l0.2,0.9c-0.3-0.2-0.6-0.4-1-0.6c0,0,0,0-0.1,0c-0.2-0.1-0.5,0.2-0.2,0.3
			c0.4,0.2,0.7,0.4,1.1,0.6c-0.3,0.1-0.6,0.2-0.9,0.3c-0.3,0.1-0.1,0.5,0.2,0.4c0.4-0.1,0.8-0.3,1.2-0.4c0.3,0.2,0.7,0.4,1,0.6
			c-0.4,0.2-0.7,0.4-1.1,0.7c-0.2,0.1-0.1,0.5,0.2,0.4c0.4-0.3,0.9-0.5,1.3-0.8l1.8,1.1l0,0c0,0,0.1,0,0.1,0.1l0,0c0,0,0,0-0.1,0
			c-0.6,0.4-1.3,0.7-1.9,1.1c-0.4-0.3-0.9-0.5-1.3-0.8c-0.2-0.1-0.5,0.2-0.2,0.3c0.4,0.2,0.8,0.5,1.1,0.7c-0.3,0.2-0.7,0.4-1,0.6
			l-1.2-0.4c-0.3-0.1-0.4,0.3-0.1,0.4l0.9,0.3c-0.3,0.2-0.6,0.4-1,0.6c0,0,0,0-0.1,0c-0.2,0.1-0.1,0.5,0.2,0.4
			c0.4-0.2,0.7-0.4,1.1-0.6c-0.1,0.3-0.1,0.6-0.2,0.9c0,0.3,0.4,0.3,0.4,0l0.2-1.2c0.3-0.2,0.7-0.4,1-0.6c0,0.4,0,0.9,0,1.3
			c0,0.3,0.4,0.3,0.4,0c0-0.5,0-1,0-1.6c0.7-0.4,1.3-0.8,2-1.1v2.3c-0.4,0.3-0.9,0.5-1.3,0.7c-0.2,0.1-0.1,0.5,0.2,0.4
			c0.4-0.2,0.8-0.4,1.2-0.6v1.2c-0.3,0.3-0.6,0.6-1,0.8c-0.2,0.2,0.1,0.5,0.3,0.3s0.5-0.4,0.7-0.6v1.2c0,0.3,0.4,0.3,0.4,0v-1.2
			c0.2,0.2,0.5,0.4,0.7,0.6s0.4-0.2,0.2-0.3c-0.3-0.3-0.6-0.5-0.9-0.8V99c0.4,0.2,0.7,0.4,1.1,0.6c0.2,0.1,0.5-0.2,0.2-0.3
			c-0.5-0.3-0.9-0.5-1.4-0.8v-2.3c0.6,0.4,1.3,0.8,2,1.1c0,0.5,0,1,0,1.5c0,0.3,0.4,0.3,0.4,0c0-0.4,0-0.9,0-1.3l1,0.6
			c0.1,0.4,0.2,0.8,0.2,1.2c0.1,0.3,0.5,0.2,0.4-0.1c-0.1-0.3-0.1-0.6-0.2-0.9l1,0.6c0,0,0,0,0.1,0
			C224.1,99.3,224.4,98.9,224.2,98.8"/>
	</g>
	<g>
		<defs>
			<rect id="SVGID_151_" y="0" width="279.1" height="277.2"/>
		</defs>
		<clipPath id="SVGID_152_">
			<use xlink:href="#SVGID_151_"  style="overflow:visible;"/>
		</clipPath>
		<path class="st62" d="M229.1,70.1C227.3,70.6,227.5,71,229.1,70.1 M234.2,72.3C234.6,74.2,235.1,74,234.2,72.3 M236.3,67.3
			C238.2,66.8,238,66.3,236.3,67.3 M231.3,65.1C230.9,63.2,230.4,63.4,231.3,65.1 M234.3,65.1C235.3,63.5,234.8,63.3,234.3,65.1
			 M234.3,65.1c-0.3,0.5-0.8,1.2-1.5,2.1c-0.7-0.9-1.1-1.6-1.4-2.1c0.1,0.6,0.3,1.5,0.4,2.5c-1.1-0.1-1.9-0.3-2.5-0.5
			c0.5,0.3,1.2,0.8,2.1,1.5c-0.9,0.7-1.6,1.1-2.1,1.4c0.6-0.1,1.5-0.3,2.6-0.4c-0.1,1.1-0.3,1.9-0.5,2.5c0.3-0.5,0.8-1.2,1.5-2.1
			c0.7,0.9,1.1,1.6,1.4,2.1c-0.1-0.6-0.3-1.5-0.4-2.5c1.1,0.1,1.9,0.3,2.5,0.5c-0.5-0.3-1.2-0.8-2.1-1.5c0.9-0.7,1.6-1.1,2.1-1.4
			c-0.6,0.2-1.5,0.3-2.6,0.4C233.9,66.6,234.1,65.8,234.3,65.1 M231.2,72.3C230.2,73.9,230.7,74.1,231.2,72.3 M229.2,67.2
			C227.5,66.2,227.3,66.6,229.2,67.2 M236.3,70.2C237.9,71.2,238.1,70.8,236.3,70.2"/>
	</g>
	<g>
		<defs>
			<rect id="SVGID_153_" y="0" width="279.1" height="277.2"/>
		</defs>
		<clipPath id="SVGID_154_">
			<use xlink:href="#SVGID_153_"  style="overflow:visible;"/>
		</clipPath>
		<path class="st63" d="M229.9,71.3C228.3,72.4,228.6,72.8,229.9,71.3 M235.3,71.6C236.4,73.1,236.8,72.8,235.3,71.6 M235.6,66.1
			C237.2,65,236.8,64.6,235.6,66.1 M230.1,65.8C229,64.3,228.7,64.6,230.1,65.8 M232.9,64.8C233.3,62.9,232.8,62.9,232.9,64.8
			 M232.9,64.8c-0.1,0.6-0.3,1.5-0.7,2.5c-0.9-0.6-1.6-1.1-2.1-1.5c0.4,0.5,0.8,1.3,1.3,2.2c-1.1,0.3-1.9,0.4-2.5,0.4
			c0.6,0.1,1.5,0.3,2.5,0.7c-0.6,0.9-1.1,1.6-1.5,2.1c0.5-0.4,1.3-0.8,2.2-1.3c0.3,1.1,0.4,1.9,0.4,2.5c0.1-0.6,0.3-1.5,0.7-2.5
			c0.9,0.6,1.6,1.1,2.1,1.5c-0.4-0.5-0.8-1.3-1.3-2.2c1.1-0.3,1.9-0.4,2.5-0.4c-0.6-0.1-1.5-0.3-2.5-0.7c0.6-0.9,1.1-1.6,1.5-2.1
			c-0.5,0.4-1.3,0.8-2.2,1.3C233.1,66.3,233,65.5,232.9,64.8 M232.5,72.6C232.2,74.4,232.7,74.5,232.5,72.6 M228.9,68.5
			C227,68.2,227,68.7,228.9,68.5 M236.6,68.9C238.5,69.2,238.5,68.7,236.6,68.9"/>
	</g>
	<g>
		<defs>
			<rect id="SVGID_155_" y="0" width="279.1" height="277.2"/>
		</defs>
		<clipPath id="SVGID_156_">
			<use xlink:href="#SVGID_155_"  style="overflow:visible;"/>
		</clipPath>
	</g>
	<g>
		<defs>
			<rect id="SVGID_157_" y="0" width="279.1" height="277.2"/>
		</defs>
		<clipPath id="SVGID_158_">
			<use xlink:href="#SVGID_157_"  style="overflow:visible;"/>
		</clipPath>
	</g>
	<g>
		<defs>
			<rect id="SVGID_159_" y="0" width="279.1" height="277.2"/>
		</defs>
		<clipPath id="SVGID_160_">
			<use xlink:href="#SVGID_159_"  style="overflow:visible;"/>
		</clipPath>
	</g>
</g>
<line class="st64" x1="171.9" y1="266.3" x2="171.9" y2="266.3"/>
</svg>
