<?xml version="1.0" encoding="utf-8"?>
<!-- Generator: Adobe Illustrator 20.1.0, SVG Export Plug-In . SVG Version: 6.00 Build 0)  -->
<svg version="1.1" id="Layer_1" xmlns="http://www.w3.org/2000/svg" xmlns:xlink="http://www.w3.org/1999/xlink" x="0px" y="0px"
	 viewBox="0 0 298.6 296" style="enable-background:new 0 0 298.6 296;" xml:space="preserve">
<style type="text/css">
	.st0{fill:#F47821;}
</style>
<g>
	<path class="st0" d="M53.5,183.7c0,7.8-1.1,14.3-3.3,19.5l-1.6,1.6c-1.2,1.2-2.3,3.4-3.2,6.5c-3.1,3.5-9.6,7.3-19.4,11.4
		c-1.5-0.7-3,0.5-4.4,3.4c-0.3,0.7-0.4,1.1-0.4,1.4v17.9c0,3.2-2.9,4.9-8.8,4.9c-4.9,0-7.9-0.4-9-1.2c-0.9-0.8-1.5-2.5-1.7-5.3
		c-0.1-1.1-0.2-2.4-0.2-4c0-1.6-0.1-3.4-0.1-5.6l-0.8-21.6c-0.2-5.6-0.4-11-0.5-16.3C0,190.9,0,185.7,0,180.5
		c0-11.5,0.5-19.1,1.6-22.8c0.4-1.5,1.5-2.7,3.2-3.6c2.3-1.1,5.3-1.6,9-1.6c8.7,0,15.2,0.8,19.5,2.3c6.4,2.3,11.3,6,14.8,11.1
		C51.7,171,53.5,176.9,53.5,183.7z M34.2,186.2c0-11.5-3-17.2-9.1-17.2c-0.5,0-1.3,0.5-2.4,1.4c-1,0.9-1.6,1.6-1.6,2v32.1
		c4.5,0,7.9-2,10.3-6C33.3,195.3,34.2,191.2,34.2,186.2z"/>
	<path class="st0" d="M129.3,210.7c0,6.6-0.7,12.2-2.1,16.9c-2.2,7.4-6,13.1-11.4,17c-5.4,3.9-12.1,5.8-19.9,5.8
		c-10.7,0-19.4-3.6-26.3-10.7c-6.9-7.2-10.4-16.1-10.4-26.6c0-8.2,2-15.5,5.9-21.8c4-6.3,9.7-11,17-14h4.6c1,0,1.9-0.1,2.7-0.1
		c0.7,0,1.4,0,1.9,0c10,0,18.1,1.9,24.3,5.6c5.5,3.3,9.6,8.4,12.3,15.3c0.9,2.1,1.3,3.3,1.3,3.6
		C129.3,202.8,129.3,205.8,129.3,210.7z M110,212.1c0-4.8-1.4-9-4.2-12.6c-3.1-4.1-6.9-6.2-11.5-6.2c-4.5,0-8.2,1.8-11.2,5.5
		c-2.9,3.6-4.3,7.8-4.3,12.4c0,13.2,5.5,19.8,16.5,19.8c4.4,0,8-2.1,10.8-6.4C108.7,221,110,216.9,110,212.1z"/>
	<path class="st0" d="M283,210.7c0,6.6-0.7,12.2-2.1,16.9c-2.2,7.4-6,13.1-11.4,17c-5.4,3.9-12.1,5.8-19.9,5.8
		c-10.7,0-19.4-3.6-26.3-10.7c-6.9-7.2-10.4-16.1-10.4-26.6c0-8.2,2-15.5,5.9-21.8c4-6.3,9.7-11,17-14h4.6c1,0,1.9-0.1,2.7-0.1
		c0.7,0,1.4,0,1.9,0c10,0,18.1,1.9,24.3,5.6c5.5,3.3,9.6,8.4,12.3,15.3c0.9,2.1,1.3,3.3,1.3,3.6C282.9,202.8,283,205.8,283,210.7z
		 M263.7,212.1c0-4.8-1.4-9-4.2-12.6c-3.1-4.1-6.9-6.2-11.5-6.2c-4.5,0-8.2,1.8-11.2,5.5c-2.9,3.6-4.3,7.8-4.3,12.4
		c0,13.2,5.5,19.8,16.5,19.8c4.4,0,8-2.1,10.8-6.4C262.3,221,263.7,216.9,263.7,212.1z"/>
	<path class="st0" d="M175.6,182.9c-0.5,0.3-6.1,1.1-10.7,1.4c-0.3,0-18.6,0.3-9.2,14.2l4.2,6c0.1,0.4,4.3,4.2,4.4,4.5
		c0.1,0.3,4.7,6.2,4.7,6.4c2.7,3.6,0.5,0.9,2.1,3.4c1.6,2.6,0.4,0.7,2,3.2c0.4,0.6,3.1,5.1,3.4,7.3c0.6,4.8-0.2,2.9-0.8,6.1
		c-0.9,5-1.9,11-6,14c-4,3-3.9,5.5-9.2,6.1c-2.3,0.3-11.8,5-25.4-4.2c-0.5-0.4-10.5-6.6-4.6-11.6c4.5-3.9,5.1-5.2,9.7-2.8
		c4.5,2.3,10.6,3.9,11.8,3.6c5.3-1.6,5.2-2.4,6.5-5.3c1.1-2.6-1-9.7-7.4-15c-2.7-2.3-3.1-3.3-5.9-8.8c-2.9-5.5-6.4-11.6-6.8-14.7
		c-0.9-7.4,2.3-16.5,8.5-20.4c6.3-3.9,10-6.5,17.1-7.3c2.6-0.3,10.7,0.3,11.1,0.4C177.4,170.1,177.6,181.5,175.6,182.9z"/>
	<path class="st0" d="M204.8,117.2c5.7-21.5,35.8,4.5,48.7,3c1.9-0.2,2-3.3,0-3.1c-4.5,0.5-9.1-1.6-13.2-3.3
		c-5.3-2.2-10.6-4.6-16.1-6.4c-4.4-1.4-9.4-2.5-14-1.1c-4.7,1.4-7.2,5.7-8.3,10.1C201.4,118.3,204.3,119.1,204.8,117.2"/>
	<path class="st0" d="M203,103.1c1.4-3.8,2.1-7.9,4.1-11.5c2.8-5.1,7.6-1.5,10.3,1.8c2.5,3,7.1,5.2,10.4,1.8c3-3.1-1-6-3.9-6.2
		c-2-0.1-2,2.9,0,3.1c1.8,0.1,2.2,1.2,0.3,1.8c-1.5,0.4-2.8-0.6-3.7-1.5c-1.3-1.3-2.3-2.8-3.9-4c-2.4-1.7-5.7-3.4-8.6-1.9
		c-5.3,2.8-6.1,10.9-7.9,15.9C199.3,104.2,202.3,104.9,203,103.1"/>
	<path class="st0" d="M216.6,75.3c3.2,0.7,5.7-0.5,6.1-3.9c0.5-3.9-3.2-6.1-6.5-6.8c-8.6-1.8-15.2,6.2-20.7,11.3
		c-1.4,1.3,0.7,3.5,2.2,2.2c3.5-3.3,6.7-6.9,11-9.2c2.6-1.4,5.5-1.8,8.3-0.9c2.4,0.7,4.2,5.2,0.4,4.4
		C215.5,71.9,214.7,74.8,216.6,75.3"/>
	<path class="st0" d="M193.2,79.1c-1.5-4.3-3.5-8.5-5.9-12.3c-2.2-3.5-5.1-7.5-9.4-8.5c-10.4-2.5-8.5,10.9-11.5,16.4
		c-1.9,3.5-7.1,4.9-10,7.2c-2.7,2.1-5,6.1-2.4,9.3c2,2.4,7.7,5.8,10.9,4c4.9-2.8,1.7-7.6-2.8-8.3c-1.9-0.3-2.8,2.6-0.8,2.9
		c1,0.2,1.9,0.4,2.7,1.1c0,1.3-0.5,1.8-1.3,1.6c-0.5-0.1-1-0.2-1.5-0.3c-1.7-0.5-3.4-1.4-4.6-2.7c-2.5-2.5,2.1-5.5,3.8-6.5
		c2.4-1.5,4.9-2.7,7-4.5c2-1.7,2.8-4.2,3.3-6.6c0.6-2.7,0.8-5.5,1.7-8.1c1.3-3.5,5.2-3,7.6-1.1c5.1,4,8.1,11.4,10.2,17.3
		C190.9,81.7,193.9,80.9,193.2,79.1"/>
	<path class="st0" d="M193.8,106c-0.9-3.1-2.8-7.2-6.5-7.2c-4.1,0-4.8,5.6-4.9,8.5c-0.2,4.9-3.6,7.6-7.8,9.6
		c-1.8,0.9-4.7,1.6-6.1-0.3c-1.2-1.7,1.6-4.3,1.9-1.9c0.3,1.9,3.2,1.1,2.9-0.8c-0.5-4-5.2-4.1-7.3-1.2c-2.7,3.9,0.8,7.8,4.8,8.1
		c4.6,0.4,9.7-3.6,12.5-6.9c1.6-1.9,1.9-4.3,2.1-6.7c0-0.9,0.2-6.6,2.7-5.3c1.5,0.8,2.3,3.2,2.7,4.7
		C191.4,108.7,194.3,107.9,193.8,106"/>
	<path class="st0" d="M193.2,63.6c-4.3-0.1-5.1-5.8-6-9.1c-1.1-3.8-2.4-7.9-5.9-10c-3.4-2-9.1-1.5-11.5,1.8
		c-2.4,3.3-1.1,7.5-2.9,10.9c-2.1,4.2-8.5-1.2-11.7,0.1c-2.1,0.8-2.8,3.4-3,5.4c-0.1,1.1,1.1,5.3,0.2,5.9c-3.7,2.6-9.3-0.6-12.3,3.6
		c-1,1.5-0.8,4.2,0.4,5.5c1.8,2,4.5,2.9,7,3.2c3.8,0.4,6.5-3.1,4.8-6.5c-0.9-1.7-3.6-0.2-2.6,1.5c1.3,2.4-3,1.8-3.7,1.6
		c-1.6-0.4-3.3-1.2-3.3-3.1c-0.1-2.1,4.1-1.8,5.4-1.8c3.1-0.1,8-0.9,7.8-4.9c-0.1-2.3-0.8-4-0.2-6.3c0.6-2.5,3.7-0.5,5.2,0
		c3.4,1.2,7.6,0.1,9.1-3.3c1.3-3.1,0.5-6.9,2.3-9.8c1.2-1.9,4.2-2,6.1-1.6c2.1,0.4,3.3,2,4.3,3.8c2.9,5.5,2.3,16,10.7,16.3
		C195.2,66.7,195.2,63.6,193.2,63.6"/>
	<path class="st0" d="M194.7,36.8c0.9-6.2-4.1-9.2-9.8-8.4c-2.6,0.4-5,2-6.4,4.2c-0.8,1.2-0.9,3.1-1.3,4.5c-1,3.8-5.7,0-2.4-2.1
		c1.7-1,0.1-3.7-1.5-2.6c-2.7,1.7-3.6,5.1-1.6,7.7c1.8,2.4,6,2.5,7.6-0.2c0.8-1.4,1.1-2.9,1.5-4.4c0.5-2,2-3.2,3.9-3.8
		c3.3-1.1,7.8,0.2,7.2,4.4C191.5,37.9,194.4,38.7,194.7,36.8"/>
	<path class="st0" d="M204.3,24c2-4-0.6-9.2-5.4-8.4c-2.1,0.4-2.6,2.6-2.8,4.3c-0.1,1.4,0.1,3.2-1.8,3.3c-0.8,0-1.6-0.4-2.2-0.8
		c-0.5-0.3-0.9-0.7-1.2-1.2c-0.5-1.1-0.2-1.4,0.8-1.1c0.7,1.8,3.7,1,2.9-0.8c-1.1-2.6-3.7-3.9-5.9-1.7c-2.5,2.4-0.4,5.8,1.8,7.4
		c2.5,1.8,6.2,1.6,7.9-1.1c0.7-1.1,0.7-2.8,0.7-4.1c0.2-3,3.8-0.1,2.5,2.5C200.8,24.2,203.4,25.8,204.3,24"/>
	<path class="st0" d="M208.6,21.7c2.2-0.8,4.3-1.7,6.6-1c1.1,0.3,0.1,0.9-0.4,1.7c-0.5,0.7-0.8,1.5-1.1,2.3c-0.8,2.6,0,5.7,2.8,6.6
		c4.1,1.3,10.4-3.9,6.7-7.9c-1.3-1.4-3.5,0.7-2.2,2.2c1.1,1.2-1.8,2.5-2.6,2.7c-3.1,0.9-1.6-3.5-0.7-4.8c1.1-1.6,2.1-3.8-0.2-5
		c-3.3-1.8-6.4-1-9.8,0.3C206,19.4,206.8,22.4,208.6,21.7"/>
	<path class="st0" d="M203,52.9c0.3-4.1,3.8-5.4,7.4-5.4c3.9,0,7.2,1.5,9.7,4.4c5.9,6.7,5.3,17.6,7.9,25.6c1.1,3.5,3.2,7.1,6.9,8.3
		c3.7,1.2,7.9-0.3,9.5-4c2.3-5.6-7-7.7-6.2-2.2c0.3,1.9,3.2,1.1,2.9-0.8c0.1,1-0.8,0.2,0.2,0.6c0.5,0.2,0.5,0.6,0.4,1.1
		c-0.8,3.3-4.9,3.1-7,1.8c-3.5-2.1-4.3-7.3-5.1-10.9c-1.5-6.9-2.1-14.1-6.1-20.1c-3.1-4.7-8.1-6.8-13.6-6.8c-5.2,0-9.4,3.1-9.8,8.4
		C199.8,54.9,202.9,54.8,203,52.9"/>
	<path class="st0" d="M202.8,83.2c1.5-2.4,3.3-4.7,6.4-4.8c2.7-0.1,4.1,2.2,5.7,4c2.4,2.8,5.3,3.2,7.9,0.4c1.3-1.4-0.8-3.6-2.2-2.2
		c-2.1,2.2-3.4-0.2-4.8-1.9c-1.3-1.6-2.6-2.5-4.5-3.1c-4.8-1.6-8.8,2.3-11.1,6C199.2,83.3,201.8,84.9,202.8,83.2"/>
	<path class="st0" d="M229.3,81.9C228.4,94.5,242.8,99.1,253,97c4.9-1,11.6-7.4,5.3-11.5c-3.8-2.5-9.7,0.8-6.3,5.1
		c1.2,1.5,3.4-0.6,2.2-2.2c-0.9-1.1,1.9-0.7,2.6-0.3c3.6,1.6-2,5.2-3.4,5.6c-3,1-6.4,0.9-9.5,0.4c-6.4-1.1-12-5.2-11.5-12.3
		C232.5,80,229.5,80,229.3,81.9"/>
	<path class="st0" d="M239.3,42.7c1.8-1.6,7.3-3.4,6.3,1.2c-0.4,1.9-0.7,3.1,0.1,4.9c1.4,3,6.1,4.9,9.1,3.4
		c5.5-2.7,2.4-11.6-3.4-7.9c-1.7,1-0.1,3.7,1.5,2.6c1.1-0.7,1.8-0.6,1.8,0.7c0.1,2.1-2.5,2.1-3.9,1.8c-4.7-1.3-1-5.4-2.5-8.4
		c-2.4-4.6-8.1-3.5-11.4-0.5C235.6,41.8,237.8,44,239.3,42.7"/>
	<path class="st0" d="M211.1,17.3c2.8-2.3,6.3-4.3,10-3.4c3.2,0.8,5.5,3.8,7.2,6.5c4,6.4,6,14.2,7.9,21.5c1.9,7.3,3,15.3,9.8,19.7
		c5,3.2,26.5,7.3,18.6,17.2c-1.2,1.5,0.9,3.7,2.2,2.2c7.5-9.5-4.6-16.6-12.6-19.4c-5.6-1.9-9.8-3.7-12.1-9.5
		c-1.6-4-2.3-8.4-3.3-12.5c-2.1-8.2-4.6-16.8-9.8-23.6c-5.6-7.1-13.4-6.1-19.9-0.8C207.4,16.4,209.6,18.5,211.1,17.3"/>
	<path class="st0" d="M254.4,50.1c0.1,5.9,9.2,5.1,11.4,1.1c0.6-1.1-0.2-2.2-1.3-2.3c-5.4-0.5-8.6,8.5-4.9,11.9
		c2.8,2.6,11.3,5.5,13.5,0.8c0.3-0.6,0.3-1.4-0.2-1.9c-1.7-1.4-3.2-1.9-5.4-1.7c-1.9,0.2-2,3.3,0,3.1c1.1-0.3,2.2,0,3.2,0.8
		c-0.1-0.6-0.2-1.2-0.2-1.9c-1.1,2.3-6.1,0.1-7.6-0.7c-1.5-0.8-2.1-1.5-1.8-3.2c0.3-1.6,1.5-4.4,3.4-4.2c-0.4-0.8-0.9-1.5-1.3-2.3
		c-0.8,1.3-5.7,2.8-5.7,0.5C257.4,48.2,254.3,48.2,254.4,50.1"/>
	<path class="st0" d="M260,96.6c-3.4-1.3-6.5-1.1-7.7,2.7c-0.5,1.6-0.6,3.2-1.4,4.6c-0.6,1-1.6,1.8-2.8,1.5c-1.2-0.3-0.9-1.3,0-1.6
		c1.9-0.6,1.1-3.5-0.8-2.9c-5.8,1.8-2.3,9.1,2.9,7.4c2.6-0.8,3.8-3.5,4.5-5.9c0.3-1,0.4-2.2,0.9-3.1c0.6-1.1,2.9,0,3.6,0.3
		C261,100.3,261.8,97.3,260,96.6"/>
	<path class="st0" d="M271,102c-2.7-1.8-4.9-0.9-6.3,1.9c-0.6,1.2-1,2-2.1,2.7c-0.8,0.4-2.6-0.3-1.3-0.4c1.9-0.2,2-3.3,0-3.1
		c-1.9,0.2-3.7,1.2-3.5,3.4c0.1,2.1,2.1,3.3,4,3.4c2,0,3.9-1.4,4.8-3c0.5-0.8,0.8-1.6,1.2-2.4c0.4-0.7,1-0.1,1.6,0.3
		C271.1,105.7,272.7,103.1,271,102"/>
	<path class="st0" d="M213.4,45.2c0-1.5,0-3,0.6-4.4c0.9-1.9,1.5-0.5,2.2,0.3c0.5,0.6,1,0.9,1.5,1.5c0.5,0.7,1.1,1.3,1.9,1.7
		c2,1.1,4.3-0.3,5.5-1.9c1.5-2,0.2-4.6-1.4-5.9c-1.5-1.2-3.7,0.9-2.2,2.2c1.1,0.9,1.8,2.8-0.4,3c-0.5,0-1-1-1.3-1.3
		c-0.4-0.6-0.9-0.9-1.4-1.3c-0.6-0.6-1-1.3-1.7-1.9c-1.5-1.1-3.8,0.3-4.7,1.4c-1.6,1.8-1.6,4.5-1.6,6.8
		C210.4,47.2,213.4,47.2,213.4,45.2"/>
	<path class="st0" d="M261.1,82.5c-1.6,0.1-3.1-0.6-3.3-2.3c-0.3-2.4,3.1-1.8,4.4-1.5c2.6,0.6,4.2,2.5,7,2.2
		c2.1-0.2,3.5-1.9,5.1-3.1c2.6-2,7.8-2.1,10.7-0.8c1.8,0.8,2.5,3.5,0.7,4.7c-1.3,0.9-3.6,0.5-2.2-1.3c1.2-1.6-1.5-3.1-2.6-1.5
		c-4,5.2,4.3,8.3,7.7,4.3c1.9-2.3,1.4-5.6-0.5-7.7c-2.1-2.2-5.9-2.4-8.7-2.3c-3.5,0.2-6.1,1.3-8.8,3.6c-2.5,2.2-5.1-0.2-7.7-1.2
		c-1.6-0.6-3.8-0.6-5.4,0c-2.4,0.9-3.2,3.3-2.7,5.7c0.6,2.8,3.5,4.3,6.2,4.2C263.1,85.5,263.1,82.4,261.1,82.5"/>
	<path class="st0" d="M268.1,76.7c0.1-0.5,0-0.6-0.4-0.2c0.2,0,0.4,0.1,0.6,0.2c0.9,0.3,2-0.5,1.9-1.5c0-1.1,2-3.2,2.6-1.5
		c0.4,1.2-3,1.2-3.8,1.5c-1.8,0.7-1,3.7,0.8,2.9c1.5-0.6,3.2-0.4,4.7-1.3c1.8-1.1,1.8-3.5,0.8-5.1c-2.4-4-8.2-0.2-8,3.5
		c0.6-0.5,1.3-1,1.9-1.5c-2.3-0.8-4.1,0.5-4,3C265.1,78.7,268.2,78.7,268.1,76.7"/>
	<path class="st0" d="M258.3,73.8c0.7-2.7,6-0.6,7.2,0.7c1.4,1.4,3.6-0.8,2.2-2.2c-3-3-10.9-4.7-12.3,0.7
		C254.8,74.9,257.8,75.7,258.3,73.8"/>
	<path class="st0" d="M166.5,111.8c-3.9-2.2-1-4.4,1.7-5.8c1.9-1,4.2-0.8,6-1.8c1.4-0.7,2.7-2.5,2.1-4.2c-0.7-2.1-2.3-2.9-4.4-3.1
		c-2-0.2-1.9,2.9,0,3.1c1,1.1,1,1.7-0.1,1.8c-0.4,0.1-0.9,0.2-1.3,0.3c-0.9,0.2-1.8,0.4-2.7,0.8c-1.8,0.8-3.4,1.8-4.7,3.1
		c-3.2,3.1-1.4,6.6,1.9,8.5C166.7,115.4,168.2,112.7,166.5,111.8"/>
	<path class="st0" d="M115.3,116.7c-0.1,0.8-0.4,1.5-0.9,2.1c-1.1,1.3-1.4-2.8-1.3-2.9c0.3-1.4,2-2.5,3.1-3.2
		c1.4-0.9,2.8-1.6,4.3-2.3c3.6-1.6,10.2-3.8,10.7,2.1c0.2,2,3.2,2,3.1,0c-0.8-10-11.3-6.7-17.4-3.8c-3.3,1.6-7.8,4.8-6.8,9.1
		c1.4,5.6,7.1,5.1,8.2-0.4C118.7,115.6,115.7,114.7,115.3,116.7"/>
	<path class="st0" d="M191.2,175.2c8-10.3,3.5-26.6,3.3-39.4c-0.1-6.6-0.7-13.3-1-19.9c-0.3-7,0.3-13.9,0.7-20.8
		c0.5-8.1,0.8-16.2,0.8-24.4c0-7.9,0-15.9-0.9-23.7c-0.4-3.1-1-6.4-0.4-9.5c0.6-3,4.5-5.2,6.5-7.4c3.9-4.3,5.1-10.1,10.8-12.6
		c1.8-0.8,0.2-3.4-1.5-2.6c-5.2,2.3-7.2,7.1-10.2,11.5c-1.6,2.4-3.9,4.2-6,6.1c-2,1.9-2.7,4.5-2.8,7.2c-0.2,3,0.5,6,0.8,8.9
		c0.4,4.2,0.5,8.5,0.6,12.8c0.3,8.6,0.2,17.1-0.2,25.7c-0.3,7.4-1.2,14.9-1.3,22.3c-0.1,6.6,0.5,13.2,0.9,19.8
		c0.8,13.9-0.3,21.6-0.7,38c0,1.9-1,11.9,0.2,10.4"/>
	<path class="st0" d="M204,175c-3-9.1,1.8-16,1-20.6c-1.3-7.2-0.1-14-0.5-21.3c-0.4-7.2,0.7-14.4-0.2-21.7
		c-0.9-7.2-1.3-14.3-1.2-21.6c0.1-13.5,1.1-26.7-1.1-40.1c-1.2-7-2.4-15.2,0.6-21.9c2-4.4,7.2-6.1,9.2-10.7c0.8-1.8-1.9-3.3-2.6-1.5
		c-2,4.5-6.8,6.5-9.2,10.7c-3.2,5.6-2.4,13.5-1.7,19.6c0.9,6.9,2.1,13.5,2.2,20.4c0.1,7.5-0.3,14.9-0.5,22.4c-0.1,6.9,0,13.9,1,20.8
		c1.1,7.9,0.3,15.6,0.5,23.6c0.2,6.8-3.8,13.8-2.7,20.5c1.2,7.5-5.8,15.8-3.5,23c0.6,1.9,8.8-1.5,8.1-3.4"/>
	<path class="st0" d="M145.6,79.5c2.7,3.6-0.6,5.6-4,3.7c-3.1-1.7-4.3-4-8.5-3.7c-0.9,5.7,16.7,1.7,15.5,6.6c-2.8,0.1-5.7,0.1-8.5,0
		c-3.4-0.1-5.7-1.6-8.8-2.2c-3-0.5-5.7,1.4-1.9,2.5c2.1,0.6,10-1,9.9,2.1c0,1.1-2.9,1.4-3,2.7c-0.2,1.8,1.9,1.8,3.3,2
		c2,0.3,7.4-0.1,3.4-2.4c-2.9-1.6-6.4,0.3-8.4,1.1c-4.5,1.9-5.9-0.6-9.6-0.9c-3.4-0.3-4.4,3-7.3,3.7c-2.1,0.5-5-0.5-6.6,1.8
		c-1.5,2.1-0.2,4.4,2.6,4.7c1.4,0.1,2.3-0.9,3.6-0.9c2.1,0,1.8,0.9,3.3,1.3c2.9,0.9,4.2,0.3,6.5-0.8c2.1-1,3.8-2.3,6.2-2.1
		c1.2,0.1,2.8,1.6,4.2,0.9c4.8-2.2-3.3-2.5-3.9-2.8c-3.7-1.9,0.4-3.8,1.8-5.2"/>
	<path class="st0" d="M145.6,79.5c2.7,3.6-0.6,5.6-4,3.7c-3.1-1.7-4.3-4-8.5-3.7c-0.9,5.7,16.7,1.7,15.5,6.6c-2.8,0.1-5.7,0.1-8.5,0
		c-3.4-0.1-5.7-1.6-8.8-2.2c-3-0.5-5.7,1.4-1.9,2.5c2.1,0.6,10-1,9.9,2.1c0,1.1-2.9,1.4-3,2.7c-0.2,1.8,1.9,1.8,3.3,2
		c2,0.3,7.4-0.1,3.4-2.4c-2.9-1.6-6.4,0.3-8.4,1.1c-4.5,1.9-5.9-0.6-9.6-0.9c-3.4-0.3-4.4,3-7.3,3.7c-2.1,0.5-5-0.5-6.6,1.8
		c-1.5,2.1-0.2,4.4,2.6,4.7c1.4,0.1,2.3-0.9,3.6-0.9c2.1,0,1.8,0.9,3.3,1.3c2.9,0.9,4.2,0.3,6.5-0.8c2.1-1,3.8-2.3,6.2-2.1
		c1.2,0.1,2.8,1.6,4.2,0.9c4.8-2.2-3.3-2.5-3.9-2.8c-3.7-1.9,0.4-3.8,1.8-5.2"/>
	<path class="st0" d="M251,127.8c-1.8,1.1-7.2,0.8-8,2.7c-0.8,1.6,0.7,1.6,1,2.9c0.1,0.4-1.4,1-0.9,1.7c0.9,1.5,6.5,1.7,7.7,0.9
		c2.2-1.4,0.4-2.5,1.5-4.5c1.2-2.2,3.6-1.6,6.1-1.5c0.8,2.8-2.3,2.3-2.4,3.9c-0.2,3.3,4.6-0.1,5.4-0.2c7.6-1.7,2.5,5.4-0.4,6.9
		c-2.2,1.2-3.8-0.5-5.8,0.4c-3.1,1.5-1.4,3,1.2,3.6c1.6,0.4,7.8-0.3,4.9,3.1c-1.5,1.8-6.1,0.3-8.2,0.3c-0.5,4.4,15.7,2.5,18.1,0.9
		c1.3-0.9,2.5-3.3,3.9-3.9c1.6-0.6,3.2,0.5,4.6,0.6c2.6,0,11.7-0.8,10.6-4.5c-1.9-0.1-13.3,2-12.2-1.6c1-3.1,9.3-2.4,11.8-2.4
		c1.4,0,6.7,0.9,8.1,0c3.7-2.2-5.1-4.3-6.6-4.6c-3-0.8-6.2-1.4-9.2-0.2c-1.9,0.8-3.2,2.7-5.5,2.4c-2.2-9.2,15.7-5.4,19.9-8.2
		c-2.1-2-9.6-2.7-12.4-1.7c-2.5,0.9-4.4,3.4-7.5,2.6c-4.2-1.1-1.5-3.6,1.6-4c1.9-0.2,5.1,0.7,4.5-2.4c-2.6-0.1-5.3,0-7.9-0.1
		c0.6-1.9,3-0.9,3.3-3c0.4-2.5-2.4-3.7-4.5-3c-1.8,0.6-4.2,5.7-6.7,3.9c-2.2-1.6,0.7-3.1,0.2-4.5c-0.7-1.8-3.8-1.7-5.3-0.4
		c-2.2,1.9,2.6,9.2-2.9,7.7c-1.5-0.4-2.4-3.1-4-2.9c-3.3,0.4-0.1,2.8-0.1,3.8C254.7,124,252.5,126.8,251,127.8"/>
	<path class="st0" d="M251,127.8c-1.8,1.1-7.2,0.8-8,2.7c-0.8,1.6,0.7,1.6,1,2.9c0.1,0.4-1.4,1-0.9,1.7c0.9,1.5,6.5,1.7,7.7,0.9
		c2.2-1.4,0.4-2.5,1.5-4.5c1.2-2.2,3.6-1.6,6.1-1.5c0.8,2.8-2.3,2.3-2.4,3.9c-0.2,3.3,4.6-0.1,5.4-0.2c7.6-1.7,2.5,5.4-0.4,6.9
		c-2.2,1.2-3.8-0.5-5.8,0.4c-3.1,1.5-1.4,3,1.2,3.6c1.6,0.4,7.8-0.3,4.9,3.1c-1.5,1.8-6.1,0.3-8.2,0.3c-0.5,4.4,15.7,2.5,18.1,0.9
		c1.3-0.9,2.5-3.3,3.9-3.9c1.6-0.6,3.2,0.5,4.6,0.6c2.6,0,11.7-0.8,10.6-4.5c-1.9-0.1-13.3,2-12.2-1.6c1-3.1,9.3-2.4,11.8-2.4
		c1.4,0,6.7,0.9,8.1,0c3.7-2.2-5.1-4.3-6.6-4.6c-3-0.8-6.2-1.4-9.2-0.2c-1.9,0.8-3.2,2.7-5.5,2.4c-2.2-9.2,15.7-5.4,19.9-8.2
		c-2.1-2-9.6-2.7-12.4-1.7c-2.5,0.9-4.4,3.4-7.5,2.6c-4.2-1.1-1.5-3.6,1.6-4c1.9-0.2,5.1,0.7,4.5-2.4c-2.6-0.1-5.3,0-7.9-0.1
		c0.6-1.9,3-0.9,3.3-3c0.4-2.5-2.4-3.7-4.5-3c-1.8,0.6-4.2,5.7-6.7,3.9c-2.2-1.6,0.7-3.1,0.2-4.5c-0.7-1.8-3.8-1.7-5.3-0.4
		c-2.2,1.9,2.6,9.2-2.9,7.7c-1.5-0.4-2.4-3.1-4-2.9c-3.3,0.4-0.1,2.8-0.1,3.8C254.7,124,252.5,126.8,251,127.8z"/>
	<g>
		<path class="st0" d="M159.6,100.9l-0.6,0.6c2.3-0.5,2.4,2.1,0.9,3.1c-2,1.3-8.3-1.3-8.2,3c2.3-0.5,4-1.8,6.5-1.4
			c1.7,0.2,5.7,1.2,3.5,3.5c-1.5,1.6-7.6-0.1-6.6,4.4c3.1,0.2,4.8,0.4,7.6,1.9c1.1,0.6,7.8,3.5,3.7,5c-1.5,5.1,11,0.6,13.7,3.1
			c2.1,1.9-0.9,5.7-3.7,5.1c-1.3-0.3-1.3-1.8-2.5-2.3c-1.4-0.7-3.9-0.6-5.1,0c-0.1,0.6,0.1,1.8,0.3,2.4c2.5,0.1,6.7,3,5.1,5.5
			c-1.4,2.1-4.6,0.4-6.9-0.1c0-4.7-0.8-6.5-5.7-6c-0.6,2.2,4.9,6.3-0.8,6.1c-2.7-0.1-2.5-1.8-3.3-3.7c-0.9-2.3,0-2.8-3-4.5
			c-3-1.8-10.3-1.8-6.8,2.4c2.1,2.5,9,4.4,8.9,8.2c-4,0.1-12.8-2-15.8-4.9c-2.9-2.8-0.1-6.7-5.6-6.1c-2.8,0.3-4,2.3-6.7,2.8
			c-2,0.3-6.3-0.6-5.1-3.7c1-2.7,7-1.4,8.9-1.5c1.8-0.2,5.7-1.1,6-3.7c0.5-4.3-9.5,0.1-12.3-1.3c1.8-3,6.1-4.7,9.5-5.1
			c3-0.3,4.6,0.4,3.6-2.8c-0.5-1.5-2.1-1-1.1-3.3c0.8-1.6,2.1-1.9,3.9-1.5c2.3,0.4,3.4,3,6,2.4c1.1-4-7.2-3.6-1.4-7
			C150.9,98.6,155.4,102.5,159.6,100.9"/>
	</g>
	<path class="st0" d="M159.6,100.9c-4.2,1.6-8.8-2.3-13.1,0.3c-5.8,3.4,2.5,3,1.4,7c-2.6,0.6-3.7-2-6-2.4c-1.8-0.3-3.1-0.1-3.9,1.5
		c-1.1,2.3,0.6,1.8,1.1,3.3c1,3.2-0.5,2.4-3.6,2.8c-3.4,0.4-7.7,2.1-9.5,5.1c2.7,1.4,12.8-3,12.3,1.3c-0.3,2.6-4.2,3.5-6,3.7
		c-1.9,0.2-7.9-1.2-8.9,1.5c-1.2,3.1,3.1,4,5.1,3.7c2.7-0.5,3.9-2.5,6.7-2.8c5.5-0.6,2.7,3.2,5.6,6.1c2.9,2.9,11.7,5,15.8,4.9
		c0.1-3.8-6.8-5.6-8.9-8.2c-3.5-4.2,3.8-4.3,6.8-2.4c2.9,1.8,2,2.2,3,4.5c0.8,1.9,0.6,3.6,3.3,3.7c5.7,0.2,0.2-3.9,0.8-6.1
		c4.9-0.5,5.8,1.3,5.7,6c2.3,0.4,5.5,2.1,6.9,0.1c1.7-2.5-2.6-5.4-5.1-5.5c-0.2-0.5-0.4-1.8-0.3-2.4c1.2-0.6,3.7-0.6,5.1,0
		c1.1,0.5,1.2,2,2.5,2.3c2.7,0.7,5.8-3.1,3.7-5.1c-2.7-2.5-15.2,2-13.7-3.1c4.1-1.5-2.5-4.4-3.7-5c-2.8-1.5-4.5-1.7-7.6-1.9
		c-1-4.5,5.1-2.8,6.6-4.4c2.2-2.2-1.8-3.2-3.5-3.5c-2.5-0.3-4.2,0.9-6.5,1.4c0-4.3,6.3-1.7,8.2-3c1.5-1,1.4-3.6-0.9-3.1L159.6,100.9
		z"/>
	<path class="st0" d="M259.9,97.8c3.5,0.2,4-5.6,8.8-4.5c0.4,2.1-7.5,6.4,0.3,5c2.1-0.4,15.8-4.1,10.8,0.8c-0.7,0.7-4.1,0.6-1.7,2
		c1.4,0.8,3.7-0.5,4.7-0.6c1.6-0.2,5.1-0.3,3.7,2.2c-0.9,1.6-3.1,0.1-4,1.8c2.2,0.9,4.3-0.5,6.6-0.6c4.9-0.2,8.9,3.8,3.5,6.7
		c-3.1,1.7-7.8,1.8-10.8-0.1c-2.5-1.6-3.8-5.4-6.3-6.6c-1.6-0.8-3.8,0.4-5.1-0.1c-2.3-0.9-1.3-2.9-4.4-2.7c-2.2,0.1-9.2,2.7-5.8-3"
		/>
	<path class="st0" d="M259.9,97.8c3.5,0.2,4-5.6,8.8-4.5c0.4,2.1-7.5,6.4,0.3,5c2.1-0.4,15.8-4.1,10.8,0.8c-0.7,0.7-4.1,0.6-1.7,2
		c1.4,0.8,3.7-0.5,4.7-0.6c1.6-0.2,5.1-0.3,3.7,2.2c-0.9,1.6-3.1,0.1-4,1.8c2.2,0.9,4.3-0.5,6.6-0.6c4.9-0.2,8.9,3.8,3.5,6.7
		c-3.1,1.7-7.8,1.8-10.8-0.1c-2.5-1.6-3.8-5.4-6.3-6.6c-1.6-0.8-3.8,0.4-5.1-0.1c-2.3-0.9-1.3-2.9-4.4-2.7c-2.2,0.1-9.2,2.7-5.8-3"
		/>
	<path class="st0" d="M200.3,26c0,7.3-0.9,14.4-0.9,21.4c0,9.8,1.5,19.9,1.8,29.6c0.3,16.5,1.8,33,2.4,49.5c0.3,5.5-0.3,11-0.3,16.5
		c-0.3,10.7,7.2,94.4,8.1,104.2c-4.3,0.9-0.9-0.1-5.5,0.5c-4,0.3-20.3,1.1-24-0.8c1.5-8.9,11-94.2,11.9-103.3
		c0.6-7.6,0.6-15.3,0.6-22.9c0.3-10.4-0.9-21.4-0.9-31.8c0-4.3-2.1-7.9-2.4-12.2c-0.3-4.9,1.2-9.8,1.8-14.4
		C193.9,53.5,189.3,30,200.3,26"/>
	<path class="st0" d="M198.7,26c0,6-0.6,12-0.9,18.1c-0.2,6.1,0.2,12.1,0.7,18.2c1.1,13,1.3,26,2.1,39c0.8,13.2,1.5,26.3,1.1,39.5
		c-0.2,5.2,0.5,10,2.2,15c1.7,5.1-2.5,9.5-1.9,14.9c0.4-0.5-0.2-2.8,0.1-3.3c-3.7,0.6-0.1,2-3.8,1.9c-3.9-0.1-2.1-0.7-5.9-2.5
		c0.2,0.6,0.1,3.7,0.3,4.2c1.2-6.6,1.4-12.8,3.3-19.2c2.1-7.1-0.3-15.2-0.3-22.6c0.1-7.7,0.1-15.5-0.3-23.2
		c-0.2-3.8-0.4-7.6-0.5-11.4c-0.1-3.4,0-6.8-0.7-10.1c-0.8-3.4-1.9-6.4-1.8-10c0.1-3.9,1.2-7.8,1.8-11.7c0.5-3.7,0.1-7.6,0-11.3
		c-0.2-6.7-1.7-20.8,6.3-24c1.8-0.7,1-3.7-0.8-2.9c-8,3.2-8.5,13.3-8.6,20.7c-0.1,4.6,0.3,9.2,0.3,13.8c0,6.4-2.5,12.4-1.9,18.8
		c0.4,3.5,1.9,6.7,2.3,10.1c0.4,3.7,0.2,7.5,0.3,11.2c0.4,8,0.6,16,0.6,24c0,8.3,0.4,17.1-1.5,25.3c-1.7,7.2-0.5,15.2-1.8,22.5
		c-0.1,0.6-0.7,18.9-0.1,19.2c3.6,1.6,2.9-17.4,6.7-17.8c4.8-0.4,3,16.7,7.7,15.9c0.6-0.1,1.2-15.2,1.2-15.8
		c-0.5-4.8,2.3-10.5,0.6-14.9c-1.9-5.2-1-10.1-0.9-15.7c0-6.3,0.4-12.6,0.1-18.9c-0.3-6.8-0.7-13.7-1.2-20.5c-0.8-13-1-26-2.1-39
		c-0.5-6.1-1-12.1-0.9-18.2c0.1-6.4,0.8-12.8,0.9-19.2C201.8,24,198.8,24,198.7,26"/>
	<path class="st0" d="M270.1,76.4c0.8-0.2,1.5-0.2,2.2,0l-1.1-1.9c-0.3,1.2-0.7,1.4-1.9,1.3c0.5,0.4,1,0.7,1.5,1.1
		c-1.4-3.3-4.4-4.8-7.9-4.5c-0.8,0.1-1.6,0.6-1.5,1.5c0.1,2.7,1.6,3.9,4.3,4c-0.1-1-0.3-2-0.4-3c-7.5,1.4,4,12.3,5.5,4.3
		c0.3-1.7-1.8-2.7-2.8-1.2c-1,1.5-0.9,3.1,0.6,4.2c1.1,0.8,4.2,0.5,4.9,1.7c0.2-0.7,0.4-1.4,0.5-2.1c-1.3,0.6-3.1-0.8-4.2-1.3
		c-1.5-0.6-3-0.9-4.6-0.4c-1.5,0.4-1.4,2.5,0,2.9c1.9,0.7,3.8,0.9,5.7,0.3c0.9-0.3,1.5-1.4,0.9-2.2c-0.4-0.5-0.8-1-1.2-1.5
		c-1.1-1.6-3.8-0.1-2.6,1.5c0.4,0.5,0.8,1,1.2,1.5c0.3-0.7,0.6-1.5,0.9-2.2c-1.4,0.4-2.7,0.2-4.1-0.3v2.9c1.8-0.5,3.4,0.7,5,1.3
		c1.6,0.6,3,0.7,4.5,0c0.8-0.3,0.9-1.4,0.5-2.1c-0.6-1.1-1.6-1.5-2.8-1.9c-0.6-0.2-1.3-0.3-2-0.5c-0.4-0.1-0.7-0.2-1.1-0.3
		c-0.3-0.1-0.1,0.5,0.3-0.1c-0.9-0.4-1.9-0.8-2.8-1.2c-0.1,0.5,0,0.5-0.2,0.5c-0.4-0.1-0.8-0.3-1.1-0.5c-0.3-0.2-0.6-0.5-0.8-0.8
		c0,0-0.6,0.4,0.3,0.2c1.8-0.3,1.3-2.9-0.4-3c-0.8,0-1.2,0-1.2-0.9l-1.5,1.5c1.9-0.2,4.1,0.2,4.9,2.2c0.3,0.7,0.7,1,1.5,1.1
		c2.5,0.2,4.3-1.2,4.8-3.6c0.2-0.8-0.2-1.6-1.1-1.9c-1.3-0.4-2.5-0.3-3.9,0C267.3,73.8,268.1,76.7,270.1,76.4"/>
	<path class="st0" d="M211.7,98.1C211.7,98.1,211.7,98.1,211.7,98.1c0.1,0,0.2,0.1,0.3,0.1c0,0,0,0,0,0
		C211.9,98.2,211.8,98.1,211.7,98.1 M213.3,98.4C213.3,98.4,213.3,98.4,213.3,98.4c-0.1,0-0.2-0.1-0.3-0.1c0,0,0,0,0,0
		C213.2,98.3,213.2,98.3,213.3,98.4 M213,97.6C213,97.6,213,97.6,213,97.6c-0.1,0-0.1,0.1-0.2,0.2c0,0,0,0,0,0
		C212.9,97.7,213,97.7,213,97.6 M213.3,98.1c-0.1,0-0.2,0.1-0.3,0.1c0,0,0,0,0,0C213.2,98.2,213.3,98.2,213.3,98.1
		C213.4,98.1,213.3,98.1,213.3,98.1 M212.2,99c0-0.1,0-0.2,0.1-0.3l0,0C212.2,98.8,212.2,98.9,212.2,99C212.2,99,212.2,99,212.2,99
		 M216.4,95.5c-0.4,0.6-1.4,1.5-3.1,2.3c0,0,0,0,0,0c0.6-0.3,1.3-0.6,2.1-1c-0.8,0.4-1.4,0.8-2,1.2c0,0,0,0,0,0
		c1.6-1,2.8-1.4,3.6-1.4C217.7,95.8,217.4,95.2,216.4,95.5 M211.7,98.3c0.1,0,0.2-0.1,0.3-0.1c0,0,0,0,0,0
		C211.9,98.2,211.8,98.3,211.7,98.3C211.7,98.3,211.7,98.3,211.7,98.3 M212,98.9C212,98.9,212,98.9,212,98.9c0.1,0,0.1-0.1,0.2-0.2
		c0,0,0,0,0,0C212.2,98.7,212.1,98.8,212,98.9 M212.9,97.5c0,0.1,0,0.2-0.1,0.3c0,0,0,0,0,0C212.8,97.7,212.9,97.6,212.9,97.5
		C212.9,97.5,212.9,97.5,212.9,97.5 M212.8,98.7C212.8,98.7,212.8,98.7,212.8,98.7c0.1,0.1,0.2,0.1,0.2,0.2c0,0,0,0,0,0
		C212.9,98.8,212.9,98.8,212.8,98.7 M212.8,99L212.8,99c0-0.1,0-0.2,0-0.3c0,0,0,0,0,0C212.8,98.8,212.8,98.9,212.8,99 M212.6,99.1
		c-0.1,0.7-0.1,1.5-0.2,2.3c0-0.9,0-1.6,0-2.3c0,0,0,0,0,0c0.1,1.9-0.2,3.1-0.6,3.8c0.2,1.1,0.9,1.1,1.2,0
		C212.7,102.3,212.4,101,212.6,99.1C212.6,99.1,212.6,99.1,212.6,99.1 M213.3,98.6C213.3,98.6,213.3,98.6,213.3,98.6
		c0.5,0.4,1.2,0.9,1.9,1.3c-0.7-0.4-1.4-0.8-2-1.1c0,0,0,0,0,0c1.7,0.9,2.6,1.8,3,2.4c1,0.3,1.4-0.3,0.6-1
		C216.1,100.1,214.9,99.7,213.3,98.6 M212.3,97.8C212.3,97.8,212.3,97.7,212.3,97.8c-0.1-0.1-0.2-0.1-0.2-0.2c0,0,0,0,0,0
		C212.1,97.6,212.2,97.7,212.3,97.8 M211.8,98.7c-0.6,0.3-1.3,0.6-2.1,1c0.8-0.4,1.4-0.8,2-1.2c0,0,0,0,0,0c-1.6,1-2.8,1.4-3.6,1.4
		c-0.8,0.7-0.5,1.4,0.6,1.1C209.1,100.4,210.1,99.5,211.8,98.7C211.8,98.7,211.8,98.7,211.8,98.7 M212.2,97.5
		C212.2,97.5,212.2,97.4,212.2,97.5c0,0.1,0,0.2,0,0.3c0,0,0,0,0,0C212.3,97.7,212.2,97.6,212.2,97.5 M212.7,97.4
		C212.7,97.4,212.7,97.4,212.7,97.4c-0.1-1.9,0.2-3.2,0.6-3.8c-0.2-1.1-0.9-1.1-1.2,0c0.3,0.7,0.6,1.9,0.4,3.8c0,0,0,0,0,0
		c0.1-0.7,0.1-1.5,0.2-2.3C212.6,95.9,212.6,96.7,212.7,97.4 M211.7,97.9C211.7,97.9,211.7,97.9,211.7,97.9
		c-0.5-0.4-1.2-0.9-1.9-1.3c0.7,0.4,1.4,0.8,2,1.1c0,0,0,0,0,0c-1.7-0.9-2.6-1.8-3-2.4c-1-0.3-1.4,0.3-0.7,1
		C209,96.3,210.2,96.8,211.7,97.9"/>
	<path class="st0" d="M212.3,99C212.3,99,212.3,99,212.3,99c0-0.1,0.1-0.2,0.1-0.2c0,0,0,0,0,0C212.4,98.9,212.4,98.9,212.3,99
		 M212.7,97.4C212.7,97.4,212.7,97.4,212.7,97.4c0,0.1-0.1,0.2-0.1,0.3c0,0,0,0,0,0C212.6,97.6,212.7,97.5,212.7,97.4 M211.9,97.7
		C211.9,97.7,211.9,97.6,211.9,97.7c0,0.1,0.1,0.2,0.1,0.2c0,0,0,0,0,0C212,97.8,212,97.7,211.9,97.7 M212.5,97.4
		c0,0.1,0,0.2,0.1,0.3c0,0,0,0,0,0C212.6,97.6,212.5,97.5,212.5,97.4C212.5,97.4,212.5,97.4,212.5,97.4 M213.2,98.6
		c-0.1,0-0.2-0.1-0.3-0.1l0,0C213.1,98.6,213.2,98.6,213.2,98.6C213.3,98.6,213.2,98.6,213.2,98.6 M210.1,94.2
		c0.6,0.5,1.3,1.5,2,3.3c0,0,0,0,0,0c-0.2-0.7-0.5-1.4-0.8-2.2c0.3,0.8,0.7,1.5,1,2.1c0,0,0,0,0,0c-0.9-1.7-1.1-2.9-1-3.7
		C210.6,92.8,209.9,93.1,210.1,94.2 M212.5,99.1c0-0.1,0-0.2-0.1-0.3c0,0,0,0,0,0C212.5,98.9,212.5,99,212.5,99.1
		C212.5,99.1,212.5,99.1,212.5,99.1 M213.1,98.8C213.1,98.8,213.1,98.8,213.1,98.8c0-0.1-0.1-0.2-0.1-0.2c0,0,0,0,0,0
		C213,98.6,213.1,98.7,213.1,98.8 M211.8,97.8c0.1,0,0.2,0.1,0.3,0.1c0,0,0,0,0,0C212,97.9,211.9,97.8,211.8,97.8
		C211.8,97.8,211.8,97.8,211.8,97.8 M213,98C213,98,213,98,213,98c0.1-0.1,0.2-0.1,0.2-0.2c0,0,0,0,0,0
		C213.2,97.9,213.1,97.9,213,98 M213.3,98C213.3,98,213.3,98,213.3,98c-0.1,0-0.2,0-0.3,0c0,0,0,0,0,0C213.1,98,213.2,98,213.3,98
		 M213.4,98.2c0.7,0.1,1.4,0.3,2.3,0.4c-0.8-0.1-1.6-0.2-2.3-0.2c0,0,0,0,0,0c1.9,0.1,3.1,0.5,3.7,0.9c1.1-0.1,1.2-0.8,0.1-1.2
		C216.5,98.5,215.3,98.6,213.4,98.2C213.4,98.2,213.4,98.2,213.4,98.2 M212.9,97.5C212.9,97.5,212.9,97.5,212.9,97.5
		c0.5-0.5,1-1.1,1.5-1.8c-0.5,0.7-0.9,1.3-1.3,1.9c0,0,0,0,0,0c1-1.6,2-2.4,2.7-2.8c0.4-1-0.2-1.4-1-0.7
		C214.7,94.9,214.2,96,212.9,97.5 M212,98.4C212,98.4,212,98.4,212,98.4c-0.1,0.1-0.2,0.1-0.2,0.2c0,0,0,0,0,0
		C211.9,98.6,212,98.5,212,98.4 M212.9,99c0.2,0.7,0.5,1.4,0.8,2.2c-0.3-0.8-0.7-1.5-1-2.1c0,0,0,0,0,0c0.9,1.7,1.1,2.9,1,3.7
		c0.7,0.9,1.3,0.6,1.1-0.5C214.3,101.8,213.6,100.8,212.9,99C213,99,213,99,212.9,99 M211.7,98.5C211.7,98.5,211.7,98.5,211.7,98.5
		c0.1,0,0.2,0,0.3,0c0,0,0,0,0,0C211.9,98.4,211.8,98.4,211.7,98.5 M211.7,98C211.7,98,211.7,98,211.7,98c-1.9-0.1-3.1-0.5-3.8-1
		c-1.1,0.1-1.2,0.9-0.1,1.2c0.7-0.3,2-0.4,3.9-0.1c0,0,0,0,0,0c-0.7-0.1-1.4-0.3-2.3-0.4C210.2,98,211,98,211.7,98 M212.1,99
		C212.1,99,212.1,99,212.1,99c-0.5,0.5-1,1.1-1.5,1.8c0.5-0.7,0.9-1.3,1.3-1.9c0,0,0,0,0,0c-1,1.6-2,2.4-2.7,2.8
		c-0.4,1,0.2,1.4,1,0.7C210.3,101.6,210.8,100.4,212.1,99"/>
	<path class="st0" d="M164.4,47.4C166.7,48.8,167,48.2,164.4,47.4 M154.4,43C152,41.6,151.8,42.3,154.4,43 M157.2,50.3
		C155.8,52.6,156.5,52.9,157.2,50.3 M161.6,40.2c-0.5,0.8-1.2,1.8-2.2,3c-1-1.2-1.6-2.2-2-3c0.2,0.9,0.4,2.1,0.6,3.6
		c-1.5-0.2-2.7-0.4-3.6-0.7c0.8,0.5,1.8,1.2,3,2.2c-1.2,1-2.2,1.6-3,2c0.9-0.2,2.1-0.4,3.6-0.6c-0.2,1.5-0.4,2.7-0.7,3.6
		c0.5-0.8,1.2-1.8,2.2-3c1,1.2,1.6,2.2,2.1,3c-0.2-0.9-0.4-2.1-0.6-3.6c1.5,0.2,2.7,0.4,3.6,0.7c-0.8-0.5-1.8-1.2-3-2.2
		c1.2-1,2.2-1.6,3-2c-0.9,0.2-2.1,0.4-3.6,0.6C161.1,42.3,161.3,41.1,161.6,40.2 M161.6,40.2C163,37.9,162.3,37.6,161.6,40.2
		 M157.4,40.1C156.7,37.5,156.1,37.8,157.4,40.1 M164.5,43.2C167.1,42.6,166.9,41.9,164.5,43.2 M161.4,50.3
		C162.1,53,162.7,52.7,161.4,50.3 M154.3,47.2C151.7,47.9,151.9,48.6,154.3,47.2"/>
	<path class="st0" d="M164.9,45.5C167.5,46,167.6,45.3,164.9,45.5 M153.9,45C151.3,44.5,151.2,45.2,153.9,45 M159.1,50.7
		C158.6,53.4,159.4,53.4,159.1,50.7 M159.7,39.8c-0.2,0.9-0.5,2.1-1,3.5c-1.3-0.8-2.3-1.5-3-2.1c0.5,0.7,1.1,1.8,1.8,3.2
		c-1.5,0.4-2.7,0.5-3.6,0.6c0.9,0.2,2.1,0.5,3.5,1c-0.8,1.3-1.5,2.3-2.1,3c0.7-0.5,1.8-1.1,3.2-1.8c0.4,1.5,0.5,2.7,0.6,3.6
		c0.2-0.9,0.5-2.1,1-3.5c1.3,0.8,2.3,1.5,3,2.1c-0.5-0.7-1.1-1.8-1.8-3.2c1.5-0.4,2.7-0.5,3.6-0.6c-0.9-0.2-2.1-0.5-3.5-1
		c0.8-1.3,1.5-2.3,2.1-3c-0.7,0.5-1.8,1.1-3.2,1.8C159.9,41.8,159.7,40.6,159.7,39.8 M159.7,39.8C160.2,37.1,159.4,37.1,159.7,39.8
		 M155.7,41.2C154.2,38.9,153.6,39.4,155.7,41.2 M163.5,41.5C165.7,40,165.2,39.5,163.5,41.5 M163.1,49.3
		C164.6,51.5,165.2,51,163.1,49.3 M155.3,48.9C153.1,50.5,153.6,51,155.3,48.9"/>
	<path class="st0" d="M143.5,59.3C143.5,59.3,143.5,59.3,143.5,59.3c0.1,0,0.2,0,0.4,0c0,0,0,0,0,0
		C143.8,59.3,143.7,59.3,143.5,59.3 M145.5,58.6C145.5,58.6,145.5,58.6,145.5,58.6c-0.1,0-0.2,0-0.4,0c0,0,0,0,0,0
		C145.2,58.6,145.4,58.6,145.5,58.6 M144.7,57.9C144.7,57.9,144.7,57.9,144.7,57.9c0,0.1-0.1,0.2-0.1,0.3c0,0,0,0,0,0
		C144.6,58.2,144.6,58,144.7,57.9 M145.4,58.3c-0.1,0.1-0.2,0.2-0.2,0.3c0,0,0,0,0,0C145.2,58.5,145.3,58.4,145.4,58.3
		C145.4,58.3,145.4,58.3,145.4,58.3 M144.6,60c0-0.1-0.1-0.2-0.1-0.3l0,0C144.5,59.8,144.6,59.9,144.6,60L144.6,60z M147,53.5
		c-0.1,1-0.6,2.5-2,4.4c0,0,0,0,0,0c0.5-0.7,1.1-1.5,1.7-2.4c-0.6,0.9-1,1.8-1.4,2.6c0,0,0,0,0,0c1.1-2.1,2.2-3.3,3.1-3.8
		C148.7,53,147.9,52.5,147,53.5 M143.7,59.6c0.1-0.1,0.2-0.2,0.2-0.3c0,0,0,0,0,0C143.8,59.4,143.7,59.5,143.7,59.6
		C143.7,59.6,143.7,59.6,143.7,59.6 M144.3,60C144.4,60,144.4,60,144.3,60c0-0.1,0.1-0.2,0.1-0.3c0,0,0,0,0,0
		C144.4,59.8,144.4,59.9,144.3,60 M144.4,57.9c0,0.1,0.1,0.2,0.1,0.3c0,0,0,0,0,0C144.5,58.1,144.5,58,144.4,57.9
		C144.4,57.9,144.4,57.9,144.4,57.9 M145.1,59.3C145.1,59.3,145.1,59.3,145.1,59.3c0.1,0,0.3,0.1,0.4,0.1c0,0,0,0,0,0
		C145.3,59.4,145.2,59.3,145.1,59.3 M145.3,59.6C145.3,59.6,145.3,59.6,145.3,59.6c-0.1-0.1-0.1-0.2-0.2-0.3c0,0,0,0,0,0
		C145.2,59.4,145.2,59.5,145.3,59.6 M145.1,59.8c0.3,0.8,0.8,1.7,1.3,2.7c-0.5-1-1-1.8-1.5-2.5c0,0,0,0,0,0c1.3,2,1.7,3.6,1.7,4.6
		c0.9,1,1.7,0.6,1.4-0.7C147.2,63.3,146.2,62.1,145.1,59.8C145.2,59.8,145.1,59.8,145.1,59.8 M145.6,58.8
		C145.6,58.8,145.6,58.9,145.6,58.8c0.8,0.1,1.8,0.2,2.9,0.2c-1.1,0-2.1,0-2.9,0c0,0,0,0,0,0c2.4-0.1,4,0.3,4.8,0.8
		c1.3-0.3,1.4-1.2,0-1.6C149.6,58.8,148,59.1,145.6,58.8 M143.9,58.6C143.9,58.6,143.9,58.6,143.9,58.6c-0.1,0-0.3-0.1-0.4-0.1
		c0,0,0,0,0,0C143.7,58.6,143.8,58.6,143.9,58.6 M144.1,59.9c-0.5,0.7-1.1,1.5-1.7,2.4c0.6-0.9,1-1.8,1.4-2.6c0,0,0,0,0,0
		c-1.1,2.1-2.2,3.3-3.1,3.8c-0.4,1.3,0.4,1.8,1.3,0.8C142.1,63.4,142.6,61.9,144.1,59.9C144.1,60,144.1,59.9,144.1,59.9 M143.7,58.3
		C143.7,58.3,143.7,58.3,143.7,58.3c0.1,0.1,0.1,0.2,0.2,0.3c0,0,0,0,0,0C143.9,58.5,143.8,58.4,143.7,58.3 M144.1,58
		C144.1,57.9,144.1,57.9,144.1,58c-1.3-2.1-1.7-3.6-1.7-4.6c-0.9-1-1.7-0.6-1.4,0.7c0.8,0.5,1.9,1.8,2.9,4c0,0,0,0,0,0
		c-0.3-0.8-0.8-1.7-1.3-2.7C143.1,56.4,143.6,57.2,144.1,58 M143.4,59.1C143.4,59.1,143.4,59.1,143.4,59.1c-0.8-0.1-1.8-0.2-2.9-0.2
		c1.1,0,2.1,0,2.9,0c0,0,0,0,0,0c-2.4,0.1-4-0.3-4.8-0.8c-1.3,0.3-1.4,1.2,0,1.6C139.4,59.1,141,58.8,143.4,59.1"/>
	<path class="st0" d="M143.5,58.8C143.5,58.8,143.5,58.8,143.5,58.8c0.1,0,0.2,0.1,0.3,0.1c0,0,0,0,0,0
		C143.7,58.9,143.6,58.8,143.5,58.8 M145.5,59.1C145.6,59.1,145.6,59.1,145.5,59.1c-0.1,0-0.2-0.1-0.3-0.1c0,0,0,0,0,0
		C145.3,59,145.4,59.1,145.5,59.1 M145.2,58.1C145.2,58.1,145.2,58.1,145.2,58.1c-0.1,0.1-0.2,0.1-0.3,0.2c0,0,0,0,0,0
		C145,58.3,145.1,58.2,145.2,58.1 M145.6,58.9c-0.1,0-0.2,0.1-0.4,0.1c0,0,0,0,0,0C145.3,58.9,145.5,58.9,145.6,58.9
		C145.6,58.9,145.6,58.9,145.6,58.9 M144.1,59.9c0-0.1,0-0.2,0.1-0.4l0,0C144.1,59.7,144.1,59.8,144.1,59.9
		C144.1,59.9,144.1,59.9,144.1,59.9 M149.4,55.5c-0.5,0.8-1.8,1.9-4,2.8c0,0,0,0,0,0c0.8-0.3,1.7-0.8,2.7-1.3c-1,0.5-1.8,1-2.5,1.5
		c0,0,0,0,0,0c2-1.3,3.6-1.7,4.6-1.7C151.1,55.9,150.7,55.1,149.4,55.5 M143.5,59.1c0.1,0,0.2-0.1,0.3-0.1c0,0,0,0,0,0
		C143.7,59,143.6,59,143.5,59.1C143.5,59.1,143.5,59.1,143.5,59.1 M143.9,59.8C143.9,59.8,143.8,59.8,143.9,59.8
		c0.1-0.1,0.2-0.1,0.3-0.2c0,0,0,0,0,0C144.1,59.6,144,59.7,143.9,59.8 M144.9,58c0,0.1,0,0.2-0.1,0.4c0,0,0,0,0,0
		C144.9,58.2,144.9,58.1,144.9,58C145,58,144.9,58,144.9,58 M144.8,59.6C144.8,59.6,144.8,59.6,144.8,59.6c0.1,0.1,0.2,0.2,0.3,0.3
		c0,0,0,0,0,0C145,59.7,144.9,59.6,144.8,59.6 M144.9,59.9C144.9,59.9,144.9,59.9,144.9,59.9c0-0.1,0-0.2,0-0.4c0,0,0,0,0,0
		C144.9,59.7,144.9,59.8,144.9,59.9 M144.6,60c-0.1,0.9-0.2,1.9-0.2,2.9c0-1.1,0-2.1,0-2.9c0,0,0,0,0,0c0.1,2.4-0.3,4-0.8,4.8
		c0.3,1.3,1.2,1.4,1.6,0C144.7,64,144.4,62.5,144.6,60C144.6,60,144.6,60,144.6,60 M145.5,59.4C145.5,59.4,145.5,59.4,145.5,59.4
		c0.7,0.5,1.5,1.1,2.4,1.6c-0.9-0.6-1.8-1-2.6-1.4c0,0,0,0,0,0c2.1,1.1,3.3,2.2,3.8,3.1c1.3,0.4,1.8-0.4,0.8-1.3
		C149,61.4,147.5,60.8,145.5,59.4 M144.2,58.4C144.2,58.3,144.2,58.3,144.2,58.4c-0.1-0.1-0.2-0.2-0.3-0.3c0,0,0,0,0,0
		C144,58.2,144.1,58.3,144.2,58.4 M143.6,59.6c-0.8,0.3-1.7,0.8-2.7,1.3c1-0.5,1.8-1,2.5-1.5c0,0,0,0,0,0c-2,1.3-3.6,1.7-4.6,1.7
		c-1,0.9-0.6,1.7,0.7,1.4C140.2,61.6,141.4,60.6,143.6,59.6C143.6,59.6,143.6,59.6,143.6,59.6 M144.1,58C144.1,58,144.1,58,144.1,58
		c0,0.1,0,0.2,0,0.4c0,0,0,0,0,0C144.2,58.2,144.2,58.1,144.1,58 M144.7,57.9C144.7,57.9,144.7,57.9,144.7,57.9
		c-0.1-2.4,0.3-4,0.8-4.8c-0.3-1.3-1.2-1.4-1.6,0c0.4,0.9,0.7,2.5,0.5,4.8c0,0,0,0,0,0c0.1-0.9,0.2-1.9,0.2-2.9
		C144.6,56,144.6,57,144.7,57.9 M143.5,58.5C143.5,58.5,143.5,58.5,143.5,58.5c-0.7-0.5-1.5-1.1-2.4-1.6c0.9,0.6,1.8,1,2.6,1.4
		c0,0,0,0,0,0c-2.1-1.1-3.3-2.2-3.8-3.1c-1.3-0.4-1.8,0.4-0.8,1.3C140,56.6,141.5,57.1,143.5,58.5"/>
	<path class="st0" d="M224.8,121.3C227.1,122.7,227.4,122.1,224.8,121.3 M214.7,116.9C212.4,115.6,212.1,116.2,214.7,116.9
		 M217.5,124.2C216.2,126.5,216.8,126.8,217.5,124.2 M221.9,114.1c-0.5,0.8-1.2,1.8-2.2,3c-1-1.2-1.6-2.2-2-3
		c0.2,0.9,0.4,2.1,0.6,3.6c-1.5-0.2-2.7-0.4-3.6-0.7c0.8,0.5,1.8,1.2,3,2.2c-1.2,1-2.2,1.6-3,2c0.9-0.2,2.1-0.4,3.6-0.6
		c-0.2,1.5-0.4,2.7-0.7,3.6c0.5-0.8,1.2-1.8,2.2-3c1,1.2,1.6,2.2,2,3c-0.2-0.9-0.4-2.1-0.6-3.6c1.5,0.2,2.7,0.4,3.6,0.7
		c-0.8-0.5-1.8-1.2-3-2.2c1.2-1,2.2-1.6,3-2c-0.9,0.2-2.1,0.4-3.6,0.6C221.4,116.2,221.7,115,221.9,114.1 M221.9,114.1
		C223.3,111.8,222.7,111.5,221.9,114.1 M217.7,114C217.1,111.4,216.4,111.7,217.7,114 M224.8,117.1
		C227.5,116.5,227.2,115.8,224.8,117.1 M221.7,124.2C222.4,126.9,223.1,126.6,221.7,124.2 M214.6,121.1
		C212,121.8,212.3,122.5,214.6,121.1"/>
	<path class="st0" d="M225.2,119.4C227.9,119.9,227.9,119.2,225.2,119.4 M214.3,118.9C211.6,118.4,211.6,119.1,214.3,118.9
		 M219.5,124.6C219,127.3,219.7,127.3,219.5,124.6 M220,113.7c-0.2,0.9-0.5,2.1-1,3.5c-1.3-0.8-2.3-1.5-3-2.1
		c0.5,0.7,1.1,1.8,1.8,3.2c-1.5,0.4-2.7,0.5-3.6,0.6c0.9,0.2,2.1,0.5,3.5,1c-0.8,1.3-1.5,2.3-2.1,3c0.7-0.5,1.8-1.1,3.2-1.8
		c0.4,1.5,0.5,2.7,0.6,3.6c0.2-0.9,0.5-2.1,1-3.5c1.3,0.8,2.3,1.5,3,2.1c-0.5-0.7-1.1-1.8-1.8-3.2c1.5-0.4,2.7-0.5,3.6-0.6
		c-0.9-0.2-2.1-0.5-3.5-1c0.8-1.3,1.5-2.3,2.1-3c-0.7,0.5-1.8,1.1-3.2,1.8C220.3,115.7,220.1,114.5,220,113.7 M220,113.7
		C220.5,111,219.8,111,220,113.7 M216,115.1C214.5,112.8,214,113.3,216,115.1 M223.8,115.4C226,113.9,225.5,113.4,223.8,115.4
		 M223.4,123.2C225,125.4,225.5,124.9,223.4,123.2 M215.7,122.8C213.4,124.4,213.9,124.9,215.7,122.8"/>
	<path class="st0" d="M184.7,38.9C184.7,38.9,184.7,38.9,184.7,38.9c0,0,0.1,0.1,0.2,0.1c0,0,0,0,0,0C184.8,39,184.8,39,184.7,38.9
		 M185.9,39.1C185.9,39.1,185.9,39.1,185.9,39.1c0,0-0.1-0.1-0.2-0.1c0,0,0,0,0,0C185.7,39.1,185.8,39.1,185.9,39.1 M185.6,38.6
		C185.6,38.6,185.6,38.6,185.6,38.6c0,0-0.1,0.1-0.2,0.1c0,0,0,0,0,0C185.5,38.7,185.6,38.6,185.6,38.6 M185.9,39
		c-0.1,0-0.1,0-0.2,0.1c0,0,0,0,0,0C185.7,39,185.8,39,185.9,39C185.9,39,185.9,39,185.9,39 M185,39.6c0-0.1,0-0.1,0-0.2l0,0
		C185,39.4,185,39.5,185,39.6C185,39.6,185,39.6,185,39.6 M188,37c-0.3,0.5-1,1.1-2.2,1.6c0,0,0,0,0,0c0.5-0.2,1-0.4,1.5-0.7
		c-0.5,0.3-1,0.6-1.4,0.9c0,0,0,0,0,0c1.2-0.7,2-1,2.6-1C189,37.3,188.8,36.8,188,37 M184.7,39.1c0.1,0,0.1,0,0.2-0.1c0,0,0,0,0,0
		C184.8,39,184.7,39.1,184.7,39.1C184.7,39.1,184.7,39.1,184.7,39.1 M184.9,39.5C184.9,39.5,184.9,39.5,184.9,39.5
		c0,0,0.1-0.1,0.2-0.1c0,0,0,0,0,0C185,39.4,185,39.4,184.9,39.5 M185.5,38.5c0,0.1,0,0.1,0,0.2c0,0,0,0,0,0
		C185.5,38.6,185.5,38.5,185.5,38.5C185.5,38.5,185.5,38.5,185.5,38.5 M185.5,39.4C185.5,39.4,185.5,39.4,185.5,39.4
		c0.1,0.1,0.1,0.1,0.2,0.2c0,0,0,0,0,0C185.6,39.5,185.5,39.4,185.5,39.4 M185.5,39.6C185.5,39.6,185.5,39.6,185.5,39.6
		c0-0.1,0-0.1,0-0.2c0,0,0,0,0,0C185.5,39.4,185.5,39.5,185.5,39.6 M185.3,39.6c-0.1,0.5-0.1,1.1-0.1,1.7c0-0.6,0-1.2,0-1.7
		c0,0,0,0,0,0c0.1,1.4-0.2,2.3-0.4,2.7c0.2,0.8,0.7,0.8,0.9,0C185.4,41.9,185.2,41,185.3,39.6C185.3,39.6,185.3,39.6,185.3,39.6
		 M185.8,39.3C185.8,39.3,185.8,39.3,185.8,39.3c0.4,0.3,0.8,0.6,1.4,0.9c-0.5-0.3-1-0.6-1.5-0.8c0,0,0,0,0,0
		c1.2,0.6,1.9,1.3,2.1,1.8c0.7,0.2,1-0.2,0.5-0.8C187.8,40.4,187,40.1,185.8,39.3 M185.1,38.7C185.1,38.7,185.1,38.7,185.1,38.7
		c-0.1-0.1-0.1-0.1-0.2-0.2c0,0,0,0,0,0C185,38.6,185,38.6,185.1,38.7 M184.8,39.4c-0.5,0.2-1,0.4-1.5,0.7c0.5-0.3,1-0.6,1.4-0.9
		c0,0,0,0,0,0c-1.2,0.7-2,1-2.6,1c-0.6,0.5-0.3,1,0.4,0.8C182.8,40.6,183.5,40,184.8,39.4C184.8,39.4,184.8,39.4,184.8,39.4
		 M185.1,38.5C185.1,38.5,185.1,38.5,185.1,38.5c0,0.1,0,0.1,0,0.2c0,0,0,0,0,0C185.1,38.6,185.1,38.5,185.1,38.5 M185.4,38.4
		C185.4,38.4,185.4,38.4,185.4,38.4c-0.1-1.4,0.2-2.3,0.5-2.8c-0.2-0.8-0.7-0.8-0.9,0c0.2,0.5,0.4,1.4,0.3,2.8c0,0,0,0,0,0
		c0.1-0.5,0.1-1.1,0.1-1.7C185.3,37.4,185.3,37.9,185.4,38.4 M184.7,38.8L184.7,38.8c-0.4-0.3-0.8-0.6-1.4-0.9
		c0.5,0.3,1,0.6,1.5,0.8c0,0,0,0,0,0c-1.2-0.6-1.9-1.3-2.1-1.8c-0.7-0.2-1,0.2-0.5,0.8C182.7,37.7,183.6,38,184.7,38.8"/>
	<path class="st0" d="M185.1,39.6C185.1,39.6,185.1,39.6,185.1,39.6c0,0,0.1-0.1,0.1-0.2c0,0,0,0,0,0
		C185.2,39.5,185.2,39.5,185.1,39.6 M185.4,38.5C185.4,38.4,185.4,38.4,185.4,38.5c0,0-0.1,0.1-0.1,0.2c0,0,0,0,0,0
		C185.3,38.6,185.4,38.5,185.4,38.5 M184.8,38.6C184.8,38.6,184.8,38.6,184.8,38.6c0,0.1,0.1,0.1,0.1,0.2c0,0,0,0,0,0
		C184.9,38.7,184.9,38.7,184.8,38.6 M185.3,38.4c0,0.1,0,0.1,0.1,0.2c0,0,0,0,0,0C185.3,38.6,185.3,38.5,185.3,38.4
		C185.3,38.4,185.3,38.4,185.3,38.4 M185.8,39.3c-0.1,0-0.1,0-0.2-0.1l0,0C185.7,39.3,185.7,39.3,185.8,39.3
		C185.8,39.3,185.8,39.3,185.8,39.3 M183.5,36.1c0.4,0.3,1,1.1,1.4,2.4c0,0,0,0,0,0c-0.2-0.5-0.3-1-0.6-1.6c0.2,0.6,0.5,1.1,0.7,1.5
		c0,0,0,0,0,0c-0.6-1.2-0.8-2.1-0.8-2.7C183.9,35.1,183.4,35.3,183.5,36.1 M185.3,39.6c0-0.1,0-0.1-0.1-0.2c0,0,0,0,0,0
		C185.2,39.5,185.3,39.6,185.3,39.6C185.3,39.6,185.3,39.6,185.3,39.6 M185.7,39.4C185.7,39.4,185.7,39.4,185.7,39.4
		c0-0.1-0.1-0.1-0.1-0.2c0,0,0,0,0,0C185.6,39.3,185.7,39.4,185.7,39.4 M184.8,38.7c0.1,0,0.1,0,0.2,0.1c0,0,0,0,0,0
		C184.9,38.8,184.8,38.7,184.8,38.7C184.7,38.7,184.7,38.7,184.8,38.7 M185.6,38.9C185.6,38.9,185.6,38.9,185.6,38.9
		c0.1-0.1,0.1-0.1,0.2-0.2c0,0,0,0,0,0C185.7,38.8,185.7,38.8,185.6,38.9 M185.8,38.9C185.8,38.9,185.8,38.9,185.8,38.9
		c-0.1,0-0.1,0-0.2,0c0,0,0,0,0,0C185.7,38.9,185.8,38.9,185.8,38.9 M185.9,39c0.5,0.1,1,0.2,1.7,0.3c-0.6-0.1-1.2-0.1-1.7-0.1
		c0,0,0,0,0,0c1.4,0.1,2.2,0.4,2.7,0.7c0.8-0.1,0.8-0.6,0.1-0.9C188.2,39.2,187.2,39.3,185.9,39C185.9,39,185.9,39,185.9,39
		 M185.6,38.5C185.6,38.5,185.6,38.5,185.6,38.5c0.3-0.4,0.7-0.8,1.1-1.3c-0.4,0.5-0.7,1-0.9,1.4c0,0,0,0,0,0c0.7-1.2,1.4-1.8,1.9-2
		c0.3-0.7-0.1-1-0.7-0.5C186.8,36.6,186.5,37.4,185.6,38.5 M184.9,39.2C184.9,39.2,184.9,39.2,184.9,39.2c-0.1,0.1-0.1,0.1-0.2,0.2
		c0,0,0,0,0,0C184.8,39.3,184.9,39.2,184.9,39.2 M185.6,39.6c0.2,0.5,0.3,1,0.6,1.6c-0.2-0.6-0.5-1.1-0.7-1.5c0,0,0,0,0,0
		c0.6,1.2,0.8,2.1,0.8,2.7c0.5,0.6,0.9,0.4,0.8-0.3C186.6,41.6,186,40.9,185.6,39.6C185.6,39.6,185.6,39.6,185.6,39.6 M184.7,39.2
		C184.7,39.2,184.7,39.2,184.7,39.2c0.1,0,0.1,0,0.2,0c0,0,0,0,0,0C184.8,39.2,184.8,39.2,184.7,39.2 M184.7,38.9
		C184.7,38.9,184.7,38.9,184.7,38.9c-1.4-0.1-2.3-0.4-2.7-0.7c-0.8,0.1-0.8,0.6-0.1,0.9c0.5-0.2,1.4-0.3,2.8,0c0,0,0,0,0,0
		c-0.5-0.1-1-0.2-1.6-0.3C183.6,38.8,184.2,38.9,184.7,38.9 M185,39.6C185,39.6,185,39.6,185,39.6c-0.3,0.4-0.7,0.8-1.1,1.3
		c0.4-0.5,0.7-1,0.9-1.4c0,0,0,0,0,0c-0.7,1.2-1.4,1.8-1.9,2c-0.3,0.7,0.1,1,0.7,0.5C183.7,41.4,184.1,40.6,185,39.6"/>
	<path class="st0" d="M183.8,25.4c-0.4-0.2-0.8-0.4-1.1-0.7c0.3-0.1,0.6-0.2,0.9-0.3c0.3-0.1,0.1-0.5-0.2-0.4
		c-0.4,0.1-0.8,0.3-1.3,0.4c-0.4-0.2-0.7-0.4-1.1-0.6l1.2-0.7c0.2-0.1,0.1-0.6-0.2-0.4c-0.5,0.3-1,0.6-1.4,0.9
		c-0.7-0.4-1.3-0.8-2-1.1c0,0,0,0,0,0c0,0-0.1,0-0.1-0.1c0,0,0,0,0,0c0,0,0,0,0.1,0l0,0c0.7-0.4,1.3-0.8,2-1.2L182,22
		c0.3,0.1,0.5-0.2,0.3-0.4c-0.4-0.2-0.8-0.5-1.2-0.7c0.4-0.2,0.7-0.4,1.1-0.6l1.3,0.4c0.3,0.1,0.4-0.3,0.2-0.4
		c-0.3-0.1-0.6-0.2-0.9-0.3c0.3-0.2,0.7-0.4,1-0.6c0,0,0,0,0.1,0c0.3-0.1,0.1-0.6-0.2-0.4c-0.4,0.2-0.8,0.4-1.1,0.7
		c0.1-0.3,0.1-0.6,0.2-1c0.1-0.3-0.4-0.3-0.5,0l-0.3,1.3c-0.4,0.2-0.7,0.4-1.1,0.6c0-0.5,0-0.9,0-1.4c0-0.3-0.5-0.3-0.5,0
		c0,0.6,0,1.1,0,1.7c-0.7,0.4-1.4,0.8-2.1,1.2v-2.4c0.5-0.3,1-0.5,1.4-0.8c0.3-0.1,0.1-0.6-0.2-0.4c-0.4,0.2-0.8,0.5-1.2,0.7v-1.3
		c0.3-0.3,0.7-0.6,1-0.9c0.2-0.2-0.1-0.5-0.3-0.3c-0.2,0.2-0.5,0.4-0.7,0.6v-1.3c0-0.3-0.5-0.3-0.5,0v1.3l-0.7-0.6
		c-0.2-0.2-0.5,0.2-0.3,0.4c0.3,0.3,0.7,0.6,1,0.9V19c-0.4-0.2-0.8-0.4-1.2-0.7c-0.3-0.1-0.5,0.2-0.3,0.4c0.5,0.3,1,0.5,1.5,0.8V22
		c-0.7-0.4-1.4-0.8-2.1-1.2c0-0.5,0-1.1,0-1.6c0-0.3-0.4-0.3-0.5,0c0,0.5,0,0.9,0,1.4l-1.1-0.6c-0.1-0.4-0.2-0.9-0.3-1.3
		c-0.1-0.3-0.5-0.2-0.4,0.1l0.2,0.9c-0.3-0.2-0.7-0.4-1-0.6c0,0,0,0-0.1,0c-0.3-0.1-0.5,0.2-0.3,0.4c0.4,0.2,0.8,0.4,1.1,0.7
		c-0.3,0.1-0.6,0.2-0.9,0.3c-0.3,0.1-0.1,0.5,0.2,0.4c0.4-0.1,0.8-0.3,1.3-0.4c0.4,0.2,0.7,0.4,1.1,0.6c-0.4,0.2-0.8,0.5-1.2,0.7
		c-0.2,0.1-0.1,0.6,0.2,0.4c0.5-0.3,1-0.6,1.4-0.9l2,1.1c0,0,0,0,0,0c0,0,0.1,0,0.1,0.1c0,0,0,0,0,0c0,0,0,0-0.1,0l0,0
		c-0.7,0.4-1.3,0.8-2,1.2c-0.5-0.3-0.9-0.6-1.4-0.8c-0.3-0.1-0.5,0.2-0.3,0.4c0.4,0.2,0.8,0.5,1.2,0.7c-0.4,0.2-0.7,0.4-1.1,0.6
		l-1.3-0.4c-0.3-0.1-0.4,0.3-0.2,0.4l0.9,0.3c-0.3,0.2-0.7,0.4-1,0.6c0,0,0,0-0.1,0c-0.3,0.1-0.1,0.6,0.2,0.4
		c0.4-0.2,0.8-0.4,1.1-0.7c-0.1,0.3-0.1,0.6-0.2,1c-0.1,0.3,0.4,0.3,0.5,0l0.3-1.3c0.4-0.2,0.7-0.4,1.1-0.6c0,0.5,0,0.9,0,1.4
		c0,0.3,0.5,0.3,0.5,0c0-0.6,0-1.1,0-1.7c0.7-0.4,1.4-0.8,2.1-1.2v2.4c-0.5,0.3-1,0.5-1.4,0.8c-0.3,0.1-0.1,0.6,0.2,0.4
		c0.4-0.2,0.8-0.5,1.2-0.7v1.3c-0.3,0.3-0.7,0.6-1,0.9c-0.2,0.2,0.1,0.5,0.3,0.3c0.2-0.2,0.5-0.4,0.7-0.6v1.3c0,0.3,0.5,0.3,0.5,0
		v-1.3c0.2,0.2,0.5,0.4,0.7,0.6c0.2,0.2,0.5-0.2,0.3-0.4c-0.3-0.3-0.7-0.6-1-0.9v-1.3c0.4,0.2,0.8,0.4,1.2,0.7
		c0.3,0.1,0.5-0.2,0.3-0.4c-0.5-0.3-1-0.5-1.5-0.8v-2.4c0.7,0.4,1.4,0.8,2.1,1.2c0,0.5,0,1.1,0,1.6c0,0.3,0.4,0.3,0.5,0
		c0-0.5,0-0.9,0-1.4l1.1,0.6c0.1,0.4,0.2,0.9,0.3,1.3c0.1,0.3,0.5,0.2,0.4-0.1c-0.1-0.3-0.1-0.6-0.2-0.9l1,0.6c0,0,0,0,0.1,0
		C183.8,25.9,184.1,25.6,183.8,25.4"/>
	<path class="st0" d="M180.5,54.7l-0.8-0.4c0.2-0.1,0.4-0.1,0.6-0.2c0.2-0.1,0.1-0.3-0.1-0.3c-0.3,0.1-0.6,0.2-0.8,0.3
		c-0.2-0.1-0.5-0.3-0.7-0.4l0.8-0.5c0.2-0.1,0-0.4-0.1-0.3c-0.3,0.2-0.6,0.4-1,0.6c-0.4-0.3-0.9-0.5-1.3-0.8h0c0,0,0,0-0.1,0
		c0,0,0,0,0,0c0,0,0,0,0,0c0,0,0,0,0,0c0.4-0.3,0.9-0.5,1.3-0.8c0.3,0.2,0.6,0.4,0.9,0.6c0.2,0.1,0.3-0.1,0.2-0.2
		c-0.3-0.2-0.5-0.3-0.8-0.5c0.2-0.1,0.5-0.3,0.7-0.4c0.3,0.1,0.6,0.2,0.8,0.3c0.2,0.1,0.3-0.2,0.1-0.3c-0.2-0.1-0.4-0.1-0.6-0.2
		c0.2-0.1,0.5-0.3,0.7-0.4c0,0,0,0,0,0c0.2-0.1,0-0.4-0.1-0.3c-0.3,0.1-0.5,0.3-0.7,0.4c0-0.2,0.1-0.4,0.1-0.6c0-0.2-0.3-0.2-0.3,0
		c-0.1,0.3-0.1,0.6-0.2,0.9l-0.7,0.4c0-0.3,0-0.6,0-0.9c0-0.2-0.3-0.2-0.3,0c0,0.4,0,0.7,0,1.1c-0.5,0.3-0.9,0.5-1.4,0.8v-1.6
		c0.3-0.2,0.6-0.4,0.9-0.5c0.2-0.1,0-0.4-0.1-0.3c-0.3,0.2-0.5,0.3-0.8,0.5v-0.8c0.2-0.2,0.4-0.4,0.7-0.6c0.1-0.1,0-0.4-0.2-0.2
		c-0.2,0.1-0.3,0.3-0.5,0.4v-0.8c0-0.2-0.3-0.2-0.3,0v0.9c-0.2-0.1-0.3-0.3-0.5-0.4c-0.1-0.1-0.3,0.1-0.2,0.2
		c0.2,0.2,0.4,0.4,0.7,0.6v0.8c-0.3-0.1-0.5-0.3-0.8-0.4c-0.2-0.1-0.3,0.2-0.2,0.2c0.3,0.2,0.6,0.4,1,0.5v1.6
		c-0.5-0.3-0.9-0.5-1.4-0.8c0-0.4,0-0.7,0-1.1c0-0.2-0.3-0.2-0.3,0c0,0.3,0,0.6,0,0.9c-0.2-0.1-0.5-0.3-0.7-0.4
		c-0.1-0.3-0.1-0.6-0.2-0.9c0-0.2-0.3-0.1-0.3,0.1l0.1,0.6c-0.2-0.1-0.5-0.3-0.7-0.4c0,0,0,0,0,0c-0.2-0.1-0.3,0.1-0.2,0.2
		c0.2,0.1,0.5,0.3,0.7,0.4c-0.2,0.1-0.4,0.1-0.6,0.2c-0.2,0.1-0.1,0.3,0.1,0.3c0.3-0.1,0.6-0.2,0.8-0.3c0.2,0.1,0.5,0.3,0.7,0.4
		c-0.3,0.2-0.5,0.3-0.8,0.5c-0.2,0.1,0,0.4,0.1,0.3c0.3-0.2,0.6-0.4,1-0.6l1.3,0.8h0c0,0,0,0,0.1,0c0,0,0,0,0,0c0,0,0,0,0,0
		c0,0,0,0,0,0c-0.4,0.3-0.9,0.5-1.3,0.8c-0.3-0.2-0.6-0.4-0.9-0.6c-0.2-0.1-0.3,0.1-0.2,0.2c0.3,0.2,0.5,0.3,0.8,0.5
		c-0.2,0.1-0.5,0.3-0.7,0.4c-0.3-0.1-0.6-0.2-0.8-0.3c-0.2-0.1-0.3,0.2-0.1,0.3l0.6,0.2c-0.2,0.1-0.5,0.3-0.7,0.4c0,0,0,0,0,0
		c-0.2,0.1,0,0.4,0.1,0.3c0.2-0.1,0.5-0.3,0.7-0.4c0,0.2-0.1,0.4-0.1,0.6c0,0.2,0.3,0.2,0.3,0c0.1-0.3,0.1-0.6,0.2-0.9
		c0.2-0.1,0.5-0.3,0.7-0.4c0,0.3,0,0.6,0,0.9c0,0.2,0.3,0.2,0.3,0c0-0.4,0-0.7,0-1.1c0.5-0.3,0.9-0.5,1.4-0.8v1.6
		c-0.3,0.2-0.6,0.4-0.9,0.5c-0.2,0.1,0,0.4,0.1,0.3c0.3-0.2,0.5-0.3,0.8-0.5v0.8c-0.2,0.2-0.5,0.4-0.7,0.6c-0.1,0.1,0,0.4,0.2,0.2
		c0.2-0.1,0.3-0.3,0.5-0.4v0.8c0,0.2,0.3,0.2,0.3,0v-0.9c0.2,0.1,0.3,0.3,0.5,0.4c0.1,0.1,0.3-0.1,0.2-0.2c-0.2-0.2-0.4-0.4-0.7-0.6
		v-0.8c0.3,0.1,0.5,0.3,0.8,0.4c0.2,0.1,0.3-0.2,0.2-0.2c-0.3-0.2-0.6-0.4-1-0.5v-1.6c0.5,0.3,0.9,0.5,1.4,0.8c0,0.4,0,0.7,0,1.1
		c0,0.2,0.3,0.2,0.3,0c0-0.3,0-0.6,0-0.9c0.2,0.1,0.5,0.3,0.7,0.4c0.1,0.3,0.1,0.6,0.2,0.9c0,0.2,0.3,0.1,0.3-0.1l-0.1-0.6l0.7,0.4
		c0,0,0,0,0,0C180.5,55,180.7,54.8,180.5,54.7"/>
	<path class="st0" d="M230.3,47.1C230.3,47.1,230.3,47.1,230.3,47.1c0.1,0,0.1,0.1,0.2,0.1c0,0,0,0,0,0
		C230.4,47.2,230.3,47.2,230.3,47.1 M231.6,47.4C231.6,47.4,231.6,47.4,231.6,47.4c-0.1,0-0.1-0.1-0.2-0.1c0,0,0,0,0,0
		C231.4,47.3,231.5,47.3,231.6,47.4 M231.3,46.7C231.3,46.7,231.4,46.7,231.3,46.7c-0.1,0-0.1,0.1-0.2,0.1c0,0,0,0,0,0
		C231.2,46.8,231.3,46.8,231.3,46.7 M231.6,47.2c-0.1,0-0.2,0.1-0.2,0.1c0,0,0,0,0,0C231.5,47.2,231.5,47.2,231.6,47.2
		C231.6,47.2,231.6,47.2,231.6,47.2 M230.7,47.9c0-0.1,0-0.2,0-0.2l0,0C230.7,47.7,230.7,47.8,230.7,47.9
		C230.7,47.9,230.7,47.9,230.7,47.9 M234,45c-0.3,0.5-1.1,1.2-2.5,1.8c0,0,0,0,0,0c0.5-0.2,1.1-0.5,1.7-0.8c-0.6,0.3-1.1,0.6-1.6,1
		c0,0,0,0,0,0c1.3-0.8,2.3-1.1,2.9-1.1C235.1,45.3,234.9,44.8,234,45 M230.3,47.3c0.1,0,0.1-0.1,0.2-0.1c0,0,0,0,0,0
		C230.4,47.3,230.3,47.3,230.3,47.3C230.3,47.3,230.3,47.3,230.3,47.3 M230.5,47.8C230.5,47.8,230.5,47.8,230.5,47.8
		c0.1,0,0.1-0.1,0.2-0.1c0,0,0,0,0,0C230.6,47.7,230.6,47.7,230.5,47.8 M231.2,46.6c0,0.1,0,0.2,0,0.2c0,0,0,0,0,0
		C231.2,46.8,231.2,46.7,231.2,46.6C231.2,46.6,231.2,46.6,231.2,46.6 M231.1,47.6C231.1,47.6,231.1,47.6,231.1,47.6
		c0.1,0.1,0.1,0.1,0.2,0.2c0,0,0,0,0,0C231.3,47.7,231.2,47.7,231.1,47.6 M231.2,47.9C231.2,47.9,231.2,47.9,231.2,47.9
		c0-0.1,0-0.1,0-0.2c0,0,0,0,0,0C231.1,47.7,231.2,47.8,231.2,47.9 M231,47.9c-0.1,0.6-0.1,1.2-0.1,1.9c0-0.7,0-1.3,0-1.9
		c0,0,0,0,0,0c0.1,1.5-0.2,2.5-0.5,3.1c0.2,0.9,0.8,0.9,1,0C231,50.5,230.8,49.5,231,47.9C231,47.9,231,47.9,231,47.9 M231.6,47.5
		C231.6,47.5,231.6,47.5,231.6,47.5c0.4,0.3,0.9,0.7,1.5,1c-0.6-0.4-1.1-0.7-1.6-0.9c0,0,0,0,0,0c1.4,0.7,2.1,1.4,2.4,2
		c0.8,0.3,1.1-0.2,0.5-0.8C233.8,48.8,232.8,48.4,231.6,47.5 M230.7,46.9C230.7,46.9,230.7,46.9,230.7,46.9
		c-0.1-0.1-0.1-0.1-0.2-0.2c0,0,0,0,0,0C230.6,46.8,230.7,46.8,230.7,46.9 M230.4,47.6c-0.5,0.2-1.1,0.5-1.7,0.8
		c0.6-0.3,1.1-0.6,1.6-1c0,0,0,0,0,0c-1.3,0.8-2.3,1.1-2.9,1.1c-0.6,0.6-0.4,1.1,0.5,0.9C228.2,49,229,48.3,230.4,47.6
		C230.4,47.7,230.4,47.7,230.4,47.6 M230.7,46.6C230.7,46.6,230.7,46.6,230.7,46.6c0,0.1,0,0.1,0,0.2c0,0,0,0,0,0
		C230.7,46.8,230.7,46.7,230.7,46.6 M231,46.6C231,46.6,231,46.6,231,46.6c-0.1-1.6,0.2-2.5,0.5-3.1c-0.2-0.9-0.8-0.9-1,0
		c0.3,0.6,0.5,1.6,0.3,3.1c0,0,0,0,0,0c0.1-0.6,0.1-1.2,0.1-1.9C231,45.4,231,46,231,46.6 M230.3,47C230.3,47,230.3,47,230.3,47
		c-0.4-0.3-0.9-0.7-1.5-1c0.6,0.4,1.1,0.7,1.6,0.9c0,0,0,0,0,0c-1.4-0.7-2.1-1.4-2.4-2c-0.8-0.3-1.1,0.2-0.5,0.8
		C228.1,45.7,229,46.1,230.3,47"/>
	<path class="st0" d="M230.8,47.9C230.8,47.9,230.8,47.9,230.8,47.9c0-0.1,0.1-0.1,0.1-0.2c0,0,0,0,0,0
		C230.8,47.8,230.8,47.8,230.8,47.9 M231.1,46.6C231.1,46.6,231.1,46.6,231.1,46.6c0,0.1-0.1,0.1-0.1,0.2c0,0,0,0,0,0
		C231,46.7,231.1,46.7,231.1,46.6 M230.5,46.8C230.4,46.8,230.4,46.8,230.5,46.8c0,0.1,0.1,0.1,0.1,0.2c0,0,0,0,0,0
		C230.5,46.9,230.5,46.9,230.5,46.8 M230.9,46.6c0,0.1,0,0.2,0.1,0.2c0,0,0,0,0,0C231,46.7,230.9,46.6,230.9,46.6
		C230.9,46.6,230.9,46.6,230.9,46.6 M231.5,47.6c-0.1,0-0.2,0-0.2-0.1l0,0C231.4,47.5,231.4,47.6,231.5,47.6
		C231.5,47.6,231.5,47.6,231.5,47.6 M229,44c0.5,0.4,1.1,1.2,1.6,2.7c0,0,0,0,0,0c-0.2-0.5-0.4-1.1-0.7-1.8c0.3,0.6,0.5,1.2,0.8,1.7
		c0,0,0,0,0,0c-0.7-1.4-0.9-2.4-0.8-3C229.4,42.9,228.8,43.1,229,44 M230.9,47.9c0-0.1,0-0.2-0.1-0.2c0,0,0,0,0,0
		C230.9,47.8,230.9,47.9,230.9,47.9C230.9,47.9,230.9,47.9,230.9,47.9 M231.4,47.7C231.4,47.7,231.4,47.7,231.4,47.7
		c0-0.1-0.1-0.1-0.1-0.2c0,0,0,0,0,0C231.3,47.6,231.4,47.6,231.4,47.7 M230.4,46.9c0.1,0,0.2,0,0.2,0.1c0,0,0,0,0,0
		C230.5,47,230.4,46.9,230.4,46.9C230.3,46.9,230.3,46.9,230.4,46.9 M231.3,47.1C231.3,47.1,231.3,47.1,231.3,47.1
		c0.1-0.1,0.1-0.1,0.2-0.2c0,0,0,0,0,0C231.4,47,231.4,47,231.3,47.1 M231.6,47.1C231.6,47.1,231.6,47.1,231.6,47.1
		c-0.1,0-0.1,0-0.2,0c0,0,0,0,0,0C231.4,47.1,231.5,47.1,231.6,47.1 M231.6,47.2c0.6,0.1,1.2,0.2,1.8,0.3c-0.7-0.1-1.3-0.1-1.9-0.1
		c0,0,0,0,0,0c1.5,0.1,2.5,0.4,3,0.8c0.9-0.1,0.9-0.7,0.1-1C234.2,47.4,233.1,47.5,231.6,47.2C231.6,47.2,231.6,47.2,231.6,47.2
		 M231.3,46.6C231.3,46.6,231.3,46.6,231.3,46.6c0.4-0.4,0.8-0.9,1.2-1.4c-0.4,0.5-0.8,1.1-1,1.5c0,0,0,0,0,0c0.8-1.3,1.6-2,2.2-2.2
		c0.3-0.8-0.1-1.2-0.8-0.6C232.7,44.5,232.3,45.5,231.3,46.6 M230.5,47.4C230.5,47.4,230.5,47.4,230.5,47.4
		c-0.1,0.1-0.1,0.1-0.2,0.2c0,0,0,0,0,0C230.4,47.5,230.5,47.5,230.5,47.4 M231.3,47.8c0.2,0.5,0.4,1.1,0.7,1.8
		c-0.3-0.6-0.5-1.2-0.8-1.7c0,0,0,0,0,0c0.7,1.4,0.9,2.4,0.8,3c0.5,0.7,1.1,0.5,0.9-0.4C232.4,50.1,231.8,49.3,231.3,47.8
		C231.3,47.9,231.3,47.8,231.3,47.8 M230.3,47.4C230.3,47.4,230.3,47.4,230.3,47.4c0.1,0,0.1,0,0.2,0c0,0,0,0,0,0
		C230.4,47.4,230.4,47.4,230.3,47.4 M230.3,47.1C230.3,47.1,230.3,47.1,230.3,47.1c-1.6-0.1-2.5-0.4-3-0.8c-0.9,0.1-0.9,0.7-0.1,1
		c0.6-0.2,1.6-0.3,3.1,0c0,0,0,0,0,0c-0.5-0.1-1.2-0.2-1.8-0.3C229.1,47,229.7,47.1,230.3,47.1 M230.6,47.9
		C230.6,47.9,230.6,47.9,230.6,47.9c-0.4,0.4-0.8,0.9-1.2,1.4c0.4-0.6,0.8-1.1,1-1.5c0,0,0,0,0,0c-0.8,1.3-1.6,2-2.2,2.2
		c-0.3,0.8,0.1,1.2,0.8,0.6C229.2,50,229.6,49,230.6,47.9"/>
	<path class="st0" d="M215.9,59.6c-0.3-0.1-0.5-0.3-0.7-0.4c0.2-0.1,0.4-0.1,0.6-0.2c0.2-0.1,0.1-0.3-0.1-0.3l-0.8,0.3
		c-0.2-0.1-0.5-0.3-0.7-0.4l0.8-0.5c0.2-0.1,0-0.4-0.1-0.3c-0.3,0.2-0.6,0.4-1,0.6c-0.4-0.3-0.9-0.5-1.3-0.8l0,0c0,0-0.1,0-0.1,0
		c0,0,0,0,0,0c0,0,0,0,0,0c0,0,0,0,0,0c0.4-0.3,0.9-0.5,1.3-0.8c0.3,0.2,0.6,0.4,0.9,0.6c0.2,0.1,0.3-0.1,0.2-0.2
		c-0.3-0.2-0.5-0.3-0.8-0.5c0.2-0.1,0.5-0.3,0.7-0.4c0.3,0.1,0.6,0.2,0.8,0.3c0.2,0.1,0.3-0.2,0.1-0.3c-0.2-0.1-0.4-0.1-0.6-0.2
		c0.2-0.1,0.5-0.3,0.7-0.4l0,0c0.2-0.1,0-0.4-0.1-0.3c-0.3,0.1-0.5,0.3-0.7,0.4c0-0.2,0.1-0.4,0.1-0.6c0-0.2-0.3-0.2-0.3,0l-0.2,0.9
		c-0.2,0.1-0.5,0.3-0.7,0.4c0-0.3,0-0.6,0-0.9c0-0.2-0.3-0.2-0.3,0c0,0.4,0,0.7,0,1.1c-0.5,0.3-0.9,0.5-1.4,0.8v-1.6
		c0.3-0.2,0.6-0.4,0.9-0.5c0.2-0.1,0-0.4-0.1-0.3c-0.3,0.2-0.5,0.3-0.8,0.5v-0.8c0.2-0.2,0.5-0.4,0.7-0.6c0.1-0.1,0-0.4-0.2-0.2
		c-0.2,0.1-0.3,0.3-0.5,0.4v-0.8c0-0.2-0.3-0.2-0.3,0v0.9c-0.2-0.1-0.3-0.3-0.5-0.4c-0.1-0.1-0.3,0.1-0.2,0.2
		c0.2,0.2,0.4,0.4,0.7,0.6v0.8l-0.8-0.4c-0.2-0.1-0.3,0.2-0.2,0.2c0.3,0.2,0.6,0.4,1,0.5v1.6c-0.5-0.3-0.9-0.5-1.4-0.8
		c0-0.4,0-0.7,0-1.1c0-0.2-0.3-0.2-0.3,0l0,0.9c-0.2-0.1-0.5-0.3-0.7-0.4c-0.1-0.3-0.1-0.6-0.2-0.9c0-0.2-0.3-0.1-0.3,0.1l0.1,0.6
		c-0.2-0.1-0.5-0.3-0.7-0.4c0,0,0,0,0,0c-0.2-0.1-0.3,0.1-0.2,0.2c0.2,0.1,0.5,0.3,0.7,0.4c-0.2,0.1-0.4,0.1-0.6,0.2
		c-0.2,0.1-0.1,0.3,0.1,0.3c0.3-0.1,0.6-0.2,0.8-0.3c0.2,0.1,0.5,0.3,0.7,0.4c-0.3,0.2-0.5,0.3-0.8,0.5c-0.2,0.1,0,0.4,0.1,0.3
		c0.3-0.2,0.6-0.4,1-0.6l1.3,0.8h0c0,0,0,0,0.1,0c0,0,0,0,0,0c0,0,0,0,0,0c0,0,0,0,0,0c-0.4,0.3-0.9,0.5-1.3,0.8
		c-0.3-0.2-0.6-0.4-0.9-0.6c-0.2-0.1-0.3,0.1-0.2,0.2c0.3,0.2,0.5,0.3,0.8,0.5c-0.2,0.1-0.5,0.3-0.7,0.4c-0.3-0.1-0.6-0.2-0.8-0.3
		c-0.2-0.1-0.3,0.2-0.1,0.3l0.6,0.2c-0.2,0.1-0.5,0.3-0.7,0.4c0,0,0,0,0,0c-0.2,0.1,0,0.4,0.1,0.3c0.3-0.1,0.5-0.3,0.7-0.4
		c0,0.2-0.1,0.4-0.1,0.6c0,0.2,0.3,0.2,0.3,0c0.1-0.3,0.1-0.6,0.2-0.9c0.2-0.1,0.5-0.3,0.7-0.4c0,0.3,0,0.6,0,0.9
		c0,0.2,0.3,0.2,0.3,0c0-0.4,0-0.7,0-1.1c0.5-0.3,0.9-0.5,1.4-0.8v1.6c-0.3,0.2-0.6,0.4-0.9,0.5c-0.2,0.1,0,0.4,0.1,0.3
		c0.3-0.2,0.5-0.3,0.8-0.5v0.8c-0.2,0.2-0.5,0.4-0.7,0.6c-0.1,0.1,0,0.4,0.2,0.2c0.2-0.1,0.3-0.3,0.5-0.4v0.8c0,0.2,0.3,0.2,0.3,0
		V61c0.2,0.1,0.3,0.3,0.5,0.4c0.1,0.1,0.3-0.1,0.2-0.2c-0.2-0.2-0.4-0.4-0.7-0.6v-0.8c0.3,0.1,0.5,0.3,0.8,0.4
		c0.2,0.1,0.3-0.2,0.2-0.2c-0.3-0.2-0.6-0.4-1-0.5v-1.6c0.5,0.3,0.9,0.5,1.4,0.8c0,0.4,0,0.7,0,1.1c0,0.2,0.3,0.2,0.3,0
		c0-0.3,0-0.6,0-0.9c0.2,0.1,0.5,0.3,0.7,0.4c0.1,0.3,0.1,0.6,0.2,0.9c0,0.2,0.3,0.1,0.3-0.1l-0.1-0.6l0.7,0.4c0,0,0,0,0,0
		C215.9,59.9,216.1,59.7,215.9,59.6"/>
	<path class="st0" d="M243.4,67.6c-0.4-0.2-0.8-0.4-1.1-0.7c0.3-0.1,0.6-0.2,0.9-0.3c0.3-0.1,0.1-0.5-0.2-0.4
		c-0.4,0.1-0.8,0.3-1.3,0.4c-0.4-0.2-0.7-0.4-1.1-0.6l1.2-0.7c0.2-0.2,0.1-0.6-0.2-0.4c-0.5,0.3-1,0.6-1.4,0.9
		c-0.7-0.4-1.3-0.8-2-1.1c0,0,0,0,0,0c0,0-0.1,0-0.1-0.1c0,0,0,0,0,0c0,0,0,0,0.1,0l0,0c0.7-0.4,1.3-0.8,2-1.2l1.4,0.8
		c0.3,0.1,0.5-0.2,0.3-0.4c-0.4-0.2-0.8-0.5-1.2-0.7c0.4-0.2,0.7-0.4,1.1-0.6l1.3,0.4c0.3,0.1,0.4-0.3,0.2-0.4
		c-0.3-0.1-0.6-0.2-0.9-0.3c0.3-0.2,0.7-0.4,1-0.6c0,0,0,0,0.1,0c0.3-0.1,0.1-0.6-0.2-0.4c-0.4,0.2-0.8,0.4-1.1,0.7
		c0.1-0.3,0.1-0.6,0.2-1c0.1-0.3-0.4-0.3-0.5,0l-0.3,1.3c-0.4,0.2-0.7,0.4-1.1,0.6c0-0.5,0-0.9,0-1.4c0-0.3-0.5-0.3-0.5,0
		c0,0.6,0,1.1,0,1.7c-0.7,0.4-1.4,0.8-2.1,1.2v-2.4c0.5-0.3,1-0.5,1.4-0.8c0.3-0.1,0.1-0.6-0.2-0.4c-0.4,0.2-0.8,0.5-1.2,0.7v-1.3
		c0.3-0.3,0.7-0.6,1-0.9c0.2-0.2-0.1-0.5-0.3-0.3c-0.2,0.2-0.5,0.4-0.7,0.6v-1.3c0-0.3-0.5-0.3-0.5,0v1.3l-0.7-0.6
		c-0.2-0.2-0.5,0.2-0.3,0.4c0.3,0.3,0.7,0.6,1,0.9v1.3c-0.4-0.2-0.8-0.4-1.2-0.7c-0.3-0.1-0.5,0.2-0.3,0.4c0.5,0.3,1,0.5,1.5,0.8
		v2.4c-0.7-0.4-1.4-0.8-2.1-1.2c0-0.5,0-1.1,0-1.6c0-0.3-0.4-0.3-0.5,0c0,0.5,0,0.9,0,1.4l-1.1-0.6c-0.1-0.4-0.2-0.9-0.3-1.3
		c-0.1-0.3-0.5-0.2-0.4,0.1l0.2,0.9c-0.3-0.2-0.7-0.4-1-0.6c0,0,0,0-0.1,0c-0.3-0.1-0.5,0.2-0.3,0.4c0.4,0.2,0.8,0.4,1.1,0.7
		c-0.3,0.1-0.6,0.2-0.9,0.3c-0.3,0.1-0.1,0.5,0.2,0.4c0.4-0.1,0.8-0.3,1.3-0.4c0.4,0.2,0.7,0.4,1.1,0.6c-0.4,0.2-0.8,0.5-1.2,0.7
		c-0.2,0.1-0.1,0.6,0.2,0.4c0.5-0.3,1-0.6,1.4-0.9l2,1.1c0,0,0,0,0,0c0,0,0.1,0,0.1,0.1c0,0,0,0,0,0c0,0,0,0-0.1,0l0,0
		c-0.7,0.4-1.3,0.8-2,1.2c-0.5-0.3-0.9-0.6-1.4-0.8c-0.3-0.1-0.5,0.2-0.3,0.4c0.4,0.2,0.8,0.5,1.2,0.7c-0.4,0.2-0.7,0.4-1.1,0.6
		l-1.3-0.4c-0.3-0.1-0.4,0.3-0.2,0.4l0.9,0.3c-0.3,0.2-0.7,0.4-1,0.6c0,0,0,0-0.1,0c-0.3,0.1-0.1,0.6,0.2,0.4
		c0.4-0.2,0.8-0.4,1.1-0.7c-0.1,0.3-0.1,0.6-0.2,1c-0.1,0.3,0.4,0.3,0.5,0l0.3-1.3c0.4-0.2,0.7-0.4,1.1-0.6c0,0.5,0,0.9,0,1.4
		c0,0.3,0.5,0.3,0.5,0c0-0.6,0-1.1,0-1.7c0.7-0.4,1.4-0.8,2.1-1.2v2.4c-0.5,0.3-1,0.5-1.4,0.8c-0.3,0.1-0.1,0.6,0.2,0.4
		c0.4-0.2,0.8-0.5,1.2-0.7v1.3c-0.3,0.3-0.7,0.6-1,0.9c-0.2,0.2,0.1,0.5,0.3,0.3c0.2-0.2,0.5-0.4,0.7-0.6V71c0,0.3,0.5,0.3,0.5,0
		v-1.3c0.2,0.2,0.5,0.4,0.7,0.6c0.2,0.2,0.5-0.2,0.3-0.4c-0.3-0.3-0.7-0.6-1-0.9v-1.3c0.4,0.2,0.8,0.4,1.2,0.7
		c0.3,0.1,0.5-0.2,0.3-0.4c-0.5-0.3-1-0.5-1.5-0.8v-2.4c0.7,0.4,1.4,0.8,2.1,1.2c0,0.5,0,1.1,0,1.6c0,0.3,0.4,0.3,0.5,0
		c0-0.5,0-0.9,0-1.4l1.1,0.6c0.1,0.4,0.2,0.9,0.3,1.3c0.1,0.3,0.5,0.2,0.4-0.1c-0.1-0.3-0.1-0.6-0.2-1l1,0.6c0,0,0,0,0.1,0
		C243.4,68.1,243.7,67.7,243.4,67.6"/>
	<path class="st0" d="M199.7,9.7C202,11.1,202.3,10.4,199.7,9.7 M189.6,5.3C187.3,3.9,187,4.6,189.6,5.3 M192.4,12.5
		C191,14.8,191.7,15.1,192.4,12.5 M196.8,2.5c-0.5,0.8-1.2,1.8-2.2,3c-1-1.2-1.6-2.2-2-3c0.2,0.9,0.4,2.1,0.6,3.6
		c-1.5-0.2-2.7-0.4-3.6-0.7c0.8,0.5,1.8,1.2,3,2.2c-1.2,1-2.2,1.6-3,2c0.9-0.2,2.1-0.4,3.6-0.6c-0.2,1.5-0.4,2.7-0.7,3.6
		c0.5-0.8,1.2-1.8,2.2-3c1,1.2,1.6,2.2,2,3c-0.2-0.9-0.4-2.1-0.6-3.6c1.5,0.2,2.7,0.4,3.6,0.7c-0.8-0.5-1.8-1.2-3-2.2
		c1.2-1,2.2-1.6,3-2c-0.9,0.2-2.1,0.4-3.6,0.6C196.3,4.5,196.6,3.3,196.8,2.5 M196.8,2.5C198.2,0.1,197.6-0.1,196.8,2.5 M192.6,2.4
		C192-0.2,191.3,0,192.6,2.4 M199.7,5.5C202.4,4.8,202.1,4.2,199.7,5.5 M196.6,12.6C197.3,15.2,198,15,196.6,12.6 M189.5,9.5
		C186.9,10.2,187.2,10.8,189.5,9.5"/>
	<path class="st0" d="M200.1,7.8C202.8,8.2,202.8,7.5,200.1,7.8 M189.2,7.2C186.5,6.7,186.5,7.5,189.2,7.2 M194.4,13
		C193.9,15.6,194.6,15.7,194.4,13 M194.9,2c-0.2,0.9-0.5,2.1-1,3.5c-1.3-0.8-2.3-1.5-3-2.1c0.5,0.7,1.1,1.8,1.8,3.2
		c-1.5,0.4-2.7,0.5-3.6,0.6c0.9,0.2,2.1,0.5,3.5,1c-0.8,1.3-1.5,2.3-2.1,3c0.7-0.5,1.8-1.1,3.2-1.8c0.4,1.5,0.5,2.7,0.6,3.6
		c0.2-0.9,0.5-2.1,1-3.5c1.3,0.8,2.3,1.5,3,2.1c-0.5-0.7-1.1-1.8-1.8-3.2c1.5-0.4,2.7-0.5,3.6-0.6c-0.9-0.2-2.1-0.5-3.5-1
		c0.8-1.3,1.5-2.3,2.1-3c-0.7,0.5-1.8,1.1-3.2,1.8C195.2,4.1,195,2.9,194.9,2 M194.9,2C195.4-0.7,194.7-0.7,194.9,2 M190.9,3.4
		C189.4,1.2,188.9,1.7,190.9,3.4 M198.7,3.8C200.9,2.3,200.4,1.7,198.7,3.8 M198.3,11.6C199.9,13.8,200.4,13.3,198.3,11.6
		 M190.6,11.2C188.3,12.7,188.8,13.2,190.6,11.2"/>
	<path class="st0" d="M176,85.3C176,85.3,175.9,85.3,176,85.3c0.1,0,0.3,0,0.5-0.1c0,0,0,0,0,0C176.3,85.3,176.1,85.3,176,85.3
		 M178.5,84.3C178.5,84.3,178.5,84.3,178.5,84.3c-0.1,0-0.3,0-0.5,0c0,0,0,0,0,0C178.2,84.4,178.3,84.4,178.5,84.3 M177.4,83.5
		C177.4,83.5,177.4,83.5,177.4,83.5c-0.1,0.1-0.1,0.3-0.2,0.4c0,0,0,0,0,0C177.3,83.8,177.4,83.6,177.4,83.5 M178.3,84
		c-0.1,0.1-0.2,0.2-0.3,0.4c0,0,0,0,0,0C178.1,84.3,178.2,84.1,178.3,84C178.3,84,178.3,84,178.3,84 M177.4,86.2
		c0-0.2-0.1-0.3-0.2-0.4l0,0C177.3,85.9,177.3,86,177.4,86.2C177.4,86.2,177.4,86.2,177.4,86.2 M180.4,77.8
		c-0.1,1.2-0.8,3.2-2.6,5.7c0,0,0,0,0,0c0.7-0.9,1.4-1.9,2.1-3.1c-0.7,1.2-1.3,2.3-1.8,3.3c0,0,0,0,0,0c1.4-2.7,2.9-4.2,4-4.9
		C182.6,77.2,181.6,76.6,180.4,77.8 M176.1,85.6c0.1-0.1,0.2-0.2,0.3-0.4c0,0,0,0,0,0C176.3,85.4,176.2,85.5,176.1,85.6
		C176.1,85.6,176.1,85.6,176.1,85.6 M177,86.1C177,86.2,177,86.2,177,86.1c0.1-0.1,0.1-0.3,0.2-0.4c0,0,0,0,0,0
		C177.1,85.9,177.1,86,177,86.1 M177.1,83.5c0.1,0.2,0.1,0.3,0.2,0.4c0,0,0,0,0,0C177.2,83.8,177.1,83.6,177.1,83.5
		C177.1,83.5,177.1,83.5,177.1,83.5 M178,85.3C178,85.3,178,85.3,178,85.3c0.2,0,0.3,0.1,0.5,0.1c0,0,0,0,0,0
		C178.3,85.3,178.1,85.3,178,85.3 M178.3,85.7C178.3,85.7,178.3,85.7,178.3,85.7c-0.1-0.1-0.2-0.2-0.3-0.4c0,0,0,0,0,0
		C178.1,85.4,178.2,85.5,178.3,85.7 M178,86c0.4,1.1,1,2.2,1.6,3.4c-0.7-1.2-1.3-2.3-1.9-3.3c0,0,0,0,0,0c1.7,2.6,2.2,4.6,2.2,5.9
		c1.2,1.3,2.2,0.8,1.8-1C180.7,90.4,179.3,88.8,178,86C178,86,178,86,178,86 M178.6,84.7C178.6,84.7,178.6,84.7,178.6,84.7
		c1.1,0.2,2.3,0.3,3.7,0.3c-1.4,0-2.6,0-3.8,0.1c0,0,0,0,0,0c3.1-0.1,5.1,0.4,6.2,1c1.7-0.4,1.8-1.5,0.1-2
		C183.8,84.6,181.7,85,178.6,84.7 M176.5,84.4C176.5,84.4,176.5,84.4,176.5,84.4c-0.2,0-0.3-0.1-0.5-0.1c0,0,0,0,0,0
		C176.2,84.3,176.3,84.3,176.5,84.4 M176.6,86.1c-0.7,0.9-1.4,1.9-2.1,3.1c0.7-1.2,1.3-2.3,1.8-3.3c0,0,0,0,0,0
		c-1.4,2.7-2.9,4.2-4,4.9c-0.6,1.7,0.5,2.3,1.7,1.1C174.1,90.6,174.8,88.6,176.6,86.1C176.6,86.1,176.6,86.1,176.6,86.1 M176.2,84
		C176.2,84,176.2,84,176.2,84c0.1,0.1,0.2,0.2,0.3,0.4c0,0,0,0,0,0C176.4,84.2,176.3,84.1,176.2,84 M176.7,83.5
		C176.7,83.5,176.7,83.5,176.7,83.5c-1.7-2.7-2.2-4.7-2.2-5.9c-1.2-1.3-2.2-0.8-1.8,1c1,0.7,2.4,2.3,3.7,5.1l0,0
		c-0.4-1.1-1-2.2-1.6-3.4C175.4,81.5,176.1,82.6,176.7,83.5 M175.8,85C175.8,85,175.8,85,175.8,85c-1.1-0.2-2.3-0.3-3.7-0.3
		c1.4,0,2.6,0,3.8-0.1c0,0,0,0,0,0c-3.1,0.1-5.1-0.4-6.2-1c-1.7,0.4-1.8,1.5-0.1,2C170.7,85,172.7,84.7,175.8,85"/>
	<path class="st0" d="M176,85.3C176,85.3,175.9,85.3,176,85.3c0.1,0,0.3,0,0.5-0.1c0,0,0,0,0,0C176.3,85.3,176.1,85.3,176,85.3z
		 M178.5,84.3C178.5,84.3,178.5,84.3,178.5,84.3c-0.1,0-0.3,0-0.5,0c0,0,0,0,0,0C178.2,84.4,178.3,84.4,178.5,84.3z M177.4,83.5
		C177.4,83.5,177.4,83.5,177.4,83.5c-0.1,0.1-0.1,0.3-0.2,0.4c0,0,0,0,0,0C177.3,83.8,177.4,83.6,177.4,83.5z M178.3,84
		c-0.1,0.1-0.2,0.2-0.3,0.4c0,0,0,0,0,0C178.1,84.3,178.2,84.1,178.3,84C178.3,84,178.3,84,178.3,84z M177.4,86.2
		c0-0.2-0.1-0.3-0.2-0.4l0,0C177.3,85.9,177.3,86,177.4,86.2C177.4,86.2,177.4,86.2,177.4,86.2z M180.4,77.8
		c-0.1,1.2-0.8,3.2-2.6,5.7c0,0,0,0,0,0c0.7-0.9,1.4-1.9,2.1-3.1c-0.7,1.2-1.3,2.3-1.8,3.3c0,0,0,0,0,0c1.4-2.7,2.9-4.2,4-4.9
		C182.6,77.2,181.6,76.6,180.4,77.8z M176.1,85.6c0.1-0.1,0.2-0.2,0.3-0.4c0,0,0,0,0,0C176.3,85.4,176.2,85.5,176.1,85.6
		C176.1,85.6,176.1,85.6,176.1,85.6z M177,86.1C177,86.2,177,86.2,177,86.1c0.1-0.1,0.1-0.3,0.2-0.4c0,0,0,0,0,0
		C177.1,85.9,177.1,86,177,86.1z M177.1,83.5c0.1,0.2,0.1,0.3,0.2,0.4c0,0,0,0,0,0C177.2,83.8,177.1,83.6,177.1,83.5
		C177.1,83.5,177.1,83.5,177.1,83.5z M178,85.3C178,85.3,178,85.3,178,85.3c0.2,0,0.3,0.1,0.5,0.1c0,0,0,0,0,0
		C178.3,85.3,178.1,85.3,178,85.3z M178.3,85.7C178.3,85.7,178.3,85.7,178.3,85.7c-0.1-0.1-0.2-0.2-0.3-0.4c0,0,0,0,0,0
		C178.1,85.4,178.2,85.5,178.3,85.7z M178,86c0.4,1.1,1,2.2,1.6,3.4c-0.7-1.2-1.3-2.3-1.9-3.3c0,0,0,0,0,0c1.7,2.6,2.2,4.6,2.2,5.9
		c1.2,1.3,2.2,0.8,1.8-1C180.7,90.4,179.3,88.8,178,86C178,86,178,86,178,86z M178.6,84.7C178.6,84.7,178.6,84.7,178.6,84.7
		c1.1,0.2,2.3,0.3,3.7,0.3c-1.4,0-2.6,0-3.8,0.1c0,0,0,0,0,0c3.1-0.1,5.1,0.4,6.2,1c1.7-0.4,1.8-1.5,0.1-2
		C183.8,84.6,181.7,85,178.6,84.7z M176.5,84.4C176.5,84.4,176.5,84.4,176.5,84.4c-0.2,0-0.3-0.1-0.5-0.1c0,0,0,0,0,0
		C176.2,84.3,176.3,84.3,176.5,84.4z M176.6,86.1c-0.7,0.9-1.4,1.9-2.1,3.1c0.7-1.2,1.3-2.3,1.8-3.3c0,0,0,0,0,0
		c-1.4,2.7-2.9,4.2-4,4.9c-0.6,1.7,0.5,2.3,1.7,1.1C174.1,90.6,174.8,88.6,176.6,86.1C176.6,86.1,176.6,86.1,176.6,86.1z M176.2,84
		C176.2,84,176.2,84,176.2,84c0.1,0.1,0.2,0.2,0.3,0.4c0,0,0,0,0,0C176.4,84.2,176.3,84.1,176.2,84z M176.7,83.5
		C176.7,83.5,176.7,83.5,176.7,83.5c-1.7-2.7-2.2-4.7-2.2-5.9c-1.2-1.3-2.2-0.8-1.8,1c1,0.7,2.4,2.3,3.7,5.1l0,0
		c-0.4-1.1-1-2.2-1.6-3.4C175.4,81.5,176.1,82.6,176.7,83.5z M175.8,85C175.8,85,175.8,85,175.8,85c-1.1-0.2-2.3-0.3-3.7-0.3
		c1.4,0,2.6,0,3.8-0.1c0,0,0,0,0,0c-3.1,0.1-5.1-0.4-6.2-1c-1.7,0.4-1.8,1.5-0.1,2C170.7,85,172.7,84.7,175.8,85z"/>
	<path class="st0" d="M175.9,84.6C175.9,84.6,175.9,84.6,175.9,84.6c0.1,0.1,0.3,0.1,0.4,0.2c0,0,0,0,0,0
		C176.2,84.7,176,84.7,175.9,84.6 M178.5,85C178.6,85,178.6,85,178.5,85c-0.1-0.1-0.3-0.1-0.4-0.2c0,0,0,0,0,0
		C178.3,84.9,178.4,85,178.5,85 M178.1,83.8C178.1,83.8,178.1,83.8,178.1,83.8c-0.1,0.1-0.2,0.2-0.4,0.3c0,0,0,0,0,0
		C177.8,84,177.9,83.9,178.1,83.8 M178.6,84.7c-0.2,0.1-0.3,0.1-0.5,0.2c0,0,0,0,0,0C178.3,84.8,178.4,84.7,178.6,84.7
		C178.6,84.7,178.6,84.7,178.6,84.7 M176.7,86c0-0.2,0.1-0.3,0.1-0.5l0,0C176.7,85.8,176.7,85.9,176.7,86
		C176.7,86.1,176.7,86.1,176.7,86 M183.5,80.3c-0.7,1-2.3,2.4-5.1,3.7c0,0,0,0,0,0c1.1-0.4,2.2-1,3.4-1.6c-1.2,0.7-2.3,1.3-3.2,1.9
		c0,0,0,0,0,0c2.6-1.7,4.6-2.2,5.9-2.2C185.7,80.9,185.2,79.9,183.5,80.3 M175.9,85c0.2-0.1,0.3-0.1,0.5-0.2c0,0,0,0,0,0
		C176.2,84.9,176,84.9,175.9,85C175.9,85,175.9,85,175.9,85 M176.4,85.9C176.4,85.9,176.4,85.9,176.4,85.9c0.1-0.1,0.2-0.2,0.4-0.3
		c0,0,0,0,0,0C176.6,85.7,176.5,85.8,176.4,85.9 M177.8,83.6c0,0.2-0.1,0.3-0.1,0.5l0,0C177.7,83.9,177.8,83.7,177.8,83.6
		C177.8,83.6,177.8,83.6,177.8,83.6 M177.6,85.6C177.6,85.6,177.6,85.6,177.6,85.6c0.1,0.1,0.3,0.2,0.4,0.3c0,0,0,0,0,0
		C177.9,85.8,177.8,85.7,177.6,85.6 M177.7,86.1C177.7,86.1,177.7,86.1,177.7,86.1c0-0.1,0-0.3-0.1-0.5c0,0,0,0,0,0
		C177.7,85.8,177.7,85.9,177.7,86.1 M177.4,86.2c-0.1,1.1-0.2,2.4-0.3,3.8c0-1.4,0-2.6-0.1-3.8c0,0,0,0,0,0c0.1,3.1-0.4,5.1-1,6.2
		c0.4,1.7,1.5,1.8,2,0.1C177.4,91.4,177.1,89.3,177.4,86.2C177.4,86.2,177.4,86.2,177.4,86.2 M178.5,85.4
		C178.5,85.4,178.5,85.4,178.5,85.4c0.9,0.7,1.9,1.4,3.1,2.1c-1.2-0.7-2.3-1.3-3.3-1.8c0,0,0,0,0,0c2.7,1.4,4.2,2.9,4.9,4
		c1.7,0.5,2.3-0.5,1.1-1.7C183,87.9,181,87.2,178.5,85.4 M176.8,84L176.8,84c-0.1-0.1-0.3-0.2-0.4-0.3c0,0,0,0,0,0
		C176.6,83.8,176.7,83.9,176.8,84 M176.1,85.6c-1.1,0.4-2.2,1-3.4,1.6c1.2-0.7,2.3-1.3,3.3-1.9c0,0,0,0,0,0
		c-2.6,1.7-4.6,2.2-5.9,2.2c-1.3,1.2-0.8,2.2,1,1.8C171.7,88.3,173.2,86.9,176.1,85.6C176.1,85.6,176.1,85.6,176.1,85.6 M176.7,83.6
		C176.7,83.6,176.7,83.5,176.7,83.6c0,0.1,0,0.3,0.1,0.5c0,0,0,0,0,0C176.8,83.9,176.8,83.7,176.7,83.6 M177.4,83.5
		C177.4,83.4,177.4,83.4,177.4,83.5c-0.1-3.1,0.4-5.2,1-6.2c-0.4-1.7-1.5-1.8-2-0.1c0.6,1.1,1,3.2,0.6,6.2l0,0
		c0.1-1.1,0.2-2.4,0.3-3.8C177.3,81.1,177.4,82.3,177.4,83.5 M175.9,84.2C175.9,84.2,176,84.2,175.9,84.2c-0.9-0.7-1.9-1.4-3.1-2.1
		c1.2,0.7,2.3,1.3,3.3,1.8c0,0,0,0,0,0c-2.7-1.4-4.2-2.9-4.9-4c-1.7-0.6-2.3,0.5-1.1,1.7C171.4,81.7,173.4,82.4,175.9,84.2"/>
	<path class="st0" d="M239.9,105.7c-0.4-0.2-0.8-0.4-1.1-0.7c0.3-0.1,0.6-0.2,0.9-0.3c0.3-0.1,0.1-0.5-0.2-0.4
		c-0.4,0.1-0.8,0.3-1.3,0.4c-0.4-0.2-0.7-0.4-1.1-0.6l1.2-0.7c0.2-0.1,0.1-0.6-0.2-0.4c-0.5,0.3-1,0.6-1.4,0.9
		c-0.7-0.4-1.3-0.8-2-1.1c0,0,0,0,0,0c0,0-0.1,0-0.1-0.1c0,0,0,0,0,0c0,0,0,0,0.1,0l0,0c0.7-0.4,1.3-0.8,2-1.2l1.4,0.8
		c0.3,0.2,0.5-0.2,0.3-0.4c-0.4-0.2-0.8-0.5-1.2-0.7c0.4-0.2,0.7-0.4,1.1-0.6l1.3,0.4c0.3,0.1,0.4-0.3,0.2-0.4
		c-0.3-0.1-0.6-0.2-0.9-0.3c0.3-0.2,0.7-0.4,1-0.6c0,0,0,0,0.1,0c0.3-0.1,0.1-0.6-0.2-0.4c-0.4,0.2-0.8,0.4-1.1,0.7
		c0.1-0.3,0.1-0.6,0.2-1c0.1-0.3-0.4-0.3-0.5,0l-0.3,1.3c-0.4,0.2-0.7,0.4-1.1,0.6c0-0.5,0-0.9,0-1.4c0-0.3-0.5-0.3-0.5,0
		c0,0.6,0,1.1,0,1.7c-0.7,0.4-1.4,0.8-2.1,1.2v-2.4c0.5-0.3,1-0.5,1.4-0.8c0.3-0.1,0.1-0.6-0.2-0.4c-0.4,0.2-0.8,0.5-1.2,0.7v-1.3
		c0.3-0.3,0.7-0.6,1-0.9c0.2-0.2-0.1-0.5-0.3-0.3c-0.2,0.2-0.5,0.4-0.7,0.6v-1.3c0-0.3-0.5-0.3-0.5,0v1.3l-0.7-0.6
		c-0.2-0.2-0.5,0.2-0.3,0.4c0.3,0.3,0.7,0.6,1,0.9v1.3c-0.4-0.2-0.8-0.4-1.2-0.7c-0.3-0.1-0.5,0.2-0.3,0.4c0.5,0.3,1,0.5,1.5,0.8
		v2.4c-0.7-0.4-1.4-0.8-2.1-1.2c0-0.5,0-1.1,0-1.6c0-0.3-0.4-0.3-0.5,0c0,0.5,0,0.9,0,1.4l-1.1-0.6c-0.1-0.4-0.2-0.9-0.3-1.3
		c-0.1-0.3-0.5-0.2-0.4,0.1l0.2,1c-0.3-0.2-0.7-0.4-1-0.6c0,0,0,0-0.1,0c-0.3-0.1-0.5,0.2-0.3,0.4c0.4,0.2,0.8,0.4,1.1,0.7
		c-0.3,0.1-0.6,0.2-0.9,0.3c-0.3,0.1-0.1,0.5,0.2,0.4c0.4-0.1,0.8-0.3,1.3-0.4c0.4,0.2,0.7,0.4,1.1,0.6c-0.4,0.2-0.8,0.5-1.2,0.7
		c-0.2,0.1-0.1,0.6,0.2,0.4c0.5-0.3,1-0.6,1.4-0.9l2,1.1c0,0,0,0,0,0c0,0,0.1,0,0.1,0.1c0,0,0,0,0,0c0,0,0,0-0.1,0l0,0
		c-0.7,0.4-1.3,0.8-2,1.2c-0.5-0.3-0.9-0.6-1.4-0.8c-0.3-0.1-0.5,0.2-0.3,0.4c0.4,0.2,0.8,0.5,1.2,0.7c-0.4,0.2-0.7,0.4-1.1,0.6
		l-1.3-0.4c-0.3-0.1-0.4,0.3-0.2,0.4l0.9,0.3c-0.3,0.2-0.7,0.4-1,0.6c0,0,0,0-0.1,0c-0.3,0.1-0.1,0.6,0.2,0.4
		c0.4-0.2,0.8-0.4,1.1-0.7c-0.1,0.3-0.1,0.6-0.2,1c-0.1,0.3,0.4,0.3,0.5,0l0.3-1.3c0.4-0.2,0.7-0.4,1.1-0.6c0,0.5,0,0.9,0,1.4
		c0,0.3,0.5,0.3,0.5,0c0-0.6,0-1.1,0-1.7c0.7-0.4,1.4-0.8,2.1-1.2v2.4c-0.5,0.3-1,0.5-1.4,0.8c-0.3,0.1-0.1,0.6,0.2,0.4
		c0.4-0.2,0.8-0.5,1.2-0.7v1.3c-0.3,0.3-0.7,0.6-1,0.9c-0.2,0.2,0.1,0.5,0.3,0.3c0.2-0.2,0.5-0.4,0.7-0.6v1.3c0,0.3,0.5,0.3,0.5,0
		v-1.3c0.2,0.2,0.5,0.4,0.7,0.6c0.2,0.2,0.5-0.2,0.3-0.4c-0.3-0.3-0.7-0.6-1-0.9V106c0.4,0.2,0.8,0.4,1.2,0.7
		c0.3,0.1,0.5-0.2,0.3-0.4c-0.5-0.3-1-0.5-1.5-0.8V103c0.7,0.4,1.4,0.8,2.1,1.2c0,0.5,0,1.1,0,1.6c0,0.3,0.4,0.3,0.5,0
		c0-0.5,0-0.9,0-1.4l1.1,0.6c0.1,0.4,0.2,0.9,0.3,1.3c0.1,0.3,0.5,0.2,0.4-0.1c-0.1-0.3-0.1-0.6-0.2-1l1,0.6c0,0,0,0,0.1,0
		C239.8,106.2,240.1,105.8,239.9,105.7"/>
	<path class="st0" d="M252.8,75.2C254.6,76.2,254.8,75.7,252.8,75.2 M245.2,71.9C243.5,70.8,243.3,71.3,245.2,71.9 M247.4,77.3
		C246.3,79.1,246.8,79.3,247.4,77.3 M250.7,69.7c-0.4,0.6-0.9,1.3-1.6,2.2c-0.7-0.9-1.2-1.7-1.5-2.3c0.2,0.7,0.3,1.6,0.4,2.7
		c-1.2-0.1-2.1-0.3-2.7-0.5c0.6,0.4,1.3,0.9,2.2,1.6c-0.9,0.7-1.7,1.2-2.3,1.5c0.7-0.2,1.6-0.3,2.7-0.4c-0.1,1.2-0.3,2.1-0.5,2.7
		c0.4-0.6,0.9-1.3,1.6-2.2c0.7,0.9,1.2,1.7,1.5,2.3c-0.2-0.7-0.3-1.6-0.4-2.7c1.2,0.1,2.1,0.3,2.7,0.5c-0.6-0.4-1.3-0.9-2.2-1.6
		c0.9-0.7,1.7-1.2,2.3-1.5c-0.7,0.2-1.6,0.3-2.7,0.4C250.3,71.3,250.5,70.4,250.7,69.7 M250.7,69.7C251.7,68,251.3,67.7,250.7,69.7
		 M247.5,69.7C247,67.7,246.5,67.9,247.5,69.7 M252.9,72C254.9,71.5,254.7,71,252.9,72 M250.6,77.4C251,79.3,251.6,79.2,250.6,77.4
		 M245.2,75C243.2,75.5,243.4,76,245.2,75"/>
	<path class="st0" d="M253.2,73.7C255.2,74.1,255.2,73.5,253.2,73.7 M244.9,73.3C242.9,72.9,242.9,73.5,244.9,73.3 M248.8,77.7
		C248.5,79.7,249,79.7,248.8,77.7 M249.2,69.4c-0.1,0.7-0.3,1.6-0.7,2.7c-1-0.6-1.7-1.2-2.3-1.6c0.4,0.6,0.9,1.3,1.4,2.4
		c-1.1,0.3-2,0.4-2.7,0.5c0.7,0.1,1.6,0.3,2.7,0.7c-0.6,1-1.2,1.7-1.6,2.3c0.6-0.4,1.3-0.9,2.4-1.4c0.3,1.1,0.4,2,0.5,2.7
		c0.1-0.7,0.3-1.6,0.7-2.7c1,0.6,1.7,1.2,2.3,1.6c-0.4-0.6-0.9-1.3-1.4-2.4c1.1-0.3,2-0.4,2.7-0.5c-0.7-0.1-1.6-0.3-2.7-0.7
		c0.6-1,1.2-1.7,1.6-2.3c-0.6,0.4-1.3,0.9-2.4,1.4C249.4,71,249.3,70,249.2,69.4 M249.2,69.4C249.6,67.4,249.1,67.3,249.2,69.4
		 M246.3,70.4C245.1,68.8,244.7,69.1,246.3,70.4 M252.1,70.7C253.8,69.6,253.4,69.2,252.1,70.7 M251.8,76.6
		C253,78.3,253.4,77.9,251.8,76.6 M246,76.3C244.3,77.5,244.7,77.9,246,76.3"/>
	<path class="st0" d="M23.5,292.2c0,0.7,0,1.2-0.1,1.5c-0.1,0.5-0.4,0.8-1,1.1c-1.3,0.7-3.7,1.1-7,1.1H6.9c-0.4-0.4-0.6-0.9-0.7-1.6
		c0-0.3-0.1-0.6-0.1-0.9c0-0.3,0-0.6-0.1-0.9c-0.2-1.9-0.4-3.7-0.5-5.4c-0.1-1.7-0.2-3.4-0.2-4.9v-12.1c0-0.1,0.1-0.3,0.2-0.6
		c0.1-0.3,0.2-0.4,0.3-0.4h6.6l1.2,20.4h8.7C23.2,289.7,23.5,290.5,23.5,292.2z"/>
	<path class="st0" d="M44.3,295.5H39c-0.4,0-0.8-0.6-1.2-1.7c-0.4-1.1-0.8-1.7-1.3-1.7h-4.8c-0.5,0-0.7,0.6-0.8,1.9
		c-0.1,1.3-0.3,1.9-0.6,1.9h-5c0-1.5,0.1-3.5,0.4-5.9c0.3-2.5,0.7-5.4,1.3-8.9c0.4-2.3,0.9-4.9,1.6-7.7c0.1-0.4,0.2-0.8,0.3-1.3
		c0.1-0.5,0.3-1.1,0.5-1.8c0.4-1,1.6-1.5,3.5-1.5h1.6c0.7,0,1.3,0,1.6,0c1.2,1.5,2.9,5.6,5.3,12.4c2.3,6.8,3.5,11.2,3.5,13.1v0.3
		C44.6,295,44.5,295.3,44.3,295.5z M35.2,284c0-2.7-0.2-4-0.7-4h-1.2c-0.5,0.5-0.8,2.5-0.8,5.7c1,0,1.6-0.1,1.9-0.2
		C35,285.3,35.2,284.8,35.2,284z"/>
	<path class="st0" d="M62.6,276.1c0,2.3-0.3,4.3-1,5.8l-0.5,0.5c-0.4,0.4-0.7,1-1,1.9c-0.9,1.1-2.9,2.2-5.9,3.4
		c-0.5-0.2-0.9,0.1-1.3,1c-0.1,0.2-0.1,0.3-0.1,0.4v5.4c0,1-0.9,1.5-2.6,1.5c-1.5,0-2.4-0.1-2.7-0.4c-0.3-0.2-0.4-0.8-0.5-1.6
		c0-0.3-0.1-0.7-0.1-1.2c0-0.5,0-1,0-1.7l-0.3-6.5c0-1.7-0.1-3.3-0.1-4.9c0-1.6,0-3.2,0-4.7c0-3.4,0.2-5.7,0.5-6.8
		c0.1-0.5,0.4-0.8,1-1.1c0.7-0.3,1.6-0.5,2.7-0.5c2.6,0,4.6,0.2,5.9,0.7c1.9,0.7,3.4,1.8,4.4,3.3C62.1,272.2,62.6,274,62.6,276.1z
		 M56.8,276.8c0-3.4-0.9-5.1-2.7-5.1c-0.2,0-0.4,0.1-0.7,0.4c-0.3,0.3-0.5,0.5-0.5,0.6v9.6c1.4,0,2.4-0.6,3.1-1.8
		C56.5,279.5,56.8,278.3,56.8,276.8z"/>
	<path class="st0" d="M66.3,296l-0.5-1.5c-0.1-0.2-0.2-1.4-0.4-3.5c-0.4-4.7-0.7-8.5-0.9-11.5c-0.2-3-0.3-5.1-0.3-6.5
		c0-0.2,0-0.4,0-0.7c0-0.3,0-0.6,0-1c0-0.7,0.1-1.3,0.1-1.6l0.5-0.5h6.8c0.1,0.6,0.1,1.4,0.2,2.4c0.1,0.9,0.2,2.1,0.3,3.3
		c0.8,10.1,1.2,17.1,1.2,21H66.3z"/>
	<path class="st0" d="M95.3,292.3c0,1.2-0.1,2.1-0.1,2.7c-0.9,0.7-2.4,1-4.5,1c-0.6,0-1-0.1-1.3-0.3c-0.3-0.3-1.2-1.8-2.6-4.6
		c-0.3-0.7-0.8-1.5-1.3-2.4c-0.5-1-1.1-2.1-1.9-3.4c-0.7-1.2-1.2-1.8-1.6-1.8c-0.3,0-0.5,0.5-0.5,1.5c0,0.1,0,0.2,0,0.4
		c0,0.2,0,0.3,0,0.5c0,0.2,0,0.3,0,0.5c0,0.2,0,0.3,0,0.4v7.8l-1.5,1.5h-1.6c-1.5,0-2.6-0.1-3.2-0.2c-0.4-0.1-0.6-0.2-0.6-0.3v-23.8
		c0-0.2,0.1-0.6,0.3-1.1c0.2-0.5,0.4-0.8,0.7-0.9h4.4c0.7,1.1,1.3,2.1,1.8,2.9c0.5,0.8,1,1.6,1.3,2.2c1.8,2.8,2.9,4.4,3.3,4.7
		c0.2,0.2,0.4,0.2,0.5,0.2c0.3,0,0.4-0.3,0.4-1c0-0.1,0.1-1.3,0.3-3.7c0-0.4,0-0.8,0.1-1.4c0-0.6,0.1-1.2,0.2-2
		c0.1-0.9,0.5-1.5,1.1-1.8c0.3-0.2,0.8-0.2,1.3-0.2H93c0.5,0,0.9,0.2,1.3,0.5c0.7,4.5,1,11,1,19.5V292.3z"/>
	<path class="st0" d="M130.3,272.5c-0.5,0.1-0.8,0.2-1,0.3c-1,0.3-1.9,0.8-2.5,1.4c0,0.1,0,0.3,0,0.5c0,0.2,0,0.4,0,0.7v1.2
		c0,1,0,2.1,0.1,3.6c0.1,1.4,0.2,3.1,0.4,5c0.3,3.8,0.5,6.7,0.5,8.6c0,1.5-1,2.3-2.9,2.3c-0.2,0-0.5,0-0.8,0c-0.3,0-0.7,0-1.2,0
		c-0.4,0-0.8,0-1.2,0c-0.3,0-0.6,0-0.8,0l-0.5-1c-0.1-1.8-0.2-3.5-0.3-5.2c-0.1-1.7-0.2-3.5-0.2-5.3c-0.2-2.8-0.3-5-0.5-6.6
		c-0.2-1.6-0.3-2.5-0.4-2.8c0-0.1-0.1-0.2-0.2-0.3c-0.1-0.1-0.2-0.2-0.3-0.2h-4.6l0.2-3.7c0.3-0.6,2.8-1.3,7.3-1.9
		c3.9-0.5,6.6-0.8,8.1-0.8c1.2,0,2,0.1,2.5,0.3v3.5C131.4,272.2,130.8,272.3,130.3,272.5z"/>
	<path class="st0" d="M152.7,295.5h-5.3c-0.4,0-0.8-0.6-1.2-1.7c-0.4-1.1-0.8-1.7-1.3-1.7H140c-0.5,0-0.7,0.6-0.8,1.9
		c-0.1,1.3-0.3,1.9-0.6,1.9h-5c0-1.5,0.1-3.5,0.4-5.9c0.3-2.5,0.7-5.4,1.3-8.9c0.4-2.3,0.9-4.9,1.6-7.7c0.1-0.4,0.2-0.8,0.3-1.3
		c0.1-0.5,0.3-1.1,0.5-1.8c0.4-1,1.6-1.5,3.5-1.5h1.6c0.7,0,1.3,0,1.6,0c1.2,1.5,2.9,5.6,5.3,12.4c2.3,6.8,3.5,11.2,3.5,13.1v0.3
		C153,295,152.8,295.3,152.7,295.5z M143.5,284c0-2.7-0.2-4-0.7-4h-1.2c-0.5,0.5-0.8,2.5-0.8,5.7c1,0,1.6-0.1,1.9-0.2
		C143.3,285.3,143.5,284.8,143.5,284z"/>
	<path class="st0" d="M156.9,296l-0.5-1.5c-0.1-0.2-0.2-1.4-0.4-3.5c-0.4-4.7-0.7-8.5-0.9-11.5c-0.2-3-0.3-5.1-0.3-6.5
		c0-0.2,0-0.4,0-0.7c0-0.3,0-0.6,0-1c0-0.7,0.1-1.3,0.1-1.6l0.5-0.5h6.8c0.1,0.6,0.1,1.4,0.2,2.4c0.1,0.9,0.2,2.1,0.3,3.3
		c0.8,10.1,1.2,17.1,1.2,21H156.9z"/>
	<path class="st0" d="M185.3,294.5c-0.3,1-0.6,1.5-1,1.5h-4.8c-0.6-1-1.4-2.3-2.3-3.8c-0.9-1.5-2-3.3-3.3-5.3
		c-0.1-0.2-0.2-0.3-0.4-0.5c-0.1-0.2-0.2-0.3-0.4-0.5c-1.1,1.1-1.7,1.7-1.7,1.9v8.3h-6.1v-24.3c0-0.2,0.1-0.6,0.3-1.1
		c0.2-0.5,0.4-0.8,0.7-0.9h4.4c0.3,0,0.5,0.5,0.5,1.6v1.8c0,0,0,0.2,0.1,0.7c0,0.5,0.1,1.2,0.2,2.3c0,0.6,0.1,1.6,0.3,2.9
		c0.5,0.3,1,0.5,1.5,0.5c0.1-0.1,0.2-0.2,0.4-0.5c0.5-0.7,1.2-1.7,2-2.9c0.8-1.2,1.7-2.6,2.8-4.3c0.3-0.5,0.7-1,1.2-1.5h4.8
		c0.2,0.2,0.3,0.5,0.3,0.8c0,0.9-1.1,2.9-3.2,6.1c-2.1,3.2-3.2,5.2-3.2,5.9c0,0.2,0.3,0.7,0.9,1.5c0.2,0.3,0.6,0.8,0.9,1.3
		c0.4,0.5,0.8,1.1,1.3,1.8c0.1,0.1,0.2,0.3,0.4,0.5c0.1,0.2,0.3,0.4,0.5,0.6c0.6,1.1,1.2,2.1,1.7,3
		C184.5,292.7,184.9,293.6,185.3,294.5z"/>
	<path class="st0" d="M206,295.5h-5.3c-0.4,0-0.8-0.6-1.2-1.7c-0.4-1.1-0.8-1.7-1.3-1.7h-4.8c-0.5,0-0.7,0.6-0.8,1.9
		c-0.1,1.3-0.3,1.9-0.6,1.9h-5c0-1.5,0.1-3.5,0.4-5.9c0.3-2.5,0.7-5.4,1.3-8.9c0.4-2.3,0.9-4.9,1.6-7.7c0.1-0.4,0.2-0.8,0.3-1.3
		c0.1-0.5,0.3-1.1,0.5-1.8c0.4-1,1.6-1.5,3.5-1.5h1.6c0.7,0,1.3,0,1.6,0c1.2,1.5,2.9,5.6,5.3,12.4c2.3,6.8,3.5,11.2,3.5,13.1v0.3
		C206.3,295,206.2,295.3,206,295.5z M196.9,284c0-2.7-0.2-4-0.7-4H195c-0.5,0.5-0.8,2.5-0.8,5.7c1,0,1.6-0.1,1.9-0.2
		C196.6,285.3,196.9,284.8,196.9,284z"/>
	<path class="st0" d="M243.8,294.2c0,1.2-1.2,1.8-3.6,1.8c-0.5,0-1.2,0-2.1-0.1c-0.5,0-0.9,0-1.2-0.1c-0.3,0-0.6,0-0.9,0l-0.5-0.5
		l-1-11.2c-0.1-0.6-0.4-1.1-1-1.5c-0.4,1-0.8,2.2-1.4,3.6c-0.5,1.4-1.2,3.1-1.9,5.1c-0.1,0.4-0.3,0.9-0.4,1.4
		c-0.2,0.6-0.4,1.2-0.7,2c-0.1,0.3-0.4,0.5-0.7,0.7c-0.5,0.2-1.5,0.3-3.2,0.3h-0.7c-0.2,0-0.3,0-0.4,0c-0.1,0-0.2,0-0.3,0
		c-1-1.6-1.8-3.8-2.6-6.9c-0.3-1.2-0.6-2.4-0.9-3.6c-0.3-1.2-0.6-2.4-0.9-3.6c-0.1,0-0.1,0-0.2,0c-0.1,0-0.1,0-0.1,0
		c-0.1,0-0.3,0.2-0.6,0.5c-0.3,0.3-0.5,0.5-0.5,0.6l-3.1,12.5l-6.4-0.8c-0.1-1-0.2-1.5-0.2-1.7c0-0.2,0.4-2.1,1.3-5.8
		c0.5-2,1.2-4.5,1.9-7.4c0.7-3,1.6-6.4,2.6-10.5c0.3-0.3,1-0.5,2.1-0.5c2.1,0,4.1,0.1,6,0.4c0.4,0.1,0.8,0.3,1.1,0.6l2.4,10.7l1,1
		c1.1-4.2,2-7.4,2.7-9.5c0.1-0.5,0.5-1,1.2-1.7c0.6,0,1.2-0.1,1.6-0.1c0.4,0,0.8,0,1.1,0c2.8,0,4.7,0.3,5.7,0.9
		c0.7,0.5,1.2,1.4,1.5,2.8l0.3,3.3c0.1,0.8,0.2,2,0.5,3.4c0.3,1.4,0.7,3.2,1.2,5.2C243.3,289.1,243.8,292,243.8,294.2z"/>
	<path class="st0" d="M264.6,295.5h-5.3c-0.4,0-0.8-0.6-1.2-1.7c-0.4-1.1-0.8-1.7-1.3-1.7H252c-0.5,0-0.7,0.6-0.8,1.9
		c-0.1,1.3-0.3,1.9-0.6,1.9h-5c0-1.5,0.1-3.5,0.4-5.9c0.3-2.5,0.7-5.4,1.3-8.9c0.4-2.3,0.9-4.9,1.6-7.7c0.1-0.4,0.2-0.8,0.3-1.3
		c0.1-0.5,0.3-1.1,0.5-1.8c0.4-1,1.6-1.5,3.5-1.5h1.6c0.7,0,1.3,0,1.6,0c1.2,1.5,2.9,5.6,5.3,12.4c2.3,6.8,3.5,11.2,3.5,13.1v0.3
		C264.9,295,264.7,295.3,264.6,295.5z M255.5,284c0-2.7-0.2-4-0.7-4h-1.2c-0.5,0.5-0.8,2.5-0.8,5.7c1,0,1.6-0.1,1.9-0.2
		C255.2,285.3,255.5,284.8,255.5,284z"/>
	<path class="st0" d="M285.8,295.5h-5.3c-0.4,0-0.8-0.6-1.2-1.7c-0.4-1.1-0.8-1.7-1.3-1.7h-4.8c-0.5,0-0.7,0.6-0.8,1.9
		c-0.1,1.3-0.3,1.9-0.6,1.9h-5c0-1.5,0.1-3.5,0.4-5.9c0.3-2.5,0.7-5.4,1.3-8.9c0.4-2.3,0.9-4.9,1.6-7.7c0.1-0.4,0.2-0.8,0.3-1.3
		c0.1-0.5,0.3-1.1,0.5-1.8c0.4-1,1.6-1.5,3.5-1.5h1.6c0.7,0,1.3,0,1.6,0c1.2,1.5,2.9,5.6,5.3,12.4c2.3,6.8,3.5,11.2,3.5,13.1v0.3
		C286.1,295,285.9,295.3,285.8,295.5z M276.6,284c0-2.7-0.2-4-0.7-4h-1.2c-0.5,0.5-0.8,2.5-0.8,5.7c1,0,1.6-0.1,1.9-0.2
		C276.4,285.3,276.6,284.8,276.6,284z"/>
</g>
</svg>
